<?xml version="1.0"?>
<svg xmlns="http://www.w3.org/2000/svg" viewBox="0 0 64 64" width="512" height="512"><g id="technician"><path d="M60.92,21H55v8h5.92A7.969,7.969,0,0,1,54,33a7.866,7.866,0,0,1-3.42-.77l.09-.52A8.007,8.007,0,0,0,48,28.54V19.99a1.948,1.948,0,0,0-.02-.25A7.985,7.985,0,0,1,60.92,21Z" style="fill:#c6c5ca"/><path d="M56.92,29h4A7.969,7.969,0,0,1,54,33a7.7,7.7,0,0,1-1.99-.26A7.95,7.95,0,0,0,56.92,29Z" style="fill:#acabb1"/><path d="M51.99,17.25A8.321,8.321,0,0,1,54,17a7.969,7.969,0,0,1,6.92,4h-4A7.943,7.943,0,0,0,51.99,17.25Z" style="fill:#acabb1"/><path d="M51.09,12.56l-3.32,5.53a1.639,1.639,0,0,0-.21.67A1.987,1.987,0,0,0,46,18H44a2.006,2.006,0,0,0-2,2,2.006,2.006,0,0,0-2-2h-.45a11,11,0,0,0-17.8,4H17.41a8.088,8.088,0,0,0-1.29-2.15,1.829,1.829,0,0,0,.18-.34c.01-.01.01-.01.01-.02a1.569,1.569,0,0,0-.08-1.4l-3.32-5.53,5.65-5.65,5.53,3.32a1.569,1.569,0,0,0,1.4.08c.01,0,.01,0,.02-.01a1.516,1.516,0,0,0,.93-1.04L28,3h8l1.56,6.26a1.516,1.516,0,0,0,.93,1.04c.01.01.01.01.02.01a1.569,1.569,0,0,0,1.4-.08l5.53-3.32Z" style="fill:#c0ab91"/><path d="M51.09,12.56l-3.32,5.53a1.639,1.639,0,0,0-.21.67A1.987,1.987,0,0,0,46,18H44a1.087,1.087,0,0,0-.18.01l3.27-5.45L42.94,8.41l2.5-1.5Z" style="fill:#b39a7c"/><path d="M36,30a2,2,0,0,0,1.99,2H40a2.006,2.006,0,0,0,2-2,2.006,2.006,0,0,0,2,2h2a2.006,2.006,0,0,0,2-2V28.54a8.007,8.007,0,0,1,2.67,3.17l-.09.52-1.65,9.91A18.062,18.062,0,0,1,43,50.92V59a2.006,2.006,0,0,1-2,2H23a2.006,2.006,0,0,1-2-2V50.63A18.708,18.708,0,0,1,16,43l-2-8.01a7.166,7.166,0,0,1,.29-2.03,7.326,7.326,0,0,1,.83-1.82c.01,0,0-.01,0-.01a7.17,7.17,0,0,1,1.52-1.68A6.934,6.934,0,0,1,20,28H34a1.949,1.949,0,0,1,2,1.94Z" style="fill:#ffdaaa"/><path d="M50.67,31.71l-.09.52-1.65,9.91A18.062,18.062,0,0,1,43,50.92V59a2.006,2.006,0,0,1-2,2H37a2.006,2.006,0,0,0,2-2V50.92a18.062,18.062,0,0,0,5.93-8.78l1.65-9.91.06-.34A2,2,0,0,0,48,30V28.54A8.007,8.007,0,0,1,50.67,31.71Z" style="fill:#ffc477"/><path d="M48,28.54V30a2.006,2.006,0,0,1-2,2H44a2.006,2.006,0,0,1-2-2V20a2.006,2.006,0,0,1,2-2h2a1.987,1.987,0,0,1,1.56.76,1.924,1.924,0,0,1,.42.98,1.948,1.948,0,0,1,.02.25v8.55Z" style="fill:#ffdaaa"/><path d="M42,20V30a2.006,2.006,0,0,1-2,2H37.99A2,2,0,0,1,36,30V20a2.006,2.006,0,0,1,2-2h2A2.006,2.006,0,0,1,42,20Z" style="fill:#ffdaaa"/><path d="M36,20v9.94A1.949,1.949,0,0,0,34,28H30V20a2.006,2.006,0,0,1,2-2h2A2.006,2.006,0,0,1,36,20Z" style="fill:#ffdaaa"/><path d="M30,20v8H24V20a2.006,2.006,0,0,1,2-2h2A2.006,2.006,0,0,1,30,20Z" style="fill:#ffdaaa"/><path d="M48,19.99V30a2.006,2.006,0,0,1-2,2H44a2.006,2.006,0,0,0,2-2V19.99a1.948,1.948,0,0,0-.02-.25,1.924,1.924,0,0,0-.42-.98A1.987,1.987,0,0,0,44,18h2a1.987,1.987,0,0,1,1.56.76,1.924,1.924,0,0,1,.42.98A1.948,1.948,0,0,1,48,19.99Z" style="fill:#ffc477"/><path d="M42,20V30a2.006,2.006,0,0,1-2,2H38a2.006,2.006,0,0,0,2-2V20a2.006,2.006,0,0,0-2-2h2A2.006,2.006,0,0,1,42,20Z" style="fill:#ffc477"/><path d="M36,20v9.94A1.949,1.949,0,0,0,34,28V20a2.006,2.006,0,0,0-2-2h2A2.006,2.006,0,0,1,36,20Z" style="fill:#ffc477"/><path d="M30,20v8H28V20a2.006,2.006,0,0,0-2-2h2A2.006,2.006,0,0,1,30,20Z" style="fill:#ffc477"/><path d="M24,22v6H17.41a7.737,7.737,0,0,1-.77,1.45,7.17,7.17,0,0,0-1.52,1.68s.01.01,0,.01A7.982,7.982,0,0,1,3.08,29H9V21H3.08a7.99,7.99,0,0,1,13.04-1.15A8.088,8.088,0,0,1,17.41,22H24Z" style="fill:#c6c5ca"/><path d="M60.92,28H56V22h4.92a1,1,0,0,0,.87-.5,1.044,1.044,0,0,0,0-1,8.985,8.985,0,0,0-12.34-3.26l2.5-4.17a1.014,1.014,0,0,0-.15-1.22L46.15,6.2a1.014,1.014,0,0,0-1.22-.15L39.41,9.37a.611.611,0,0,1-.49.03.488.488,0,0,0-.07-.03.53.53,0,0,1-.32-.35L36.97,2.76A1,1,0,0,0,36,2H28a1,1,0,0,0-.97.76L25.47,9.02a.53.53,0,0,1-.32.35.488.488,0,0,0-.07.03.55.55,0,0,1-.48-.03L19.07,6.05a1.014,1.014,0,0,0-1.22.15L12.2,11.85a1.014,1.014,0,0,0-.15,1.22l2.51,4.17A9,9,0,0,0,2.21,20.5a1.044,1.044,0,0,0,0,1,1,1,0,0,0,.87.5H8v6H3.08a1,1,0,0,0-.87.5,1.044,1.044,0,0,0,0,1,8.983,8.983,0,0,0,10.96,3.92A8.2,8.2,0,0,0,13,34.99a.986.986,0,0,0,.03.24l2.01,8.04A19.539,19.539,0,0,0,20,51.04V59a3.009,3.009,0,0,0,3,3H41a3.009,3.009,0,0,0,3-3V51.37a18.649,18.649,0,0,0,5.88-8.93.577.577,0,0,0,.03-.14l1.46-8.7A8.866,8.866,0,0,0,54,34a9.009,9.009,0,0,0,7.79-4.5,1.044,1.044,0,0,0,0-1A1,1,0,0,0,60.92,28ZM14.17,12.71l4.54-4.54,4.88,2.92a2.51,2.51,0,0,0,2.28.14c.02,0,.03-.01.05-.02A2.506,2.506,0,0,0,27.41,9.5L28.78,4h6.44l1.37,5.5a2.506,2.506,0,0,0,1.49,1.71c.02.01.03.02.05.02a2.587,2.587,0,0,0,1.02.21,2.533,2.533,0,0,0,1.27-.35l4.87-2.92,4.54,4.54-2.71,4.51A2.942,2.942,0,0,0,46,17H44a2.974,2.974,0,0,0-2,.78A2.974,2.974,0,0,0,40,17h-.08a11.984,11.984,0,0,0-18.83,4H18.06a10.408,10.408,0,0,0-.78-1.28,2.547,2.547,0,0,0-.19-2.14ZM47,20V30a1,1,0,0,1-1,1H44a1,1,0,0,1-1-1V20a1,1,0,0,1,1-1h2A1,1,0,0,1,47,20Zm-6,0V30a1,1,0,0,1-1,1H38a1,1,0,0,1-1-1V20a1,1,0,0,1,1-1h2A1,1,0,0,1,41,20Zm-7-3H32a2.974,2.974,0,0,0-2,.78A2.974,2.974,0,0,0,28,17h-.39a10.057,10.057,0,0,1,9.21.24,3.071,3.071,0,0,0-.82.54A2.974,2.974,0,0,0,34,17Zm1,3v7.17A3.276,3.276,0,0,0,34,27H31V20a1,1,0,0,1,1-1h2A1,1,0,0,1,35,20Zm-6,0v7H25V20a1,1,0,0,1,1-1h2A1,1,0,0,1,29,20ZM10,32a7.033,7.033,0,0,1-4.9-2H9a1,1,0,0,0,1-1V21a1,1,0,0,0-1-1H5.1A7.033,7.033,0,0,1,10,18a6.957,6.957,0,0,1,6.48,4.37,1,1,0,0,0,.93.63H23v4H17.41a.977.977,0,0,0-.92.62,7.078,7.078,0,0,1-.63,1.2,8.065,8.065,0,0,0-1.44,1.59A6.961,6.961,0,0,1,10,32Zm37.95,9.9a17.066,17.066,0,0,1-5.61,8.27.981.981,0,0,0-.34.75V59a1,1,0,0,1-1,1H23a1,1,0,0,1-1-1V50.63a1.022,1.022,0,0,0-.3-.72c-1.12-1.09-3.82-3.96-4.73-7.15L15,34.87A6.041,6.041,0,0,1,20.07,29H34a.961.961,0,0,1,1,1,5,5,0,0,1-5,5H23v2h3.19l.31.19c2.07,1.26,3.86,2.35,4.53,5.05a9.632,9.632,0,0,1,0,4.53l1.94.46a11.5,11.5,0,0,0,0-5.47A8.388,8.388,0,0,0,29.81,37H30a6.978,6.978,0,0,0,6.49-4.42,2.94,2.94,0,0,0,1.5.42H40a2.974,2.974,0,0,0,2-.78A2.974,2.974,0,0,0,44,33h2a2.992,2.992,0,0,0,2.89-2.24c.26.37.51.75.73,1.13ZM54,32a6.875,6.875,0,0,1-2.35-.41.988.988,0,0,0-.11-.37A9.875,9.875,0,0,0,49,28V20.12A6.979,6.979,0,0,1,58.9,20H55a1,1,0,0,0-1,1v8a1,1,0,0,0,1,1h3.9A7.033,7.033,0,0,1,54,32Z"/><path d="M57,53V45a1,1,0,0,0-1-1H51v2h4v8a1,1,0,0,0,1,1h6V53Z"/><path d="M51,54a1,1,0,0,0-1-1H46v2h3v6a1,1,0,0,0,1,1H62V60H51Z"/><path d="M9,54V46h4V44H8a1,1,0,0,0-1,1v8H2v2H8A1,1,0,0,0,9,54Z"/><path d="M13,54v6H2v2H14a1,1,0,0,0,1-1V55h3V53H14A1,1,0,0,0,13,54Z"/></g></svg>
