<?xml version="1.0" encoding="UTF-8"?>
<svg width="116px" height="116px" viewBox="0 0 116 116" version="1.1" xmlns="http://www.w3.org/2000/svg" xmlns:xlink="http://www.w3.org/1999/xlink">
    <!-- Generator: Sketch 58 (84663) - https://sketch.com -->
    <title>031-technical Support</title>
    <desc>Created with Sketch.</desc>
    <g id="Page-1" stroke="none" stroke-width="1" fill="none" fill-rule="evenodd">
        <g id="Service" transform="translate(-96.000000, -692.000000)" fill-rule="nonzero">
            <g id="Group-6" transform="translate(49.000000, 692.000000)">
                <g id="031-technical-Support" transform="translate(47.000000, 0.000000)">
                    <polygon id="Path" fill="#645960" points="69 90.8333333 69 87 45 87 45 90.8333333 43 106.166667 43 110 71 110 71 106.166667"></polygon>
                    <polygon id="Path" fill="#4B4348" points="69 93 68.7653061 91 68.7653061 89 46.2346939 89 46.2346939 91 46 93"></polygon>
                    <rect id="Rectangle" fill="#315A70" x="1" y="3" width="112" height="88" rx="32"></rect>
                    <path d="M73.3333333,107 L42.6666667,107 C38.4324836,107 35,110.134007 35,114 L81,114 C81,110.134007 77.5675164,107 73.3333333,107 Z" id="Path" fill="#315A70"></path>
                    <path d="M73.3333336,107 L72.8781253,107 C64.6041176,110.469519 55.6048721,112.260625 46.5,112.25 C42.8310893,112.250564 39.1689949,111.961466 35.5546368,111.385937 C35.1877092,112.216711 34.9994034,113.104219 35,114 L81,114 C81,110.134007 77.5675165,107 73.3333336,107 L73.3333336,107 Z" id="Path" fill="#203B47"></path>
                    <path d="M24.1724138,76.6158994 C16.3836888,76.6197114 8.61638205,75.8081717 1,74.1948112 L1,82.3519425 C1,86.575848 4.45821435,90 8.72413793,90 L105.275862,90 C109.541786,90 113,86.575848 113,82.3519425 L113,32 C92.9715517,59.0511794 60.6448276,76.6158994 24.1724138,76.6158994 L24.1724138,76.6158994 Z" id="Path" fill="#203B47"></path>
                    <polygon id="Path" fill="#E6E6E6" points="9 10 106 10 106 84 9 84"></polygon>
                    <polygon id="Path" fill="#ECAE79" points="38 74 54 74 54 84 38 84"></polygon>
                    <path d="M54,74 L38,74 L38,78.4999886 C40.5498044,79.4944552 43.2631294,80.0032023 46,80 C48.7368706,80.0032023 51.4501956,79.4944552 54,78.4999886 L54,74 Z" id="Path" fill="#EC9B56"></path>
                    <g id="Group" transform="translate(15.000000, 45.000000)" fill="#ECAE79">
                        <path d="M5.8125,-2.84217094e-14 C2.60234489,-2.84217094e-14 0,2.6862915 0,6 C0,9.3137085 2.60234489,12 5.8125,12 L13.5625,12 L13.5625,-2.84217094e-14 L5.8125,-2.84217094e-14 Z" id="Path"></path>
                        <path d="M5.8125,-2.84217094e-14 C2.60234489,-2.84217094e-14 0,2.6862915 0,6 C0,9.3137085 2.60234489,12 5.8125,12 L13.5625,12 L13.5625,-2.84217094e-14 L5.8125,-2.84217094e-14 Z" id="Path"></path>
                        <path d="M56.1875,-2.84217094e-14 L50.375,-2.84217094e-14 L50.375,12 L56.1875,12 C59.3976551,12 62,9.3137085 62,6 C62,2.6862915 59.3976551,-2.84217094e-14 56.1875,-2.84217094e-14 L56.1875,-2.84217094e-14 Z" id="Path"></path>
                    </g>
                    <path d="M92.3333333,22 L92.3333333,27.8846154 C92.3333333,30.0512709 90.6170915,31.8076923 88.5,31.8076923 C86.3829085,31.8076923 84.6666667,30.0512709 84.6666667,27.8846154 L84.6666667,22 C80.4324836,22 77,25.5128427 77,29.8461538 L77,31.4889423 C77,35.1934174 79.3160345,38.4823455 82.75,39.6538462 L82.75,67.1153846 C82.75,70.365368 85.3243627,73 88.5,73 C91.6756373,73 94.25,70.365368 94.25,67.1153846 L94.25,39.6538462 C97.6839655,38.4823455 100,35.1934174 100,31.4889423 L100,29.8461538 C100,25.5128427 96.5675164,22 92.3333333,22 L92.3333333,22 Z M88.5,69.0769231 C87.4414542,69.0769231 86.5833333,68.1987124 86.5833333,67.1153846 C86.5833333,66.0320568 87.4414542,65.1538462 88.5,65.1538462 C89.5585458,65.1538462 90.4166667,66.0320568 90.4166667,67.1153846 C90.4166667,68.1987124 89.5585458,69.0769231 88.5,69.0769231 Z" id="Shape" fill="#645960"></path>
                    <path d="M25,48 L25,40.3333333 C25,31.8649672 31.8378329,25 40.2727273,25 L51.7272727,25 C60.1621671,25 67,31.8649672 67,40.3333333 L67,48 L25,48 Z" id="Path" fill="#603813"></path>
                    <path d="M32.6363636,38.8695652 L46,38.8695652 L49.8181818,33 L53.6363636,38.8695652 L59.3636364,38.8695652 C63.5810835,38.8695652 67,42.3734237 67,46.6956522 L67,56.4782609 C67,68.3643892 57.5979797,78 46,78 C34.4020203,78 25,68.3643892 25,56.4782609 L25,46.6956522 C25,42.3734237 28.4189165,38.8695652 32.6363636,38.8695652 Z" id="Path" fill="#ECC19C"></path>
                    <rect id="Rectangle" fill="#4EB7B4" x="29" y="67" width="10" height="7" rx="3.5"></rect>
                    <path d="M97.462742,23 C96.4342451,32.1243408 91.0139103,40.1323483 83,44.3672679 L83,65.2375221 C83,68.4200508 85.5370517,71 88.6666635,71 C91.7962754,71 94.333327,68.4200508 94.333327,65.2375221 L94.333327,38.3459588 C97.7175231,37.1987731 100,33.978108 100,30.3505207 L100,28.741829 C100.001965,26.546685 99.0781458,24.4560699 97.462742,23 L97.462742,23 Z M88.6666635,67.1583481 C87.6234596,67.1583481 86.7777757,66.298365 86.7777757,65.2375221 C86.7777757,64.1766793 87.6234596,63.3166962 88.6666635,63.3166962 C89.7098675,63.3166962 90.5555514,64.1766793 90.5555514,65.2375221 C90.5555514,66.298365 89.7098675,67.1583481 88.6666635,67.1583481 Z" id="Shape" fill="#4B4348"></path>
                    <path d="M106.333333,0 L9.66666667,0 C4.33039852,0.00599319383 0.00599319383,4.33039852 0,9.66666667 L0,83.1333333 C0.00599319383,88.4696015 4.33039852,92.7940068 9.66666667,92.8 L44.2100167,92.8 L42.7600167,104.4 L42.5333333,104.4 C37.1970652,104.405993 32.8726599,108.730399 32.8666667,114.066667 C32.8666667,115.134417 33.7322495,116 34.8,116 L81.2,116 C82.2677505,116 83.1333333,115.134417 83.1333333,114.066667 C83.1273401,108.730399 78.8029348,104.405993 73.4666667,104.4 L73.2399833,104.4 L71.7899833,92.8 L106.333333,92.8 C111.669601,92.7940068 115.994007,88.4696015 116,83.1333333 L116,9.66666667 C115.994007,4.33039852 111.669601,0.00599319383 106.333333,0 Z M78.9353417,112.133333 L37.0646583,112.133333 C37.8865577,109.817753 40.0762168,108.269539 42.5333333,108.266667 L73.4666667,108.266667 C75.9237832,108.269539 78.1134423,109.817753 78.9353417,112.133333 L78.9353417,112.133333 Z M69.34335,104.4 L46.65665,104.4 L48.10665,92.8 L67.89335,92.8 L69.34335,104.4 Z M112.133333,83.1333333 C112.129605,86.3350391 109.535039,88.9296045 106.333333,88.9333333 L9.66666667,88.9333333 C6.46496091,88.9296045 3.87039547,86.3350391 3.86666667,83.1333333 L3.86666667,9.66666667 C3.87039547,6.46496091 6.46496091,3.87039547 9.66666667,3.86666667 L106.333333,3.86666667 C109.535039,3.87039547 112.129605,6.46496091 112.133333,9.66666667 L112.133333,83.1333333 Z" id="Shape" fill="#000000"></path>
                    <path d="M105.076923,9 L8.92307692,9 C7.86099087,9 7,9.86185186 7,10.925 L7,84.075 C7,85.1381481 7.86099087,86 8.92307692,86 L105.076923,86 C106.139009,86 107,85.1381481 107,84.075 L107,10.925 C107,9.86185186 106.139009,9 105.076923,9 Z M39.6923077,82.15 L39.6923077,79.4947031 C43.4768938,80.4689166 47.4461832,80.4689166 51.2307692,79.4947031 L51.2307692,82.15 L39.6923077,82.15 Z M33.9230769,72.525 L32,72.525 C30.9379139,72.525 30.0769231,71.6631481 30.0769231,70.6 C30.0769231,69.5368519 30.9379139,68.675 32,68.675 L33.9230769,68.675 C34.985163,68.675 35.8461538,69.5368519 35.8461538,70.6 C35.8461538,71.6631481 34.985163,72.525 33.9230769,72.525 Z M39.6423077,69.8521375 C41.7401975,72.2899629 45.1318621,73.1638176 48.1448492,72.042798 C51.1578362,70.9217783 53.1559256,68.042598 53.1538462,64.825 L53.1538462,62.9 L49.3076923,62.9 L49.3076923,64.825 C49.3076923,66.9512963 47.5857106,68.675 45.4615385,68.675 C43.3373663,68.675 41.6153846,66.9512963 41.6153846,64.825 L41.6153846,62.9 L37.7692308,62.9 L37.7692308,64.825 C37.7694844,65.3772253 37.8291228,65.9278189 37.9471154,66.4672656 C36.8721363,65.4138339 35.4274311,64.8242298 33.9230769,64.825 L32,64.825 C30.703917,64.8241136 29.4456812,65.2623202 28.4300481,66.0683094 C26.9804198,63.3109286 26.2254555,60.2408864 26.2307414,57.125 L26.2307414,47.5 C26.2344783,44.3120947 28.8152794,41.7287127 32,41.725 L45.4615385,41.725 C46.1044729,41.724989 46.7048706,41.4033612 47.0615385,40.8678937 L49.3076923,37.4952937 L51.5538462,40.8678937 C51.9105141,41.4033612 52.5109117,41.724989 53.1538462,41.725 L58.9230769,41.725 C62.1077975,41.7287127 64.6885987,44.3120947 64.6923077,47.5 L64.6923077,57.125 C64.6897935,63.5993126 61.4373915,69.6390673 56.0358368,73.2001841 C50.6342821,76.761301 43.8065725,77.3671248 37.8634615,74.8126219 C39.2242094,73.5452365 39.8871874,71.6964584 39.6423077,69.8521375 L39.6423077,69.8521375 Z M68.5384615,47.5 L70.4615385,47.5 C72.5857106,47.5 74.3076923,49.2237037 74.3076923,51.35 C74.3076923,53.4762963 72.5857106,55.2 70.4615385,55.2 L68.5384615,55.2 L68.5384615,47.5 Z M68.5384615,43.65 L68.5384615,41.725 C68.527731,32.1611194 60.7850955,24.4107412 51.2307692,24.4 L39.6923077,24.4 C30.1379814,24.4107412 22.3953459,32.1611194 22.3846154,41.725 L22.3846154,43.65 L20.4615385,43.65 C20.4615385,29.8290741 31.6544197,18.625 45.4615385,18.625 C59.2686572,18.625 70.4615385,29.8290741 70.4615385,43.65 L68.5384615,43.65 Z M64.5394231,39.6948469 C62.9059565,38.5103782 60.9400982,37.8733874 58.9230769,37.875 L54.1829327,37.875 L50.9076923,32.9571063 C50.5510131,32.4216576 49.9506174,32.1000493 49.3076923,32.1000493 C48.6647672,32.1000493 48.0643715,32.4216576 47.7076923,32.9571063 L44.4324519,37.875 L32,37.875 C29.9829787,37.8733874 28.0171205,38.5103782 26.3836538,39.6948469 C27.3940675,33.117056 33.0438649,28.258483 39.6923077,28.25 L51.2307692,28.25 C57.879212,28.258483 63.5290094,33.117056 64.5394231,39.6948469 L64.5394231,39.6948469 Z M20.4615385,47.5 L22.3846154,47.5 L22.3846154,55.2 L20.4615385,55.2 C18.3373663,55.2 16.6153846,53.4762963 16.6153846,51.35 C16.6153846,49.2237037 18.3373663,47.5 20.4615385,47.5 Z M20.4615385,59.05 L22.465625,59.05 C22.7214488,62.2024022 23.6269349,65.2675674 25.125,68.0522625 C22.2981541,66.8369921 20.4647346,64.0545973 20.4615385,60.975 L20.4615385,59.05 Z M103.153846,82.15 L55.0769231,82.15 L55.0769231,78.1216969 C62.6420413,74.6395007 67.7528552,67.3550246 68.4576923,59.05 L70.4615385,59.05 C73.9426222,59.0511115 76.9902656,56.7111875 77.8914873,53.3454235 C78.7927089,49.9796595 77.3226949,46.4276608 74.3076923,44.6858906 L74.3076923,43.65 C74.3076923,27.7027778 61.3928293,14.775 45.4615385,14.775 C29.5302476,14.775 16.6153846,27.7027778 16.6153846,43.65 L16.6153846,44.6858906 C14.2355612,46.0594609 12.7691929,48.6001659 12.7691929,51.35 C12.7691929,54.0998341 14.2355612,56.6405391 16.6153846,58.0141094 L16.6153846,60.975 C16.6230734,66.7195271 20.8415341,71.587853 26.5216346,72.4073344 C27.3033701,74.7730208 29.5107439,76.371695 32,76.375 L32.7074519,76.375 C33.7064936,77.0404407 34.7559169,77.626781 35.8461538,78.128675 L35.8461538,82.15 L10.8461538,82.15 L10.8461538,12.85 L103.153846,12.85 L103.153846,82.15 Z" id="Shape" fill="#000000"></path>
                    <path d="M36,47 C32.6878336,47.0032549 30.0037199,49.3518544 30,52.25 L30,54 L34,54 L34,52.25 C34,51.2835017 34.8954305,50.5 36,50.5 C37.1045695,50.5 38,51.2835017 38,52.25 L38,54 L42,54 L42,52.25 C41.9962801,49.3518544 39.3121664,47.0032549 36,47 Z" id="Path" fill="#000000"></path>
                    <path d="M55,52.25 C55,51.2835017 55.8954305,50.5 57,50.5 C58.1045695,50.5 59,51.2835017 59,52.25 L59,54 L63,54 L63,52.25 C63,49.3505051 60.3137085,47 57,47 C53.6862915,47 51,49.3505051 51,52.25 L51,54 L55,54 L55,52.25 Z" id="Path" fill="#000000"></path>
                    <path d="M81.0000054,40.5737589 L81.0000054,66.2857143 C81.0000054,70.5461966 84.5817217,74 88.9999947,74 C93.4182676,74 96.9999855,70.5461966 96.9999855,66.2857143 L96.9999855,40.5737589 C100.677332,38.8245509 103.004064,35.2120146 102.999984,31.2580357 L102.999984,29.6428571 C102.993779,24.3197325 98.5202611,20.0059784 92.9999901,20 C91.8954218,20 90.9999924,20.8634508 90.9999924,21.9285714 L90.9999924,27.7142857 C90.9999924,28.7794063 90.1045629,29.6428571 88.9999947,29.6428571 C87.8954264,29.6428571 87.0000054,28.7794063 87.0000054,27.7142857 L87.0000054,21.9285714 C87.0000054,20.8634508 86.1045675,20 85.0000054,20 C79.4797282,20.0059784 75.0062106,24.3197325 75.0000054,29.6428571 L75.0000054,31.2580357 C74.9959251,35.2120146 77.3226573,38.8245509 81.0000054,40.5737589 L81.0000054,40.5737589 Z M79.0000028,29.6428571 C79.0029772,27.1917926 80.6045766,25.0075268 83.0000028,24.1876518 L83.0000028,27.7142857 C83.0000028,30.9096475 85.68629,33.5 89.0000028,33.5 C92.3136994,33.5 94.9999878,30.9096475 94.9999878,27.7142857 L94.9999878,24.1876518 C97.3954127,25.0075268 98.9970121,27.1917926 98.999986,29.6428571 L98.999986,31.2580357 C99.0026469,34.0707917 97.1356064,36.5685639 94.3674885,37.4555 C93.5506015,37.7180916 92.999711,38.4553851 92.9999901,39.2857143 L92.9999901,66.2857143 C92.9999901,68.4159555 91.2091311,70.1428571 89.0000028,70.1428571 C86.7908582,70.1428571 85.0000028,68.4159555 85.0000028,66.2857143 L85.0000028,39.2857143 C85.0000631,38.4555625 84.4492132,37.7185176 83.6325008,37.4559821 C80.864208,36.5689903 78.9971267,34.0709691 79.0000028,31.2580357 L79.0000028,29.6428571 Z" id="Shape" fill="#000000"></path>
                    <circle id="Oval" fill="#000000" cx="89" cy="66" r="2"></circle>
                </g>
            </g>
        </g>
    </g>
</svg>