<?xml version="1.0" encoding="UTF-8"?>
<svg width="500px" height="318px" viewBox="0 0 500 318" version="1.1" xmlns="http://www.w3.org/2000/svg" xmlns:xlink="http://www.w3.org/1999/xlink">
    <!-- Generator: Sketch 64 (93537) - https://sketch.com -->
    <title>2451353</title>
    <desc>Created with Sketch.</desc>
    <defs>
        <path d="M36.86,9.127 L20.157,23.743 L0.467,9.885 C0.467,9.885 7.169,7.638 18.66,10.697 L30.42,0.815 L36.86,9.127" id="path-1"></path>
        <linearGradient x1="20.3555629%" y1="28.3868034%" x2="84.3414942%" y2="57.9819085%" id="linearGradient-3">
            <stop stop-color="#141C28" offset="0%"></stop>
            <stop stop-color="#303439" offset="100%"></stop>
        </linearGradient>
        <path d="M29.031,3.667 L24.217,25.333 L0.144,25.814 C0.144,25.814 4.216,20.036 15.29,15.703 L18.921,0.778 L29.031,3.667" id="path-4"></path>
        <linearGradient x1="-0.00346176481%" y1="50%" x2="100%" y2="50%" id="linearGradient-6">
            <stop stop-color="#141C28" offset="0%"></stop>
            <stop stop-color="#303439" offset="100%"></stop>
        </linearGradient>
        <path d="M19.854,28.122 C19.87,28.137 19.61,26.936 21.659,25.007 C28.436,18.627 21.188,6.147 13.804,3.974 C10.026,2.862 7.611,4.034 6.256,0.28 C6.354,0.549 4.729,1.238 4.568,1.374 C3.683,2.124 3.261,2.652 3.232,3.891 C3.107,9.345 7.988,14.423 11.682,17.858 C13.342,19.403 9.256,18.337 7.607,18.652 C6.535,18.857 3.753,21.796 3.155,22.241 C4.704,24.169 6.083,22.428 8.172,23.36 C10.102,24.221 8.879,26.676 7.08,26.967 C4.294,27.417 3.16,25.58 3.16,25.58 C1.884,26.273 1.679,30.41 0.676,31.492 C2.061,32.252 10.134,33.671 12.028,33.6482762 C16.074,33.6 18.555,31.362 19.854,28.122" id="path-7"></path>
        <linearGradient x1="64.3673788%" y1="89.3663185%" x2="20.5823923%" y2="18.6539453%" id="linearGradient-9">
            <stop stop-color="#141C28" offset="0%"></stop>
            <stop stop-color="#303439" offset="100%"></stop>
        </linearGradient>
        <path d="M0.91,68.684 C0.91,68.684 23.814,77.227 54.34,65.647 C84.865,54.069 93.193,0.002 93.193,0.002 L96.686,1.773 C96.686,1.773 93.286,61.437 53.096,74.403 C22.37,84.314 0.91,72.511 0.91,72.511 L0.91,68.684" id="path-10"></path>
        <linearGradient x1="0%" y1="50.0001717%" x2="99.9991647%" y2="50.0001717%" id="linearGradient-12">
            <stop stop-color="#141C28" offset="0%"></stop>
            <stop stop-color="#303439" offset="100%"></stop>
        </linearGradient>
    </defs>
    <g id="Page-1" stroke="none" stroke-width="1" fill="none" fill-rule="evenodd">
        <g id="2451353">
            <text id="ERROR-404" font-family="Roboto-Black, Roboto" font-size="34.4295" font-weight="700" fill="#E30611">
                <tspan x="160.598" y="41.5729297">ERROR 404</tspan>
            </text>
            <text id="СТРАНИЦА-НЕ-НАЙДЕНА" font-family="Raleway-Medium, Raleway" font-size="18.2453" font-weight="400" letter-spacing="-0.7305103" fill="#4070AA">
                <tspan x="145.208" y="70.3730913">СТРАНИЦА НЕ НАЙДЕНА :(</tspan>
            </text>
            <polyline id="Fill-2" fill="#D1A169" points="423.348 246.321 456.209 317.349 459.912 317.337 431.497 241.708 423.348 246.321"></polyline>
            <polyline id="Fill-3" fill="#D1A169" points="389.357 247.839 356.496 317.349 352.793 317.337 381.208 246.262 389.357 247.839"></polyline>
            <g id="Group-6" transform="translate(269.000000, 293.000000)">
                <mask id="mask-2" fill="white">
                    <use xlink:href="#path-1"></use>
                </mask>
                <g id="Clip-5"></g>
                <path d="M36.86,9.127 L20.157,23.743 L0.467,9.885 C0.467,9.885 7.169,7.638 18.66,10.697 L30.42,0.815 L36.86,9.127" id="Fill-4" fill="url(#linearGradient-3)" mask="url(#mask-2)"></path>
            </g>
            <path d="M402.547,221.508 C402.547,221.508 365.632,240.429 352.59,246.09 C339.548,251.75 295.178,296.183 295.178,296.183 C295.178,296.183 300.858,307.75 303.699,305.719 C328.752,287.806 351.832,271.779 366.664,266.186 C396.033,255.113 404.219,252.705 411.741,243.987 C411.741,243.987 407.329,233.509 402.547,221.508" id="Fill-7" fill="#325D9B"></path>
            <g id="Group-10" transform="translate(316.000000, 291.000000)">
                <mask id="mask-5" fill="white">
                    <use xlink:href="#path-4"></use>
                </mask>
                <g id="Clip-9"></g>
                <path d="M29.031,3.667 L24.217,25.333 L0.144,25.814 C0.144,25.814 4.216,20.036 15.29,15.703 L18.921,0.778 L29.031,3.667" id="Fill-8" fill="url(#linearGradient-6)" mask="url(#mask-5)"></path>
            </g>
            <path d="M403.442,216.703 C403.442,216.703 369.104,220.407 356.587,227.147 C344.068,233.889 334.104,295.703 334.104,295.703 C334.104,295.703 343.827,300.981 345.031,297.703 C354.741,271.262 365.514,250.553 365.514,250.553 C377.852,248.299 406.429,262.206 427.083,241.861 C427.083,241.861 409.221,228.258 403.442,216.703" id="Fill-11" fill="#4070AA"></path>
            <path d="M462.612,174.965 C462.612,174.965 460.133,179.07 458.569,184.212 L444.445,182.908 C444.445,182.908 451.738,171.859 451.18,165.158 L462.612,174.965" id="Fill-12" fill="#F4BFA7"></path>
            <path d="M459.575,152.137 C458.773,151.924 455.755,151.093 455.145,151.342 C454.297,151.687 455.282,152.798 454.686,153.476 C453.721,154.574 451.789,154.597 450.544,155.264 C449.035,156.072 447.885,157.134 447.195,158.347 C446.045,160.368 450.233,164.879 450.89,168.26 C452.261,175.332 461.2,176.378 468.463,174.213 C471.06,173.439 473.447,171.104 474.863,168.839 C476.527,166.177 475.589,161.728 474.195,159.077 C473.359,157.487 471.703,156.117 470.258,155.12 C468.948,154.216 468.586,150.461 467.009,150.195 C467.009,150.195 461.381,152.616 459.575,152.137" id="Fill-13" fill="#F4BFA7"></path>
            <g id="Group-16" transform="translate(460.000000, 143.000000)">
                <mask id="mask-8" fill="white">
                    <use xlink:href="#path-7"></use>
                </mask>
                <g id="Clip-15"></g>
                <path d="M19.854,28.122 C19.87,28.137 19.61,26.936 21.659,25.007 C28.436,18.627 21.188,6.147 13.804,3.974 C10.026,2.862 7.611,4.034 6.256,0.28 C6.354,0.549 4.729,1.238 4.568,1.374 C3.683,2.124 3.261,2.652 3.232,3.891 C3.107,9.345 7.988,14.423 11.682,17.858 C13.342,19.403 9.256,18.337 7.607,18.652 C6.535,18.857 3.753,21.796 3.155,22.241 C4.704,24.169 6.083,22.428 8.172,23.36 C10.102,24.221 8.879,26.676 7.08,26.967 C4.294,27.417 3.16,25.58 3.16,25.58 C1.884,26.273 1.679,30.41 0.676,31.492 C2.061,32.252 10.134,33.671 12.028,33.6482762 C16.074,33.6 18.555,31.362 19.854,28.122" id="Fill-14" fill="url(#linearGradient-9)" mask="url(#mask-8)"></path>
            </g>
            <path d="M462.155,177.162 C465.116,210.192 427.083,241.861 427.083,241.861 C427.083,241.861 402.249,242.796 403.442,216.703 C403.442,216.703 405.375,211.958 420.749,198.025 C431.021,188.717 438.236,174.825 445.464,175.102 C465.204,175.857 462.155,177.162 462.155,177.162" id="Fill-17" fill="#E30611"></path>
            <g id="Group-20" transform="translate(369.000000, 175.000000)">
                <mask id="mask-11" fill="white">
                    <use xlink:href="#path-10"></use>
                </mask>
                <g id="Clip-19"></g>
                <path d="M0.91,68.684 C0.91,68.684 23.814,77.227 54.34,65.647 C84.865,54.069 93.193,0.002 93.193,0.002 L96.686,1.773 C96.686,1.773 93.286,61.437 53.096,74.403 C22.37,84.314 0.91,72.511 0.91,72.511 L0.91,68.684" id="Fill-18" fill="url(#linearGradient-12)" mask="url(#mask-11)"></path>
            </g>
            <path d="M458.48,210.157 C458.48,210.157 462.138,222.83 462.341,229.147 C462.545,235.464 459.845,256.909 459.845,256.909 L465.662,257.645 C465.662,257.645 470.832,232.085 470.954,223.743 C471.074,215.402 466.265,201.888 466.265,201.888 L458.48,210.157" id="Fill-21" fill="#F4CF9C"></path>
            <path d="M458.117,210.692 C462.341,229.147 460.59,253.881 460.59,253.881 L466.903,254.283 C473.824,239.806 473.176,207.728 469.517,194.232 C467.366,186.303 466.1,178.308 460.734,177.075 C457.38,176.304 450.48,178.759 449.557,182.074 C447.551,189.268 456.045,201.64 458.117,210.692" id="Fill-22" fill="#E30611"></path>
            <path d="M457.242,260.099 C455.849,262.752 455.218,264.696 456.038,265.366 C456.604,265.828 457.516,263.252 458.616,262.333 C458.939,263.406 458.982,265.411 458.296,267.099 C457.519,269.012 457.587,270.647 459.04,270.788 C460.493,270.929 462.857,270.833 463.384,269.628 C463.908,268.424 465.104,263.399 465.75,261.728 C466.396,260.056 465.539,258.135 465.785,257.178 C466.031,256.22 461.492,254.617 461.492,254.617 C461.243,255.002 459.845,256.909 459.845,256.909 C459.845,256.909 458.666,258.32 458.261,258.577 C457.854,258.834 457.242,260.099 457.242,260.099" id="Fill-23" fill="#F4CF9C"></path>
            <line x1="422.782" y1="0.711" x2="422.782" y2="44.709" id="Stroke-24" stroke="#D1D7D9" stroke-width="0.25"></line>
            <path d="M430.574,61.631 C430.246,65.88 426.535,69.059 422.286,68.731 C418.037,68.403 414.857,64.693 415.186,60.443 C415.514,56.194 419.225,53.015 423.474,53.343 C427.723,53.671 430.902,57.381 430.574,61.631" id="Fill-25" fill="#F3B329"></path>
            <polyline id="Fill-26" fill="#CFD9E2" points="459.219 64.313 386.346 64.313 418.238 41.105 427.326 41.105 459.219 64.313"></polyline>
            <line x1="79.716" y1="0.711" x2="79.716" y2="44.709" id="Stroke-27" stroke="#D1D7D9" stroke-width="0.25"></line>
            <path d="M87.508,61.631 C87.18,65.88 83.47,69.059 79.22,68.731 C74.971,68.403 71.792,64.693 72.12,60.443 C72.448,56.194 76.158,53.015 80.408,53.343 C84.657,53.671 87.836,57.381 87.508,61.631" id="Fill-28" fill="#F3B329"></path>
            <polyline id="Fill-29" fill="#CFD9E2" points="116.153 64.313 43.279 64.313 75.172 41.105 84.26 41.105 116.153 64.313"></polyline>
            <line x1="0.841" y1="317.001" x2="499.159" y2="317.001" id="Stroke-30" stroke="#9FA7AE" stroke-width="0.5"></line>
            <path d="M181.988,163.912 C181.988,163.912 183.525,160.149 186.318,156.795 C189.111,153.442 193.275,147.859 193.275,147.859 C193.275,147.859 191.245,151.833 188.487,156.323 C185.73,160.813 181.988,163.912 181.988,163.912" id="Fill-31" fill="#58B57B"></path>
            <path d="M184.876,157.369 C184.876,157.369 187.968,154.939 189.825,149.797 C191.682,144.654 193.374,140.739 193.374,140.739 C193.374,140.739 189.363,146.477 187.639,150.454 C185.915,154.43 184.876,157.369 184.876,157.369" id="Fill-32" fill="#58B57B"></path>
            <path d="M182.196,163.184 C182.196,163.184 183.813,157.302 184.131,152.607 C184.449,147.912 184.413,144.963 184.413,144.963 C184.413,144.963 182.373,153.482 181.758,157.1 C181.143,160.718 182.196,163.184 182.196,163.184" id="Fill-33" fill="#58B57B"></path>
            <path d="M180.812,167.089 C180.812,167.089 181.329,161.031 179.626,155.612 C177.923,150.192 177.831,146.752 177.831,146.752 C177.831,146.752 177.013,152.426 177.984,157.317 C178.954,162.208 180.812,167.089 180.812,167.089" id="Fill-34" fill="#58B57B"></path>
            <path d="M181.313,165.751 C181.313,165.751 185.616,162.076 187.791,161.211 C189.966,160.347 192.995,157.828 192.995,157.828 C192.995,157.828 189.256,162.614 187.169,163.562 C185.082,164.511 181.313,165.751 181.313,165.751" id="Fill-35" fill="#58B57B"></path>
            <path d="M179.828,170.893 C179.828,170.893 180.245,167.585 178.322,162.897 C176.399,158.21 175.954,155.892 175.954,155.892 C175.954,155.892 175.84,162.256 177.105,164.644 C178.371,167.032 179.828,170.893 179.828,170.893" id="Fill-36" fill="#58B57B"></path>
            <path d="M180.23,168.484 C180.23,168.484 182.703,166.833 185.087,166.499 C187.471,166.164 188.107,165.84 188.107,165.84 C188.107,165.84 186.901,168.043 183.961,168.415 C181.021,168.786 180.23,168.484 180.23,168.484" id="Fill-37" fill="#58B57B"></path>
            <path d="M178.612,174.05 C179.146,171.97 179.835,168.754 180.544,166.606 C182.109,161.864 185.833,155.754 185.833,155.754 C183.559,160.798 181.898,163.635 180.754,167.985 C180.301,169.71 179.518,172.103 179.094,173.666 C179.025,174.095 178.682,174.455 178.612,174.05" id="Fill-38" fill="#58B57B"></path>
            <path d="M179.71,165.608 C179.71,165.608 179.467,161.293 177.819,156.956 C176.172,152.619 173.917,145.567 173.917,145.567 C173.917,145.567 174.584,150.264 175.802,155.731 C177.021,161.198 179.71,165.608 179.71,165.608" id="Fill-39" fill="#83C494"></path>
            <path d="M179.071,158.032 C179.071,158.032 176.803,154.52 176.715,148.708 C176.628,142.897 176.281,138.375 176.281,138.375 C176.281,138.375 178.329,145.531 178.686,150.124 C179.043,154.718 179.071,158.032 179.071,158.032" id="Fill-40" fill="#83C494"></path>
            <path d="M179.753,164.804 C179.753,164.804 180.162,158.332 181.467,153.502 C182.772,148.673 183.827,145.722 183.827,145.722 C183.827,145.722 182.931,154.99 182.298,158.84 C181.665,162.689 179.753,164.804 179.753,164.804" id="Fill-41" fill="#83C494"></path>
            <path d="M179.794,169.208 C179.794,169.208 181.369,162.939 184.956,158.081 C188.542,153.223 189.825,149.797 189.825,149.797 C189.825,149.797 188.684,155.783 186.017,160.363 C183.349,164.944 179.794,169.208 179.794,169.208" id="Fill-42" fill="#83C494"></path>
            <path d="M179.752,167.689 C179.752,167.689 176.698,162.507 174.811,160.886 C172.924,159.264 170.751,155.685 170.751,155.685 C170.751,155.685 172.854,161.788 174.623,163.464 C176.393,165.14 179.752,167.689 179.752,167.689" id="Fill-43" fill="#83C494"></path>
            <path d="M179.466,173.372 C179.466,173.372 180.192,169.902 183.746,165.856 C187.3,161.81 188.549,159.633 188.549,159.633 C188.549,159.633 186.463,166.07 184.365,168.032 C182.267,169.995 179.466,173.372 179.466,173.372" id="Fill-44" fill="#83C494"></path>
            <path d="M179.896,170.811051 C179.896,170.811051 177.981,168.297 175.7,167.135 C173.419,165.974 172.893,165.429 172.893,165.429 C172.893,165.429 173.342,168.06 176.169,169.451 C178.996,170.841 179.896,170.811051 179.896,170.811051" id="Fill-45" fill="#83C494"></path>
            <path d="M179.596,176.965 C179.779,174.689 180.199,171.22 180.229,168.815 C180.297,163.506 178.667,156.077 178.667,156.077 C179.208,161.935 179.896,165.36 179.541,170.129 C179.4,172.019 179.36,174.695 179.245,176.414 C179.166,176.868 179.386,177.348 179.596,176.965" id="Fill-46" fill="#58B57B"></path>
            <path d="M176.438,166.502 C176.438,166.502 174.901,162.738 172.107,159.385 C169.314,156.032 165.15,150.449 165.15,150.449 C165.15,150.449 167.182,154.423 169.938,158.913 C172.696,163.403 176.438,166.502 176.438,166.502" id="Fill-47" fill="#58B57B"></path>
            <path d="M173.55,159.959 C173.55,159.959 170.458,157.529 168.601,152.387 C166.744,147.244 165.052,143.329 165.052,143.329 C165.052,143.329 169.063,149.066 170.787,153.043 C172.511,157.02 173.55,159.959 173.55,159.959" id="Fill-48" fill="#58B57B"></path>
            <path d="M176.23,165.774 C176.23,165.774 174.612,159.892 174.295,155.197 C173.977,150.501 174.013,147.553 174.013,147.553 C174.013,147.553 176.053,156.072 176.668,159.69 C177.283,163.308 176.23,165.774 176.23,165.774" id="Fill-49" fill="#58B57B"></path>
            <path d="M177.615,169.679 C177.615,169.679 177.097,163.621 178.8,158.202 C180.502,152.782 180.595,149.342 180.595,149.342 C180.595,149.342 181.413,155.016 180.442,159.907 C179.472,164.798 177.615,169.679 177.615,169.679" id="Fill-50" fill="#58B57B"></path>
            <path d="M177.113,168.341 C177.113,168.341 172.81,164.666 170.635,163.801 C168.46,162.937 165.431,160.417 165.431,160.417 C165.431,160.417 169.17,165.204 171.257,166.152 C173.344,167.101 177.113,168.341 177.113,168.341" id="Fill-51" fill="#58B57B"></path>
            <path d="M178.598,173.482 C178.598,173.482 178.181,170.174 180.104,165.487 C182.027,160.8 182.472,158.482 182.472,158.482 C182.472,158.482 182.586,164.846 181.321,167.234 C180.056,169.622 178.598,173.482 178.598,173.482" id="Fill-52" fill="#58B57B"></path>
            <path d="M178.196,171.073 C178.196,171.073 175.723,169.423 173.339,169.088 C170.955,168.754 170.319,168.43 170.319,168.43 C170.319,168.43 171.524,170.633 174.465,171.004 C177.405,171.376 178.196,171.073 178.196,171.073" id="Fill-53" fill="#58B57B"></path>
            <path d="M179.813,176.639 C179.279,174.56 178.591,171.344 177.882,169.196 C176.317,164.453 172.593,158.344 172.593,158.344 C174.867,163.388 176.528,166.225 177.672,170.575 C178.125,172.299 178.908,174.692 179.332,176.256 C179.401,176.685 179.744,177.044 179.813,176.639" id="Fill-54" fill="#58B57B"></path>
            <polyline id="Fill-55" fill="#CFD9E2" points="185.278 191.163 173.611 191.163 170.006 170.613 189.303 170.613 185.278 191.163"></polyline>
            <polyline id="Fill-56" fill="#D1A169" points="318.572 196.809 337.813 317.114 341.517 317.103 326.293 196.784 318.572 196.809"></polyline>
            <polyline id="Fill-57" fill="#D1A169" points="185.934 196.864 160.875 317.289 155.885 317.301 175.531 196.889 185.934 196.864"></polyline>
            <polygon id="Fill-58" fill="#D1A169" points="146.487 199.042 353.513 199.042 353.513 189.777 146.487 189.777"></polygon>
            <polygon id="Fill-59" fill="#EBB576" points="136.562 195.927 363.438 195.927 363.438 189.777 136.562 189.777"></polygon>
            <polyline id="Fill-60" fill="#9FA7AE" points="299.993 186.534 291.941 186.534 283.889 135.157 290.011 135.157 299.993 186.534"></polyline>
            <polyline id="Fill-61" fill="#CFD9E2" points="297.682 186.534 266.254 186.534 258.202 135.157 289.63 135.157 297.682 186.534"></polyline>
            <polygon id="Fill-62" fill="#CFD9E2" points="265.832 189.202 299.993 189.202 299.993 185.369 265.832 185.369"></polygon>
            <polygon id="Fill-63" fill="#9FA7AE" points="299.993 189.202 343.066 189.202 343.066 185.369 299.993 185.369"></polygon>
            <path d="M280.422,163.345 C281.331,167.277 280.69,171.525 278.991,172.832 C277.292,174.139 275.178,172.01 274.268,168.077 C273.358,164.144 273.998,159.896 275.697,158.589 C277.396,157.283 279.512,159.412 280.422,163.345" id="Fill-64" fill="#9FA7AE"></path>
            <path d="M231.534,189.022 L227.076,189.022 C225.234,189.022 223.668,187.68 223.385,185.86 L221.604,174.389 L237.006,174.389 L235.225,185.86 C234.943,187.68 233.376,189.022 231.534,189.022" id="Fill-65" fill="#9FA7AE"></path>
            <path d="M235.497,185.173 C238.309,185.263 239.197,183.105 239.531,181.255 C239.752,180.03 239.577,179.066 239.012,178.392 C238.47,177.742 237.555,177.369 236.503,177.369 C234.841,177.369 233.488,179.168 233.488,181.38 C233.488,183.241 235,184.731 235.497,185.173 Z M235.665,186.578 C235.502,186.578 235.339,186.572 235.172,186.559 L234.963,186.543 L234.797,186.415 C234.686,186.331 232.085,184.294 232.085,181.38 C232.085,178.395 234.067,175.966 236.503,175.966 C237.971,175.966 239.279,176.522 240.09,177.491 C240.669,178.184 241.282,179.444 240.912,181.504 C240.325,184.753 238.424,186.578 235.665,186.578 L235.665,186.578 Z" id="Fill-66" fill="#9FA7AE"></path>
            <polyline id="Fill-67" fill="#CFD9E2" points="220.07 190.03 239.59 190.03 242.703 186.583 216.957 186.583 220.07 190.03"></polyline>
            <polygon id="Fill-68" fill="#B0B8BF" points="23.229 317.075 116.633 317.075 116.633 115.039 23.229 115.039"></polygon>
            <polygon id="Fill-69" fill="#CFD9E2" points="33.982 145.051 105.881 145.051 105.881 123.866 33.982 123.866"></polygon>
            <path d="M78.53,137.026 L61.333,137.026 C60.891,137.026 60.533,136.668 60.533,136.226 L60.533,132.69 C60.533,132.249 60.891,131.891 61.333,131.891 L78.53,131.891 C78.972,131.891 79.33,132.249 79.33,132.69 L79.33,136.226 C79.33,136.668 78.972,137.026 78.53,137.026" id="Fill-70" fill="#FFFFFE"></path>
            <polygon id="Fill-71" fill="#CFD9E2" points="33.982 172.01 105.881 172.01 105.881 150.826 33.982 150.826"></polygon>
            <path d="M78.53,163.986 L61.333,163.986 C60.891,163.986 60.533,163.628 60.533,163.186 L60.533,159.65 C60.533,159.208 60.891,158.85 61.333,158.85 L78.53,158.85 C78.972,158.85 79.33,159.208 79.33,159.65 L79.33,163.186 C79.33,163.628 78.972,163.986 78.53,163.986" id="Fill-72" fill="#FFFFFE"></path>
            <polygon id="Fill-73" fill="#CFD9E2" points="33.982 198.97 105.881 198.97 105.881 177.786 33.982 177.786"></polygon>
            <path d="M78.53,190.945 L61.333,190.945 C60.891,190.945 60.533,190.587 60.533,190.145 L60.533,186.61 C60.533,186.168 60.891,185.81 61.333,185.81 L78.53,185.81 C78.972,185.81 79.33,186.168 79.33,186.61 L79.33,190.145 C79.33,190.587 78.972,190.945 78.53,190.945" id="Fill-74" fill="#FFFFFE"></path>
            <polygon id="Fill-75" fill="#CFD9E2" points="33.982 308.89 105.881 308.89 105.881 205.049 33.982 205.049"></polygon>
            <path d="M78.53,218.208 L61.333,218.208 C60.891,218.208 60.533,217.851 60.533,217.408 L60.533,213.873 C60.533,213.431 60.891,213.073 61.333,213.073 L78.53,213.073 C78.972,213.073 79.33,213.431 79.33,213.873 L79.33,217.408 C79.33,217.851 78.972,218.208 78.53,218.208" id="Fill-76" fill="#FFFFFE"></path>
        </g>
    </g>
</svg>