<?xml version="1.0" encoding="iso-8859-1"?>
<!-- Generator: Adobe Illustrator 19.0.0, SVG Export Plug-In . SVG Version: 6.00 Build 0)  -->
<svg version="1.1" id="Capa_1" xmlns="http://www.w3.org/2000/svg" xmlns:xlink="http://www.w3.org/1999/xlink" x="0px" y="0px"
	 viewBox="0 0 504.123 504.123" style="enable-background:new 0 0 504.123 504.123;" xml:space="preserve">
<circle style="fill:#FCBD5E;" cx="252.062" cy="252.062" r="252.062"/>
<path style="fill:#E1E6E8;" d="M162.265,485.218c-1.575-7.089-6.302-38.597,4.726-76.406l6.302-19.692l-19.692-0.788
	c-37.809-0.788-65.378-15.754-69.317-37.809c-0.788-5.514-0.788-11.815,2.363-18.905l7.089-18.117
	c-15.754-2.363-61.44-5.514-72.468-55.926c-3.938-18.117-0.788-36.234,8.665-51.988c9.452-14.966,21.268-20.48,33.083-27.569
	c-3.151-12.603-6.302-21.268-6.302-35.446c0-45.686,34.658-94.523,102.4-85.858c18.117-22.843,38.597-37.809,69.317-37.809
	c22.055,0,43.323,8.665,59.077,25.206l7.089,11.815c7.877-3.938,44.898-24.418,85.071-6.302
	c25.994,11.815,34.658,31.508,41.748,48.837l7.877,1.575c31.508,5.514,55.138,33.871,55.138,67.742
	c0,34.658-24.418,63.803-57.502,67.742l-9.452,1.575c-18.117,58.289-62.228,85.858-102.4,85.858
	c-14.966,0-23.631-4.726-38.597-9.452l0,0c-5.514,59.077-41.748,72.468-54.351,100.825c-7.877,19.692-16.542,46.474-22.843,72.468
	h-37.022V485.218z"/>
<path style="fill:#183651;" d="M200.074,493.095h-37.809c-3.938,0-7.089-2.363-7.877-6.302c-0.788-3.938-7.877-38.597,5.514-80.345
	l3.151-10.24H153.6c-40.96-0.788-72.468-18.117-77.194-44.111c-1.575-7.089-0.788-14.966,2.363-22.843l3.151-8.665
	c-21.268-3.151-59.077-13.391-69.317-60.652c-3.938-19.692-0.788-39.385,10.24-56.714c9.452-15.754,21.268-22.843,31.508-29.145
	c-3.151-10.24-4.726-18.905-4.726-31.508c0-45.686,33.083-94.523,95.311-94.523c3.938,0,7.877,0,11.815,0.788
	c15.754-18.905,37.022-37.022,73.255-37.022c24.418,0,47.262,9.452,63.803,26.782c0.788,0.788,0.788,0.788,0.788,1.575l3.151,5.514
	c9.452-4.726,26.782-11.815,48.049-11.815c12.603,0,25.206,2.363,37.022,7.877c25.994,11.815,37.022,30.72,44.111,48.837
	l3.938,0.788c35.446,5.514,62.228,37.809,62.228,75.618c0,38.597-27.569,70.892-64.591,75.618l-4.726,0.788
	c-22.055,63.803-71.68,86.646-107.914,86.646c-12.603,0-22.055-3.151-32.295-7.089c-5.514,34.658-22.055,53.563-35.446,69.317
	c-7.089,8.665-14.178,15.754-17.329,24.418c-7.877,18.905-16.542,44.898-22.843,70.892
	C207.163,490.732,204.012,493.095,200.074,493.095z M168.566,477.342h25.206c6.302-24.418,14.178-49.625,22.055-66.954
	c4.726-11.028,11.815-19.692,20.48-28.357c14.178-15.754,29.932-33.871,33.083-70.105c0-2.363,1.575-4.726,3.938-6.302
	c2.363-1.575,4.726-1.575,7.089-0.788l5.514,2.363c11.815,3.938,18.905,7.089,30.72,7.089c32.295,0,76.406-21.268,94.523-80.345
	c0.788-3.151,3.151-4.726,6.302-5.514l9.452-1.575c29.145-3.938,50.412-29.932,50.412-59.865c0-29.932-21.268-55.138-48.837-59.865
	l-7.877-1.575c-2.363-0.788-4.726-2.363-6.302-4.726c-7.089-18.117-14.966-34.658-37.809-44.898
	c-9.452-4.726-19.692-6.302-30.72-6.302c-20.48,0-37.809,8.665-44.898,11.815l-2.363,1.575c-3.938,1.575-7.877,0-10.24-3.151
	l-7.089-11.028c-14.178-14.178-33.083-22.055-51.988-22.055c-25.206,0-43.323,10.24-63.015,34.658
	c-1.575,2.363-4.726,3.151-7.089,3.151c-4.726-0.788-9.452-0.788-14.178-0.788c-51.988,0-79.557,40.172-79.557,78.769
	c-0.788,11.028,1.575,18.905,3.938,29.145l0.788,3.938c1.575,3.938,0,7.089-3.151,9.452l-3.151,1.575
	c-10.24,5.514-19.692,11.028-27.569,24.418c-8.665,13.391-11.028,29.932-7.877,45.686c8.665,40.96,43.323,46.474,61.44,48.837
	c1.575,0,3.151,0.788,3.938,0.788c2.363,0,4.726,1.575,5.514,3.938c0.788,2.363,1.575,4.726,0.788,7.089l-7.089,18.117
	c-1.575,4.726-2.363,10.24-1.575,14.178c3.151,17.329,28.357,29.932,61.44,30.72l19.692,0.788c2.363,0,4.726,1.575,6.302,3.151
	c1.575,2.363,1.575,4.726,0.788,7.089l-6.302,19.692C165.415,440.32,166.991,465.526,168.566,477.342z"/>
<path style="fill:#FFFFFF;" d="M392.271,285.145c17.329-19.692,22.843-40.172,25.994-48.837l9.452-1.575
	c33.083-3.938,57.502-33.083,57.502-67.742c0-33.083-23.631-62.228-55.138-67.742l-7.877-1.575
	c-23.631-59.865-73.255-66.954-126.818-42.535l-7.877-11.028c-15.754-15.754-36.234-24.418-58.289-24.418
	c-30.72,0-51.2,14.966-69.317,37.809c-66.954-8.665-102.4,40.172-102.4,85.858c0,13.391,3.151,22.055,6.302,35.446
	c-11.815,6.302-23.631,12.603-33.871,29.145c-14.966,24.418-13.391,55.138,3.151,77.982"/>
<g>
	<path style="fill:#183651;" d="M32.295,293.022c-2.363,0-4.726-0.788-6.302-3.151c-18.905-25.994-19.692-59.865-3.151-86.646
		c9.452-15.754,21.268-22.843,31.508-29.145c-2.363-10.24-4.726-18.905-4.726-31.508c0-27.569,11.815-55.138,31.508-72.468
		c14.178-11.815,37.809-25.206,74.831-22.055c14.966-18.117,37.022-37.022,73.255-37.022c24.418,0,47.262,9.452,63.803,26.782
		c0.788,0.788,0.788,0.788,0.788,1.575l3.938,6.302c29.932-12.603,58.289-14.178,81.132-5.514
		c21.268,8.665,37.022,25.206,48.049,50.412l3.938,0.788c35.446,5.514,62.228,37.809,62.228,75.618
		c0,38.597-27.569,70.892-64.591,75.618l-4.726,0.788c-3.151,11.028-10.24,29.145-25.994,47.262
		c-3.151,3.151-7.877,3.938-11.028,0.788c-3.151-3.151-3.938-7.877-0.788-11.028c15.754-18.117,21.268-36.234,23.631-44.898
		l0.788-1.575c0.788-3.151,3.151-4.726,6.302-5.514l9.452-1.575c29.145-3.938,50.412-29.932,50.412-59.865
		s-21.268-55.138-48.837-59.865l-7.877-1.575c-2.363-0.788-4.726-2.363-6.302-4.726c-9.452-23.631-22.843-38.597-40.96-45.686
		c-20.48-7.877-46.474-5.514-74.831,7.877c-3.938,1.575-7.877,0-10.24-3.151l-7.089-11.028
		c-14.178-14.178-33.083-22.055-51.988-22.055c-25.206,0-43.323,10.24-63.015,34.658c-1.575,2.363-4.726,3.151-7.089,3.151
		c-26.782-3.151-50.412,2.363-66.954,17.329s-26.782,37.022-26.782,60.652c0,11.028,2.363,18.905,4.726,29.145l0.788,3.938
		c1.575,3.938,0,7.089-3.151,9.452l-3.151,1.575c-10.24,5.514-19.692,11.028-27.569,24.418
		c-13.391,21.268-11.815,48.837,2.363,69.317c2.363,3.151,1.575,8.665-1.575,11.028C35.446,292.234,33.871,293.022,32.295,293.022z"
		/>
	<polygon style="fill:#183651;" points="189.046,224.492 171.717,213.465 252.062,86.646 332.406,213.465 315.077,224.492 
		252.062,124.455 	"/>
</g>
<circle style="fill:#F05F50;" cx="252.062" cy="105.551" r="32.295"/>
<g>
	<circle style="fill:#4EBD9E;" cx="180.382" cy="218.978" r="32.295"/>
	<circle style="fill:#4EBD9E;" cx="323.742" cy="218.978" r="32.295"/>
</g>
<g>
	<rect x="378.092" y="122.092" style="fill:#183651;" width="15.754" height="15.754"/>
	<rect x="378.092" y="161.477" style="fill:#183651;" width="15.754" height="15.754"/>
	<rect x="378.092" y="200.862" style="fill:#183651;" width="15.754" height="15.754"/>
	<rect x="110.277" y="122.092" style="fill:#183651;" width="15.754" height="15.754"/>
	<rect x="110.277" y="161.477" style="fill:#183651;" width="15.754" height="15.754"/>
	<rect x="110.277" y="200.862" style="fill:#183651;" width="15.754" height="15.754"/>
</g>
<g>
</g>
<g>
</g>
<g>
</g>
<g>
</g>
<g>
</g>
<g>
</g>
<g>
</g>
<g>
</g>
<g>
</g>
<g>
</g>
<g>
</g>
<g>
</g>
<g>
</g>
<g>
</g>
<g>
</g>
</svg>
