<?xml version="1.0" encoding="UTF-8"?>
<svg width="38px" height="38px" viewBox="0 0 38 38" version="1.1" xmlns="http://www.w3.org/2000/svg" xmlns:xlink="http://www.w3.org/1999/xlink">
    <!-- Generator: Sketch 58 (84663) - https://sketch.com -->
    <title>Group 5</title>
    <desc>Created with Sketch.</desc>
    <g id="Page-1" stroke="none" stroke-width="1" fill="none" fill-rule="evenodd">
        <g id="Service" transform="translate(-1313.000000, -34.000000)" fill="#E30611">
            <g id="Group-5" transform="translate(1313.000000, 34.000000)">
                <rect id="Rectangle" fill-opacity="0.1" x="0" y="0" width="38" height="38" rx="5"></rect>
                <g id="user-(1)" opacity="0.800432478" transform="translate(7.000000, 8.000000)" fill-rule="nonzero">
                    <path d="M20.3410608,0.669168499 C19.4624752,-0.223104444 18.0328364,-0.223007888 17.1542508,0.669168499 C16.4286405,1.40608302 16.3029041,2.52444157 16.7758534,3.39431355 L15,5.35444631 C15.2658765,5.84639855 15.4249841,6.40565024 15.4470414,7 L17.8252408,4.37493513 C18.1178332,4.50789258 18.4326257,4.57485409 18.7476558,4.57485409 C19.3247119,4.57485409 19.9017205,4.35176171 20.3410608,3.90562524 C21.2196464,3.0133523 21.2196464,1.56144144 20.3410608,0.669168499 Z" id="Path"></path>
                    <path d="M7.22411314,3.39436493 C7.69705865,2.52454199 7.57132331,1.4061844 6.8457187,0.669222234 C5.96714006,-0.223049939 4.53751263,-0.223098217 3.65893398,0.669222234 C2.78035534,1.56149441 2.78035534,3.01340401 3.65893398,3.90567619 C4.09822331,4.35181227 4.67527482,4.57490446 5.25232634,4.57490446 C5.56730644,4.57490446 5.88214392,4.50794301 6.17473409,4.37498567 L8.55296215,7 C8.57501931,6.40565076 8.73412562,5.84644782 9,5.35444773 L7.22411314,3.39436493 Z" id="Path"></path>
                    <path d="M8,17.2557959 C7.62224059,16.9654421 7.35028878,16.5182711 7.26140164,16 L5.91996222,17.6139103 C5.15784135,17.2364842 4.23066934,17.3929626 3.60605464,18.0844102 C2.79798179,18.9789458 2.79798179,20.4345385 3.60605464,21.3290741 C4.01009107,21.7763419 4.54083431,22 5.07157754,22 C5.60236449,22 6.133064,21.7763419 6.53714416,21.3290741 C7.20451912,20.5902909 7.32016422,19.4690964 6.88517251,18.5970669 L8,17.2557959 Z" id="Path"></path>
                    <path d="M20.3939454,18.0844102 C19.7693307,17.3929626 18.8421587,17.2365326 18.0800815,17.6139103 L16.7385984,16 C16.6496675,16.5182711 16.3777157,16.9654421 16,17.2557959 L17.1148275,18.5970669 C16.6798795,19.4690964 16.7954809,20.5902909 17.4628558,21.3290741 C17.8668923,21.7763419 18.3976355,22 18.9284225,22 C19.4591657,22 19.9898652,21.7763419 20.3939454,21.3290741 C21.2020182,20.4345385 21.2020182,18.9789458 20.3939454,18.0844102 Z" id="Path"></path>
                    <path d="M4.41676481,9.70852548 C4.30925579,9.35116026 4.12742783,9.01532244 3.87008531,8.73140361 C2.98624454,7.75623397 1.54797673,7.75618121 0.664040316,8.73135084 C0.235821591,9.20384538 0,9.83193863 0,10.5000264 C0,11.1680614 0.235821591,11.7961546 0.664040316,12.2685964 C1.10598461,12.7561812 1.68652371,13 2.26706281,13 C2.84764973,13 3.42814101,12.7561812 3.87013313,12.2685964 C4.12742783,11.9847303 4.30930362,11.6488397 4.41681263,11.2914218 L7.59717598,11.2914218 C7.61654481,10.7184661 7.76040029,10.1802286 8,9.70852548 L4.41676481,9.70852548 L4.41676481,9.70852548 Z" id="Path"></path>
                    <path d="M23.3359119,8.7313473 C22.4520233,7.7561648 21.0137555,7.75627033 20.1298669,8.7313473 C19.8725722,9.01521711 19.6906964,9.35111213 19.5831874,9.70848206 L16,9.70848206 C16.2395997,10.1801914 16.383503,10.718436 16.402824,11.2913992 L19.5831874,11.2913992 C19.6906964,11.6487692 19.8725243,11.9846642 20.1298669,12.2685867 C20.5718112,12.756178 21.1523503,13 21.7329372,13 C22.3134763,13 22.8939676,12.756178 23.3359597,12.2686395 C23.7641784,11.7961915 24,11.16809 24,10.5 C24,9.83189684 23.7641306,9.20379531 23.3359119,8.7313473 Z" id="Path"></path>
                    <path d="M13.5424274,10 C13.0779806,10.2338992 12.5543008,10.3664317 12,10.3664317 C11.4456992,10.3664317 10.9220194,10.2338992 10.4575726,10 C9.63888765,10.0909931 9,10.7880405 9,11.6320182 L9,15.5141818 C9,15.7820637 9.21756015,16 9.48497969,16 L14.5150203,16 C14.7824399,16 15,15.7820637 15,15.5141818 L15,11.6320182 C15,10.7880405 14.3611124,10.0910378 13.5424274,10 Z" id="Path"></path>
                    <path d="M12,9 C13.1045695,9 14,8.1045695 14,7 C14,5.8954305 13.1045695,5 12,5 C10.8954305,5 10,5.8954305 10,7 C10,8.1045695 10.8954305,9 12,9 Z" id="Oval"></path>
                </g>
            </g>
        </g>
    </g>
</svg>