<?xml version="1.0" encoding="UTF-8"?>
<svg width="38px" height="38px" viewBox="0 0 38 38" version="1.1" xmlns="http://www.w3.org/2000/svg" xmlns:xlink="http://www.w3.org/1999/xlink">
    <!-- Generator: Sketch 63.1 (92452) - https://sketch.com -->
    <title>Group 5 Copy</title>
    <desc>Created with Sketch.</desc>
    <g id="Page-1" stroke="none" stroke-width="1" fill="none" fill-rule="evenodd">
        <g id="iPhone-8-Plus" transform="translate(-221.000000, -129.000000)" fill="#E30611" fill-rule="nonzero">
            <g id="Group-5-Copy" transform="translate(221.000000, 129.000000)">
                <rect id="Rectangle" fill-opacity="0.1" x="0" y="0" width="38" height="38" rx="5"></rect>
                <g id="open-book" transform="translate(8.000000, 11.000000)">
                    <path d="M3.65145939,0 C3.65088823,0 3.65024567,0 3.6496745,0 C3.44912411,0 3.26049678,0.0822720613 3.11806245,0.231789323 C2.97405742,0.38295954 2.89473684,0.584244337 2.89473684,0.798527368 L2.89473684,12.7723055 C2.89473684,13.2113904 3.2355083,13.5694804 3.65445801,13.5706075 C5.42064373,13.5750404 8.37970806,13.9624328 10.4210526,16.2105263 L10.4210526,3.67962733 C10.4210526,3.53078628 10.3849264,3.39096134 10.3167436,3.27525452 C8.64130174,0.435778955 5.42164327,0.00435778955 3.65145939,0 Z" id="Path"></path>
                    <path d="M19.1052632,12.7723806 L19.1052632,0.798527368 C19.1052632,0.584244337 19.0259418,0.38295954 18.8819354,0.231789323 C18.7394997,0.0822720613 18.5507278,0 18.3503897,0 C18.3497472,0 18.3491046,0 18.3485334,0 C16.5784042,0.00443292385 13.3587151,0.435854089 11.683186,3.27532965 C11.6150025,3.39103648 11.5789474,3.53086141 11.5789474,3.67970247 L11.5789474,16.2105263 C13.6203113,13.9624328 16.5794037,13.5750404 18.3456062,13.5706075 C18.7644885,13.5694804 19.1052632,13.2113904 19.1052632,12.7723806 Z" id="Path"></path>
                    <path d="M21.2158009,2.89473684 L20.6470979,2.89473684 L20.6470979,12.6309409 C20.6470979,13.7212502 19.749911,14.6103188 18.6470434,14.6130225 C17.0984975,14.6166761 14.5451641,14.9164911 12.7368421,16.6111069 C15.8643396,15.8529104 19.161282,16.345782 21.0402306,16.7697465 C21.2748409,16.8226507 21.517274,16.7679928 21.7052427,16.6196563 C21.8925472,16.4716853 22,16.2504959 22,16.0130846 L22,3.67120133 C22,3.2430717 21.6481953,2.89473684 21.2158009,2.89473684 Z" id="Path"></path>
                    <path d="M1.35291286,12.6310585 L1.35291286,2.89473684 L0.784205327,2.89473684 C0.351881329,2.89473684 0,3.24307591 0,3.6712107 L0,16.0130238 C0,16.2505111 0.107453694,16.47163 0.294759653,16.6196029 C0.482582216,16.767868 0.724795832,16.8227459 0.959776988,16.7696949 C2.83874063,16.3456522 6.13578307,15.8528477 9.26315789,16.6110534 C7.45489525,14.9164901 4.90154159,14.6167446 3.35298331,14.613091 C2.25018073,14.6104603 1.35291286,13.721381 1.35291286,12.6310585 Z" id="Path"></path>
                </g>
            </g>
        </g>
    </g>
</svg>