<svg width="38" height="38" viewBox="0 0 38 38" fill="none" xmlns="http://www.w3.org/2000/svg">
<path d="M23.3268 21.3159C26.0205 17.5122 25.1196 12.2452 21.3159 9.55212C17.5122 6.85909 12.2452 7.75934 9.55212 11.5637C6.85909 15.3674 7.75934 20.6338 11.5637 23.3268C14.2786 25.249 17.868 25.397 20.7316 23.7058L26.9536 29.8905C27.6254 30.5977 28.7431 30.626 29.4504 29.9542C30.1576 29.283 30.1859 28.1653 29.5147 27.4581C29.4935 27.4356 29.4729 27.415 29.4504 27.3937L23.3268 21.3159ZM16.4343 21.8925C13.4286 21.8931 10.9916 19.4581 10.9897 16.4523C10.9891 13.4466 13.424 11.0096 16.4305 11.0084C19.4324 11.0071 21.868 13.4382 21.8738 16.4401C21.879 19.4465 19.4453 21.8873 16.4382 21.8925C16.4369 21.8925 16.4363 21.8925 16.4343 21.8925Z" fill="#E30611"/>
<path d="M33 0H5C2.23858 0 0 2.23858 0 5V33C0 35.7614 2.23858 38 5 38H33C35.7614 38 38 35.7614 38 33V5C38 2.23858 35.7614 0 33 0Z" fill="#E30611" fill-opacity="0.1"/>
</svg>
