<?xml version="1.0" encoding="UTF-8"?>
<svg width="190px" height="190px" viewBox="0 0 190 190" version="1.1" xmlns="http://www.w3.org/2000/svg" xmlns:xlink="http://www.w3.org/1999/xlink">
    <!-- Generator: Sketch 58 (84663) - https://sketch.com -->
    <title>009-configuration</title>
    <desc>Created with Sketch.</desc>
    <g id="Page-1" stroke="none" stroke-width="1" fill="none" fill-rule="evenodd">
        <g id="Service" transform="translate(-1110.000000, -80.000000)" fill-rule="nonzero">
            <g id="Group-10" transform="translate(375.000000, 80.000000)">
                <g id="009-configuration" transform="translate(735.000000, 0.000000)">
                    <path d="M4,130 L4,142.666667 C4.01045247,146.160139 6.84501477,148.989566 10.3448276,149 L181.655172,149 C185.154985,148.989566 187.989548,146.160139 188,142.666667 L188,130 L4,130 Z" id="Path" fill="#D1D3D4"></path>
                    <path d="M188,33.3125 L188,128 L4,128 L4,33.3125 C4.01045247,29.8305191 6.84501477,27.0103992 10.3448276,27 L181.655172,27 C185.154985,27.0103992 187.989548,29.8305191 188,33.3125 Z" id="Path" fill="#A7A9AC"></path>
                    <polygon id="Path" fill="#414042" points="14 38 180 38 180 120 14 120"></polygon>
                    <path d="M91,120 L176,120 L176,38 C176,83.3239231 137.982963,120 91,120 Z" id="Path" fill="#3A3A3B"></path>
                    <polygon id="Path" fill="#A7A9AC" points="77 149 115 149 115 168 77 168"></polygon>
                    <polygon id="Path" fill="#808285" points="77 149 115 149 115 155 77 155"></polygon>
                    <path d="M61.3076923,167 C57.82405,167 55,169.83553 55,173.333333 L55,186 L137,186 L137,173.333333 C137,169.83553 134.17595,167 130.692308,167 L61.3076923,167 Z" id="Path" fill="#D1D3D4"></path>
                    <path d="M118,60.2727273 C118,47.9718397 108.150165,38 96,38 C83.8498351,38 74,47.9718397 74,60.2727273 C73.9818153,64.8286712 75.3659398,69.2772255 77.9601479,73 L114.039852,73 C116.63406,69.2772255 118.018185,64.8286712 118,60.2727273 L118,60.2727273 Z" id="Path" fill="#F1F2F2"></path>
                    <path d="M55.91,38.5 L59.33,41.9854545 C58.3396725,43.9816534 57.5032591,46.0533609 56.8283333,48.1818182 L39,48.1818182 L39,74 L77.8233333,74 C75.2094507,70.224043 73.8148289,65.7119379 73.8333333,61.0909091 C73.8333336,48.6142947 83.7576882,38.5 96,38.5 C108.242312,38.5 118.166666,48.6142947 118.166667,61.0909091 C118.185171,65.7119379 116.790549,70.224043 114.176667,74 L153,74 L153,48.1818182 L135.171667,48.1818182 C134.496741,46.0533609 133.660327,43.9816534 132.67,41.9854545 L136.09,38.5 L145.273333,29.1409091 L144.956667,28.8181818 L127.35,10.8745455 L114.746667,23.7190909 C112.787955,22.7098098 110.755153,21.8573884 108.666667,21.1695455 L108.666667,3 L83.3333333,3 L83.3333333,21.1695455 C81.2448471,21.8573884 79.2120449,22.7098098 77.2533333,23.7190909 L64.65,10.8745455 L47.0433333,28.8181818 L46.7266667,29.1409091 L55.91,38.5 Z" id="Path" fill="#FFCD00"></path>
                    <circle id="Oval" fill="#ED1C24" cx="51" cy="89" r="7"></circle>
                    <circle id="Oval" fill="#FFCD00" cx="72" cy="105" r="7"></circle>
                    <g id="Group" fill="#231F20">
                        <path d="M180.5,25.3333333 L145.267667,25.3333333 L128.588833,8.6545 C127.35225,7.41829053 125.34775,7.41829053 124.111167,8.6545 L113.084833,19.6808333 C112.328,19.342 111.5775,19.0475 110.833333,18.7498333 L110.833333,3.16666667 C110.833333,1.41776496 109.415568,0 107.666667,0 L82.3333333,0 C80.5844316,0 79.1666667,1.41776496 79.1666667,3.16666667 L79.1666667,18.7498333 C78.4225,19.0348333 77.672,19.342 76.9151667,19.6808333 L65.8888333,8.6545 C64.6326312,7.46661019 62.6673688,7.46661019 61.4111667,8.6545 L44.7323333,25.3333333 L9.5,25.3333333 C4.25329488,25.3333333 -1.77635684e-15,29.5866282 -1.77635684e-15,34.8333333 L-1.77635684e-15,142.5 C-1.77635684e-15,147.746705 4.25329488,152 9.5,152 L72.8333333,152 L72.8333333,164.666667 L60.1666667,164.666667 C54.9199615,164.666667 50.6666667,168.919962 50.6666667,174.166667 L50.6666667,186.833333 C50.6666667,188.582235 52.0844316,190 53.8333333,190 L136.166667,190 C137.915568,190 139.333333,188.582235 139.333333,186.833333 L139.333333,174.166667 C139.333333,168.919962 135.080038,164.666667 129.833333,164.666667 L117.166667,164.666667 L117.166667,152 L180.5,152 C185.746705,152 190,147.746705 190,142.5 L190,34.8333333 C190,29.5866282 185.746705,25.3333333 180.5,25.3333333 L180.5,25.3333333 Z M63.65,15.371 L74.0145,25.7355 C74.9783706,26.6984975 76.4501749,26.9369961 77.6688333,26.3276667 C79.4773592,25.4113787 81.3545422,24.6374245 83.2833333,24.0128333 C84.6015267,23.5982814 85.498702,22.3768413 85.5,20.995 L85.5,6.33333333 L104.5,6.33333333 L104.5,20.995 C104.501298,22.3768413 105.398473,23.5982814 106.716667,24.0128333 C108.648699,24.6369624 110.529074,25.4109234 112.340667,26.3276667 C113.559325,26.9369961 115.031129,26.6984975 115.995,25.7355 L126.35,15.371 L139.795667,28.8166667 L132.851167,35.7611667 L129.431167,39.1811667 C128.468169,40.1450373 128.229671,41.6168416 128.839,42.8355 C129.755685,44.647119 130.529644,46.5274902 131.153833,48.4595 C131.568385,49.7776933 132.789825,50.6748686 134.171667,50.6761667 L148.833333,50.6761667 L148.833333,69.6761667 L118.499833,69.6761667 C122.759319,59.0976682 119.425666,46.9770561 110.355508,40.0647426 C101.28535,33.1524291 88.7146503,33.1524291 79.6444922,40.0647426 C70.5743341,46.9770561 67.2406812,59.0976682 71.5001667,69.6761667 L41.1666667,69.6761667 L41.1666667,50.6666667 L55.8283333,50.6666667 C57.2101746,50.6653686 58.4316147,49.7681933 58.8461667,48.45 C59.4703562,46.5179902 60.2443153,44.637619 61.161,42.826 C61.7703294,41.6073416 61.5318308,40.1355373 60.5688333,39.1716667 L57.1488333,35.7516667 L50.2043333,28.8166667 L63.65,15.371 Z M54.5141667,42.085 C54.1753333,42.8418333 53.8808333,43.5891667 53.5831667,44.3333333 L38,44.3333333 C36.2510983,44.3333333 34.8333333,45.7510983 34.8333333,47.5 L34.8333333,69.6666667 L25.3333333,69.6666667 C23.5844316,69.6666667 22.1666667,71.0844316 22.1666667,72.8333333 C22.1666667,74.582235 23.5844316,76 25.3333333,76 L164.666667,76 C166.415568,76 167.833333,74.582235 167.833333,72.8333333 C167.833333,71.0844316 166.415568,69.6666667 164.666667,69.6666667 L155.166667,69.6666667 L155.166667,47.5 C155.166667,45.7510983 153.748902,44.3333333 152,44.3333333 L136.416833,44.3333333 C136.131833,43.5891667 135.824667,42.8418333 135.485833,42.085 L136.404167,41.1666667 L174.166667,41.1666667 L174.166667,117.166667 L15.8333333,117.166667 L15.8333333,41.1666667 L53.5958333,41.1666667 L54.5141667,42.085 Z M76,60.1666672 C76,49.6732566 84.50659,41.1666672 95,41.1666672 C105.49341,41.1666672 114,49.6732566 114,60.1666672 C113.995824,63.5097518 113.094717,66.7904806 111.390667,69.6666672 L78.6093333,69.6666672 C76.9052825,66.7904806 76.0041757,63.5097518 76,60.1666672 L76,60.1666672 Z M9.5,31.6666667 L44.099,31.6666667 L47.2656667,34.8333333 L12.6666667,34.8333333 C10.917765,34.8333333 9.5,36.2510983 9.5,38 L9.5,120.333333 C9.5,122.082235 10.917765,123.5 12.6666667,123.5 L177.333333,123.5 C179.082235,123.5 180.5,122.082235 180.5,120.333333 L180.5,38 C180.5,36.2510983 179.082235,34.8333333 177.333333,34.8333333 L142.734333,34.8333333 L145.901,31.6666667 L180.5,31.6666667 C182.248902,31.6666667 183.666667,33.0844316 183.666667,34.8333333 L183.666667,126.666667 L6.33333333,126.666667 L6.33333333,34.8333333 C6.33333333,33.0844316 7.75109829,31.6666667 9.5,31.6666667 Z M129.833333,171 C131.582235,171 133,172.417765 133,174.166667 L133,183.666667 L57,183.666667 L57,174.166667 C57,172.417765 58.417765,171 60.1666667,171 L129.833333,171 Z M110.833333,164.666667 L79.1666667,164.666667 L79.1666667,152 L110.833333,152 L110.833333,164.666667 Z M180.5,145.666667 L9.5,145.666667 C7.75109829,145.666667 6.33333333,144.248902 6.33333333,142.5 L6.33333333,133 L183.666667,133 L183.666667,142.5 C183.666667,144.248902 182.248902,145.666667 180.5,145.666667 Z" id="Shape"></path>
                        <path d="M167.833333,136.166667 L161.5,136.166667 C159.751098,136.166667 158.333333,137.584432 158.333333,139.333333 C158.333333,141.082235 159.751098,142.5 161.5,142.5 L167.833333,142.5 C169.582235,142.5 171,141.082235 171,139.333333 C171,137.584432 169.582235,136.166667 167.833333,136.166667 Z" id="Path"></path>
                        <path d="M25.3333333,91.8333333 L41.7493333,91.8333333 C43.071136,95.6274103 46.6489332,98.1696606 50.6666667,98.1696606 C54.6844001,98.1696606 58.2621973,95.6274103 59.584,91.8333333 L164.666667,91.8333333 C166.415568,91.8333333 167.833333,90.4155684 167.833333,88.6666667 C167.833333,86.917765 166.415568,85.5 164.666667,85.5 L59.584,85.5 C58.2621973,81.7059231 54.6844001,79.1636727 50.6666667,79.1636727 C46.6489332,79.1636727 43.071136,81.7059231 41.7493333,85.5 L25.3333333,85.5 C23.5844316,85.5 22.1666667,86.917765 22.1666667,88.6666667 C22.1666667,90.4155684 23.5844316,91.8333333 25.3333333,91.8333333 L25.3333333,91.8333333 Z M50.6666667,85.5 C52.4155684,85.5 53.8333333,86.917765 53.8333333,88.6666667 C53.8333333,90.4155684 52.4155684,91.8333333 50.6666667,91.8333333 C48.917765,91.8333333 47.5,90.4155684 47.5,88.6666667 C47.5,86.917765 48.917765,85.5 50.6666667,85.5 Z" id="Shape"></path>
                        <path d="M25.3333333,107.666667 L63.916,107.666667 C65.2378027,111.460744 68.8155999,114.002994 72.8333333,114.002994 C76.8510668,114.002994 80.428864,111.460744 81.7506667,107.666667 L164.666667,107.666667 C166.415568,107.666667 167.833333,106.248902 167.833333,104.5 C167.833333,102.751098 166.415568,101.333333 164.666667,101.333333 L81.7506667,101.333333 C80.428864,97.5392564 76.8510668,94.997006 72.8333333,94.997006 C68.8155999,94.997006 65.2378027,97.5392564 63.916,101.333333 L25.3333333,101.333333 C23.5844316,101.333333 22.1666667,102.751098 22.1666667,104.5 C22.1666667,106.248902 23.5844316,107.666667 25.3333333,107.666667 Z M72.8333333,101.333333 C74.582235,101.333333 76,102.751098 76,104.5 C76,106.248902 74.582235,107.666667 72.8333333,107.666667 C71.0844316,107.666667 69.6666667,106.248902 69.6666667,104.5 C69.6666667,102.751098 71.0844316,101.333333 72.8333333,101.333333 Z" id="Shape"></path>
                    </g>
                </g>
            </g>
        </g>
    </g>
</svg>