<?xml version="1.0" encoding="UTF-8"?>
<svg width="200px" height="200px" viewBox="0 0 200 200" version="1.1" xmlns="http://www.w3.org/2000/svg" xmlns:xlink="http://www.w3.org/1999/xlink">
    <!-- Generator: Sketch 58 (84663) - https://sketch.com -->
    <title>Group 22</title>
    <desc>Created with Sketch.</desc>
    <g id="Page-1" stroke="none" stroke-width="1" fill="none" fill-rule="evenodd">
        <g id="Service-\w-Profile" transform="translate(-1140.000000, -91.000000)">
            <g id="Group-22" transform="translate(1140.000000, 91.000000)">
                <circle id="Oval" fill="#FFFFFF" opacity="0.502720424" cx="100" cy="100" r="100"></circle>
                <g id="boy" transform="translate(62.000000, 48.000000)" fill-rule="nonzero">
                    <path d="M62.1027232,70.66125 L60.2856473,70.5417334 L60.2856473,67.125 C60.2856473,64.2942383 57.9834152,62 55.1427902,62 L20.8570089,62 C18.0163839,62 15.7141518,64.2942383 15.7141518,67.125 L15.7141518,70.5417334 L13.8970759,70.7467334 C7.11714286,71.650415 2.04279018,77.3922168 2,84.2084668 L2,103 L74,103 L74,84.2082666 C74,77.359585 68.9135938,71.568335 62.1027232,70.66125 Z" id="Path" fill="#E56B2E"></path>
                    <path d="M37.9998996,80.6550702 C33.3592875,80.6550702 28.9605498,78.5821823 26,75 L26,103 L38,103 L50,103 L50,75 C47.0392493,78.5819809 42.6405116,80.6550702 37.9998996,80.6550702 Z" id="Path" fill="#EBEBEB"></path>
                    <path d="M49.5885726,68.5598394 C47.8570819,68.3537397 46.5595185,66.8991624 46.5713712,65.1808724 L46.5713712,53 L29.4286288,53 L29.4286288,65.1978989 C29.4406824,66.9159909 28.1429181,68.3707662 26.4114274,68.5768659 L26,68.5768659 L26,74.4393253 C31.4907883,80.9707675 41.313618,81.8797051 47.9410549,76.4684478 C48.6901822,75.8568799 49.3792428,75.1778 50,74.4393253 L50,68.6107209 L49.5885726,68.5598394 Z" id="Path" fill="#FEDAC6"></path>
                    <path d="M33,79.7784588 C30.2630006,78.8484692 27.8410043,77.1949528 26,75 L26,103 L33,103 L33,79.7784588 Z" id="Path" fill="#DBDBDB"></path>
                    <path d="M2,83.9602897 L2,103 L9,103 L9,72 C4.67752615,74.4683247 2.01045909,79.0238432 2,83.9602897 Z" id="Path" fill="#D65B25"></path>
                    <path d="M55,39 L58.6000422,39 C61.5826751,39 64,36.7617188 64,34 L64,34 C64,31.2382812 61.5826751,29 58.6000422,29 L56.8001266,29" id="Path" fill="#FEDAC6"></path>
                    <path d="M21,39 L17.3999578,39 C14.4173249,39 12,36.7617188 12,34 L12,34 C12,31.2382812 14.4173249,29 17.3999578,29 L19.1998734,29" id="Path" fill="#F5C4B0"></path>
                    <path d="M57,19 L22.3845998,19 C16.6489338,19 12,14.4337427 12,8.80007969 L18.9229989,8.80007969 C16.0550645,8.80007969 13.730699,6.51705065 13.730699,3.70011953 L13.730699,2 L39.6921985,2 C49.2513037,2 57,9.61089366 57,19 Z" id="Path" fill="#FECB66"></path>
                    <path d="M19,19 L19,35.9511984 L19.4145462,41.2399929 C20.2954568,51.3225521 29.3395674,58.7964706 39.6133498,57.9319561 C40.1730277,57.8844794 40.7292644,57.8133635 41.2818577,57.7166221 C49.7921996,56.1012196 56.1087662,49.0359192 56.6372721,40.5449249 L57,35.9511984 L57,19 L19,19 Z" id="Path" fill="#FEDAC6"></path>
                    <path d="M25.9424861,38.1111779 L25.9424861,17 L19,17 L19,35.8034856 L19.4165532,41.1368189 C20.0275522,48.4222756 24.9706642,54.6548478 32,57 L28.7717124,49.9401042 C26.9108503,46.2668269 25.9424861,42.2171474 25.9424861,38.1111779 Z" id="Path" fill="#F5C4B0"></path>
                    <path d="M25.998726,17 C26.0670052,21.949224 23.3864807,26.5452765 19,29 L19,17 L25.998726,17 Z" id="Path" fill="#F5AD76"></path>
                    <path d="M57,29 C57,29 50,25.6666016 50,19 L57,19 L57,29 Z" id="Path" fill="#FECB66"></path>
                    <path d="M47,62.3332986 L47,57 L30,57 L30,62.3332986 C36.3748257,65.8889005 40.6249751,65.8889005 47,62.3332986 Z" id="Path" fill="#F5C4B0"></path>
                    <path d="M12,9 C12.3956678,14.3550781 16.7935669,18.6166016 22.3200161,19 L55,19 C40.3782303,16.9615234 25.9836218,13.6148438 12,9 Z" id="Path" fill="#F5AD76"></path>
                    <path d="M25.9961127,69.2647375 C26.3016795,68.7576421 26.7331161,68.3288611 27.2535825,68.0179413 C28.3399512,67.3746724 29,66.2424256 29,65.0256304 L29,62 L21.734551,62 C18.021495,61.9949416 15.0053277,64.8543908 15,68.3902269 C14.9981644,69.6670241 15.396445,70.9153788 16.1457283,71.9743763 L18.2765092,75 C19.9410602,72.1822406 22.7214519,70.1174292 25.9961127,69.2647375 Z" id="Path" fill="#D65B25"></path>
                    <path d="M57.2857789,21 L22.9999498,21 C16.3827307,21 11,15.5049316 11,8.75006836 C11,7.78415039 11.7680145,7.00013672 12.7142211,7.00013672 L13.6347135,7.00013672 C13.0485073,5.96920898 12.7142211,4.77401367 12.7142211,3.50006836 L12.7142211,1.74993164 C12.7142211,0.784013672 13.4822356,0 14.4284423,0 L40.1427639,0 C50.5399882,0 59,8.63625 59,19.2500684 C59,20.2159863 58.2337936,21 57.2857789,21 Z M14.6016122,10.5 C15.3969481,14.4881543 18.8615511,17.4999316 22.9999498,17.4999316 L55.4753299,17.4999316 C54.6199269,9.6355957 48.0714133,3.50006836 40.1427639,3.50006836 L16.1428643,3.50006836 C16.1428643,5.43026367 17.6805004,7.00013672 19.5715075,7.00013672 C20.5177142,7.00013672 21.2857286,7.78415039 21.2857286,8.75006836 C21.2857286,9.71598633 20.5177142,10.5 19.5715075,10.5 L14.6016122,10.5 Z" id="Shape" fill="#000000"></path>
                    <path d="M19.4812282,31 L18.0032899,27.886449 L18.7431299,29.4424087 L18,27.8882846 C18.0561218,27.8568758 23.6973294,24.7712664 23.6973294,19 L27,19 C27,26.9447966 19.7883499,30.8364295 19.4812282,31 Z" id="Path" fill="#000000"></path>
                    <path d="M56.5186101,31 C56.211495,30.8364295 49,26.9447966 49,19 L52.3027931,19 C52.3027931,24.7712664 57.9421377,27.8568758 58,27.8882846 L56.5186101,31 Z" id="Path" fill="#000000"></path>
                    <circle id="Oval" fill="#000000" cx="27.5" cy="32.5" r="3.5"></circle>
                    <circle id="Oval" fill="#000000" cx="48.5" cy="32.5" r="3.5"></circle>
                    <path d="M40,41 L34.7503558,41 C34.1694089,41 33.627014,40.7151161 33.301372,40.2420631 C32.97573,39.76901 32.9094943,39.1646433 33.1246067,38.632914 L36.6244378,30 L39.8738855,31.282787 L37.3347803,37.546794 L39.9997949,37.546794 L39.9997949,41 L40,41 Z" id="Path" fill="#000000"></path>
                    <path d="M34.2979466,48 L34,48 L34,44.7637317 L34.2979466,44.7637317 C37.026078,44.7620252 39.5913758,43.781493 41.5223819,42 L44,44.2896783 C41.4084189,46.6813729 37.963655,47.998483 34.2979466,48 Z" id="Path" fill="#000000"></path>
                    <path d="M58.7999578,41 L57,41 L57,37.5 L58.7999578,37.5 C60.7853326,37.5 62.4000844,35.9303627 62.4000844,34 C62.4000844,32.0698424 60.7855435,30.5 58.7999578,30.5 L57,30.5 L57,27 L58.7999578,27 C62.7709183,27 66,30.1394797 66,33.9997949 C66,37.8601102 62.7709183,41 58.7999578,41 Z" id="Path" fill="#000000"></path>
                    <path d="M19,41 L17.2000422,41 C13.2290817,41 10,37.8604283 10,34 C10,30.1395717 13.2292926,27 17.2000422,27 L19,27 L19,30.4998975 L17.2000422,30.4998975 C15.2146674,30.4998975 13.5999156,32.0695808 13.5999156,34 C13.5999156,35.9302142 15.2144565,37.5001025 17.2000422,37.5001025 L19,37.5001025 L19,41 L19,41 Z" id="Path" fill="#000000"></path>
                    <path d="M38.5188184,60 C28.9112451,60 20.3865283,53.1187985 18.6526367,43.356503 C18.5467334,42.7586685 18.4664551,42.1558303 18.4152051,41.5511909 L18.0034033,36.2105091 L18,19 L21.4167334,19 L21.4167334,36.0790135 L21.8215283,41.276191 C21.8625684,41.7647461 21.9292334,42.2633085 22.0163184,42.7586685 C23.6324951,51.85508 32.3379883,57.9369005 41.446875,56.3263299 C49.0745166,54.8506573 54.7514551,48.3827562 55.2263184,40.6017007 L55.5868701,35.9459168 L55.5834668,19 L59,19 L59,36.0790135 L58.6360449,40.8388731 C58.0688916,50.1470386 51.2560449,57.9076792 42.0702832,59.6839703 C40.8797217,59.8957242 39.6907617,60 38.5188184,60 Z" id="Path" fill="#000000"></path>
                    <path d="M27.4999359,103 L24,103 L24,69.3008073 C24,68.3586458 24.783984,67.5971701 25.7498654,67.5971701 L26.0474225,67.5971701 C26.8873907,67.4574132 27.5050626,66.7436545 27.4999359,65.9053125 L27.4999359,57 L30.9998717,57 L30.9998717,65.8933333 C31.0156622,68.1030903 29.5719668,70.0281424 27.4999359,70.7387066 L27.4999359,103 L27.4999359,103 Z" id="Path" fill="#000000"></path>
                    <path d="M3.52913199,103 L0,103 L0,84.2981072 C0,76.6642953 5.92214238,70.144225 13.7782143,69.1308995 L15.7652898,69 L16,72.3936244 L14.1295559,72.5125696 C8.13503593,73.2878054 3.52933878,78.359414 3.52933878,84.2981072 L3.52933878,103 L3.52913199,103 Z" id="Path" fill="#000000"></path>
                    <path d="M37.5008145,82 C32.2620814,82 27.3414027,79.839709 24,76.0726088 L26.6757692,74.0032334 C29.355,77.022087 33.3011538,78.7538575 37.5008145,78.7538575 C41.7004751,78.7538575 45.6464253,77.022087 48.3258597,74 L51,76.0726088 C47.6585973,79.839709 42.7377149,82 37.5008145,82 Z" id="Path" fill="#000000"></path>
                    <path d="M24.9679344,87 L15.4401931,73.1155002 C14.4803157,71.7044135 13.9843374,70.0714334 14.000377,68.3827258 C14.000377,63.7679148 17.8594674,60 22.6036531,60 L30,60 L30,63.4711758 L22.6053196,63.4711758 C19.8217168,63.4711758 17.5570061,65.6821767 17.5570061,68.4002169 C17.5463824,69.4067705 17.8378035,70.3665454 18.397732,71.1876116 L27.9219321,85.0668233 L24.9679344,87 Z" id="Path" fill="#000000"></path>
                    <path d="M20.5,100 C19.672038,100 19,99.2178244 19,98.2500513 L19,87.7499487 C19,86.7821756 19.672038,86 20.5,86 C21.327962,86 22,86.7821756 22,87.7499487 L22,98.2500513 C22,99.2178244 21.327962,100 20.5,100 Z" id="Path" fill="#000000"></path>
                    <path d="M52,103 L48.5000781,103 L48.5000781,70.7369097 C46.4264148,70.0265451 44.9827252,68.0994965 45.0001561,65.8779601 L45.0001561,57 L48.5000781,57 L48.5000781,65.8933333 C48.4931057,66.7434549 49.1126208,67.4574132 49.9525857,67.5969705 L50.2501416,67.5969705 C51.2178648,67.5969705 52,68.3584462 52,69.3006076 L52,103 L52,103 Z" id="Path" fill="#000000"></path>
                    <path d="M76,103 L72.4702963,103 L72.4702963,84.2972305 C72.4702963,78.3582588 67.8641228,73.2864125 61.7525464,72.5009787 L60,72.3937835 L60.2347345,69 L62.105372,69.1189508 C70.0770384,70.1408915 75.9997932,76.6628614 75.9997932,84.2970312 L75.9997932,103 L76,103 Z" id="Path" fill="#000000"></path>
                    <path d="M51.032773,87 L48.078274,85.0682616 L57.6069604,71.1838664 C58.1634029,70.3664673 58.4548529,69.4083267 58.4442282,68.4174413 C58.4442282,65.6839643 56.1795012,63.4711496 53.395414,63.4711496 L46,63.4711496 L46,60 L53.395414,60 C58.1400702,60 61.9995434,63.7678865 61.9995434,68.3999503 C62.0172512,70.0695271 61.5195571,71.7043253 60.565001,73.1101134 L51.032773,87 Z" id="Path" fill="#000000"></path>
                    <path d="M55.5,100 C54.6704559,100 54,99.2178244 54,98.2500513 L54,87.7499487 C54,86.7821756 54.6704559,86 55.5,86 C56.3295441,86 57,86.7821756 57,87.7499487 L57,98.2500513 C57.0001758,99.2178244 56.3295441,100 55.5,100 Z" id="Path" fill="#000000"></path>
                </g>
            </g>
        </g>
    </g>
</svg>