<?xml version="1.0" encoding="UTF-8"?>
<svg width="18px" height="20px" viewBox="0 0 18 20" version="1.1" xmlns="http://www.w3.org/2000/svg" xmlns:xlink="http://www.w3.org/1999/xlink">
    <!-- Generator: Sketch 58 (84663) - https://sketch.com -->
    <title>008-bell</title>
    <desc>Created with Sketch.</desc>
    <g id="Page-1" stroke="none" stroke-width="1" fill="none" fill-rule="evenodd">
        <g id="Service-\w-Profile" transform="translate(-1386.000000, -657.000000)" fill="#E30611" fill-rule="nonzero">
            <g id="008-bell" transform="translate(1385.000000, 657.000000)">
                <path d="M17.8161621,14.093628 C16.5563965,13.0288696 15.8337402,11.4712524 15.8337402,9.82238766 L15.8337402,7.5 C15.8337402,4.56756594 13.6550903,2.13989258 10.8337402,1.73370359 L10.8337402,0.833740234 C10.8337402,0.372619609 10.4598999,0 10,0 C9.54010008,0 9.16625977,0.372619609 9.16625977,0.833740234 L9.16625977,1.73370359 C6.34368898,2.13989258 4.16625977,4.56756594 4.16625977,7.5 L4.16625977,9.82360844 C4.16625977,11.4724731 3.44360352,13.0288696 2.17620852,14.1012573 C1.85241703,14.3786621 1.66625977,14.7824097 1.66625977,15.2087402 C1.66625977,16.0125733 2.31994625,16.6674805 3.125,16.6674805 L16.875,16.6674805 C17.678833,16.6674805 18.3337402,16.0137939 18.3337402,15.2087402 C18.3337402,14.7824097 18.147583,14.3786621 17.8161621,14.093628 Z" id="Path"></path>
                <path d="M10,20 C11.5087891,20 12.7713012,18.9248657 13.0612183,17.5 L6.93756102,17.5 C7.22869875,18.9248657 8.49121094,20 10,20 L10,20 Z" id="Path"></path>
            </g>
        </g>
    </g>
</svg>