<svg width="68" height="68" viewBox="0 0 68 68" fill="none" xmlns="http://www.w3.org/2000/svg">
<circle cx="34" cy="34" r="32.25" fill="white" stroke="#E0101F" stroke-width="3.5"/>
<path d="M29.925 42.23C29.925 40.36 30.145 38.82 30.585 37.61C31.025 36.3633 31.5567 35.3183 32.18 34.475C32.84 33.595 33.5367 32.8617 34.27 32.275C35.04 31.6883 35.7367 31.12 36.36 30.57C37.02 29.9833 37.57 29.3417 38.01 28.645C38.45 27.9117 38.67 27.0133 38.67 25.95C38.67 24.4833 38.2117 23.3283 37.295 22.485C36.415 21.605 35.15 21.165 33.5 21.165C31.7767 21.165 30.42 21.6417 29.43 22.595C28.4767 23.5483 27.9267 24.85 27.78 26.5H20.85C20.9233 24.8133 21.2533 23.2733 21.84 21.88C22.4633 20.4867 23.3067 19.2767 24.37 18.25C25.47 17.2233 26.7533 16.435 28.22 15.885C29.7233 15.2983 31.3917 15.005 33.225 15.005C35.2417 15.005 37.02 15.2617 38.56 15.775C40.1 16.2883 41.3833 17.0033 42.41 17.92C43.4733 18.8367 44.2617 19.9367 44.775 21.22C45.325 22.4667 45.6 23.86 45.6 25.4C45.6 26.9767 45.38 28.2967 44.94 29.36C44.5 30.4233 43.9317 31.3583 43.235 32.165C42.575 32.935 41.8417 33.6317 41.035 34.255C40.265 34.8783 39.5317 35.5567 38.835 36.29C38.175 37.0233 37.625 37.8483 37.185 38.765C36.745 39.6817 36.525 40.8367 36.525 42.23H29.925ZM33.225 54.495C31.9417 54.495 30.8783 54.0733 30.035 53.23C29.2283 52.35 28.825 51.305 28.825 50.095C28.825 48.885 29.2283 47.8583 30.035 47.015C30.8783 46.135 31.9417 45.695 33.225 45.695C34.5083 45.695 35.5533 46.135 36.36 47.015C37.2033 47.8583 37.625 48.885 37.625 50.095C37.625 51.305 37.2033 52.35 36.36 53.23C35.5533 54.0733 34.5083 54.495 33.225 54.495Z" fill="#E0101F"/>
</svg>
