<svg width="68" height="68" viewBox="0 0 68 68" fill="none" xmlns="http://www.w3.org/2000/svg">
<path d="M1.41814 32.4157C1.41814 25.9638 3.35341 19.6587 6.97625 14.3074C10.5991 8.9561 15.7447 4.80206 21.7544 2.37699C27.7641 -0.0480886 34.3645 -0.633867 40.7108 0.694628C47.057 2.02312 52.8605 5.20545 57.3782 9.83428C61.896 14.4631 64.9225 20.3279 66.0705 26.6778C67.2184 33.0278 66.4355 39.5742 63.822 45.4789C61.2085 51.3837 56.8833 56.3783 51.3999 59.8233C45.9166 63.2684 39.5246 65.0072 33.0422 64.8173L33.1424 61.4342C38.948 61.6043 44.6725 60.047 49.5833 56.9617C54.4942 53.8763 58.3678 49.4032 60.7084 44.115C63.049 38.8267 63.7502 32.9639 62.7221 27.2769C61.694 21.59 58.9835 16.3376 54.9374 12.192C50.8914 8.0465 45.6939 5.19644 40.0102 4.00666C34.3266 2.81687 28.4153 3.34149 23.0331 5.51336C17.6509 7.68523 13.0426 11.4055 9.79799 16.1981C6.55341 20.9907 4.82021 26.6374 4.82021 32.4157H1.41814Z" fill="#E0101F"/>
<path d="M68 27.3327C68 23.5442 64.9288 20.473 61.1403 20.473C57.3518 20.473 54.2807 23.5442 54.2807 27.3327V40.9108C54.2807 44.6993 57.3518 47.7704 61.1403 47.7704C64.9288 47.7704 68 44.6993 68 40.9108V27.3327Z" fill="#E0101F"/>
<rect y="19.9023" width="13.7193" height="27.2974" rx="6.85967" fill="#E0101F"/>
<path d="M28.6304 62.8816C28.6304 65.7083 30.9338 67.9998 33.7752 67.9998C36.6165 67.9998 38.9199 65.7083 38.9199 62.8816C38.9199 60.0548 36.6165 57.7633 33.7752 57.7633C30.9338 57.7633 28.6304 60.0548 28.6304 62.8816Z" fill="#E0101F"/>
</svg>
