<svg width="68" height="68" viewBox="0 0 68 68" fill="none" xmlns="http://www.w3.org/2000/svg">
<path d="M66.25 34C66.25 51.8112 51.8112 66.25 34 66.25C16.1888 66.25 1.75 51.8112 1.75 34C1.75 16.1888 16.1888 1.75 34 1.75C51.8112 1.75 66.25 16.1888 66.25 34Z" fill="white" stroke="#E0101F" stroke-width="3.5"/>
<path d="M28.4912 36.6208L36.6332 28.4844L55.4455 47.3095L47.3035 55.446L28.4912 36.6208Z" fill="#E0101F"/>
<path d="M21.3406 13.2819C24.2957 12.1912 27.5377 12.1589 30.514 13.1905C33.4903 14.2221 36.0169 16.2538 37.6631 18.9394C39.3094 21.625 39.9736 24.7984 39.5424 27.9187C39.1113 31.0391 37.6115 33.9135 35.2987 36.0521C32.9859 38.1907 30.0031 39.4611 26.8585 39.6471C23.714 39.833 20.6023 38.9228 18.0536 37.0716C15.5049 35.2204 13.6769 32.5428 12.8811 29.495C12.0853 26.4471 12.3709 23.2176 13.6893 20.3567L22.2657 24.309C21.8617 25.1857 21.7742 26.1753 22.018 27.1093C22.2619 28.0433 22.8221 28.8638 23.6031 29.431C24.3841 29.9983 25.3376 30.2772 26.3012 30.2202C27.2648 30.1633 28.1789 29.774 28.8876 29.1186C29.5963 28.4633 30.0559 27.5825 30.188 26.6263C30.3202 25.6701 30.1166 24.6976 29.6122 23.8747C29.1077 23.0517 28.3334 22.4291 27.4214 22.113C26.5093 21.7969 25.5159 21.8068 24.6103 22.141L21.3406 13.2819Z" fill="#E0101F"/>
</svg>
