<?xml version="1.0" encoding="UTF-8"?>
<svg width="512px" height="512px" viewBox="0 0 512 512" version="1.1" xmlns="http://www.w3.org/2000/svg" xmlns:xlink="http://www.w3.org/1999/xlink">
    <!-- Generator: Sketch 64 (93537) - https://sketch.com -->
    <title>alpha</title>
    <desc>Created with Sketch.</desc>
    <g id="Page-1" stroke="none" stroke-width="1" fill="none" fill-rule="evenodd">
        <g id="Desktop-HD" transform="translate(-592.000000, -216.000000)" fill="#E30611" fill-rule="nonzero">
            <g id="alpha" transform="translate(592.000000, 216.000000)">
                <path d="M492,422 C480.954,422 472,430.954 472,442 C472,472 461.316,472 455.577,472 C428.979,472 415.443,398.343 403.827,317.64 C417.519,278.647 428.729,234.372 437.358,185.003 C451.262,105.453 452.929,43.107 452.994,40.491 C453.265,29.449 444.533,20.277 433.49,20.006 C433.323,20.002 433.157,20 432.99,20 C422.173,20 413.272,28.634 413.006,39.509 C412.971,40.944 410.531,125.588 389.536,220.485 C377.954,159.469 357.36,108.168 329.381,71.038 C294.36,24.565 247.893,0 195,0 C167.856,0 141.604,7.124 116.973,21.173 C93.711,34.442 72.925,53.295 55.191,77.21 C19.601,125.207 0,188.702 0,256 C0,323.298 19.601,386.793 55.191,434.79 C72.924,458.705 93.711,477.558 116.972,490.827 C141.604,504.876 167.856,512 195,512 C216.238,512 236.536,508.671 255.329,502.104 C265.757,498.46 271.257,487.054 267.613,476.626 C263.968,466.198 252.56,460.7 242.135,464.342 C227.594,469.424 211.734,472 195,472 C154.748,472 116.508,450.324 87.321,410.964 C56.806,369.812 40,314.778 40,256 C40,197.222 56.806,142.188 87.321,101.036 C116.508,61.676 154.748,40 195,40 C235.414,40 269.879,58.542 297.436,95.111 C325.205,131.961 344.833,186.152 354.201,251.824 C355.983,264.316 357.688,276.598 359.337,288.476 C360.509,296.918 361.658,305.192 362.8,313.297 C349.741,348.65 333.314,382.114 312.651,409.792 C306.043,418.643 307.862,431.175 316.713,437.783 C320.305,440.464 324.501,441.758 328.662,441.758 C334.758,441.758 340.777,438.982 344.704,433.721 C355.258,419.584 365.108,403.81 374.246,386.444 C377.872,406.148 381.839,423.925 386.504,439.384 C391.924,457.344 408.42,512 455.578,512 C480.788,512 494.251,498.923 501.105,487.954 C508.334,476.384 512,460.923 512,442 C512,430.954 503.046,422 492,422 Z" id="Path"></path>
            </g>
        </g>
    </g>
</svg>
