<svg width="13" height="13" viewBox="0 0 13 13" fill="none" xmlns="http://www.w3.org/2000/svg">
<rect width="13" height="13" rx="4" fill="white"/>
<path fill-rule="evenodd" clip-rule="evenodd" d="M8.28387 6.92942C7.46534 8.08591 6.94537 9.07237 6.76959 9.59969C6.69892 9.81166 6.51657 10.2246 6.04827 10.3488C5.60314 10.4669 5.25029 10.2245 5.10953 10.1158C4.93297 9.97943 4.76741 9.79711 4.6242 9.62608C4.47542 9.4484 4.31683 9.24115 4.15824 9.03262C4.14235 9.01173 4.12642 8.99077 4.11045 8.96976C3.79864 8.55954 3.47032 8.1276 3.11201 7.74054C2.73163 7.32964 2.36366 7.02158 2.01385 6.85783L2.64978 5.49931C3.25685 5.78348 3.78063 6.25475 4.21276 6.72154C4.62238 7.16403 4.99128 7.64958 5.29472 8.04898C5.31415 8.07456 5.3333 8.09977 5.35219 8.1246C5.44776 8.25027 5.53514 8.36457 5.616 8.46733C5.93336 7.79198 6.43264 6.94854 7.05951 6.06285C7.92174 4.84463 9.06238 3.49394 10.3932 2.32233L11.3844 3.4482C10.1575 4.52827 9.09266 5.7867 8.28387 6.92942ZM5.337 9.14983C5.337 9.14983 5.33862 9.14466 5.34264 9.1366C5.33914 9.14618 5.337 9.14983 5.337 9.14983ZM6.03055 8.93177C6.04076 8.93757 6.0463 8.9422 6.0463 8.9422C6.0463 8.9422 6.04134 8.93988 6.03055 8.93177Z" fill="#4B4771"/>
</svg>
