<svg width="552" height="509" viewBox="0 0 552 509" fill="none" xmlns="http://www.w3.org/2000/svg">
<path fill-rule="evenodd" clip-rule="evenodd" d="M498.159 451.958C470.054 430.606 421.988 377.62 485.286 294.445C563.561 191.587 469.819 149.388 379.965 153.794C346.098 155.452 310.241 136.388 273.348 117.324C231.492 95.6956 188.3 74.0664 145.166 82.6993C37.4481 104.258 107.39 197.02 34.3547 246.996C-27.9334 289.618 -1.19182 419.484 79.8747 451.958H498.159Z" fill="#D7D7E3"/>
<path fill-rule="evenodd" clip-rule="evenodd" d="M535.178 455.067C535.178 464.337 420.126 471.85 278.203 471.85C136.278 471.85 21.2271 464.337 21.2271 455.067C21.2271 445.8 136.278 438.286 278.203 438.286C420.126 438.286 535.178 445.8 535.178 455.067Z" fill="#D7D7E3"/>
<path fill-rule="evenodd" clip-rule="evenodd" d="M539.834 211.867C542.372 211.867 544.436 209.802 544.436 207.263C544.436 204.725 542.372 202.661 539.834 202.661C537.295 202.661 535.23 204.725 535.23 207.263C535.23 209.802 537.295 211.867 539.834 211.867ZM539.834 200.556C543.531 200.556 546.541 203.566 546.541 207.263C546.541 210.962 543.531 213.971 539.834 213.971C536.136 213.971 533.126 210.962 533.126 207.263C533.126 203.566 536.136 200.556 539.834 200.556Z" fill="#770309"/>
<path fill-rule="evenodd" clip-rule="evenodd" d="M515.688 188.336C518.227 188.336 520.292 186.271 520.292 183.734C520.292 181.195 518.227 179.13 515.688 179.13C513.152 179.13 511.087 181.195 511.087 183.734C511.087 186.271 513.152 188.336 515.688 188.336ZM515.688 177.026C519.388 177.026 522.396 180.035 522.396 183.734C522.396 187.431 519.388 190.441 515.688 190.441C511.991 190.441 508.981 187.431 508.981 183.734C508.981 180.035 511.991 177.026 515.688 177.026Z" fill="#ED983A"/>
<path fill-rule="evenodd" clip-rule="evenodd" d="M507.402 155.231C507.984 155.231 508.454 155.702 508.454 156.283V160.922C508.454 161.504 507.984 161.975 507.402 161.975C506.821 161.975 506.35 161.504 506.35 160.922V156.283C506.35 155.702 506.821 155.231 507.402 155.231Z" fill="#770309"/>
<path fill-rule="evenodd" clip-rule="evenodd" d="M507.402 147.112C507.984 147.112 508.454 147.582 508.454 148.164V152.803C508.454 153.384 507.984 153.855 507.402 153.855C506.821 153.855 506.35 153.384 506.35 152.803V148.164C506.35 147.582 506.821 147.112 507.402 147.112Z" fill="#770309"/>
<path fill-rule="evenodd" clip-rule="evenodd" d="M500.89 153.492H505.058C505.638 153.492 506.11 153.962 506.11 154.542C506.11 155.124 505.638 155.596 505.058 155.596H500.89C500.309 155.596 499.839 155.124 499.839 154.542C499.839 153.962 500.309 153.492 500.89 153.492Z" fill="#770309"/>
<path fill-rule="evenodd" clip-rule="evenodd" d="M509.748 153.492H513.914C514.495 153.492 514.967 153.962 514.967 154.542C514.967 155.124 514.495 155.596 513.914 155.596H509.748C509.166 155.596 508.694 155.124 508.694 154.542C508.694 153.962 509.166 153.492 509.748 153.492Z" fill="#770309"/>
<path fill-rule="evenodd" clip-rule="evenodd" d="M544.436 181.23C545.018 181.23 545.49 181.7 545.49 182.281V186.921C545.49 187.502 545.018 187.972 544.436 187.972C543.856 187.972 543.384 187.502 543.384 186.921V182.281C543.384 181.7 543.856 181.23 544.436 181.23Z" fill="#ED983A"/>
<path fill-rule="evenodd" clip-rule="evenodd" d="M544.436 173.11C545.018 173.11 545.49 173.581 545.49 174.161V178.801C545.49 179.383 545.018 179.853 544.436 179.853C543.856 179.853 543.384 179.383 543.384 178.801V174.161C543.384 173.581 543.856 173.11 544.436 173.11Z" fill="#ED983A"/>
<path fill-rule="evenodd" clip-rule="evenodd" d="M537.924 179.489H542.092C542.672 179.489 543.144 179.96 543.144 180.541C543.144 181.122 542.672 181.594 542.092 181.594H537.924C537.343 181.594 536.873 181.122 536.873 180.541C536.873 179.96 537.343 179.489 537.924 179.489Z" fill="#ED983A"/>
<path fill-rule="evenodd" clip-rule="evenodd" d="M546.781 179.489H550.95C551.529 179.489 552.001 179.96 552.001 180.541C552.001 181.122 551.529 181.594 550.95 181.594H546.781C546.2 181.594 545.73 181.122 545.73 180.541C545.73 179.96 546.2 179.489 546.781 179.489Z" fill="#ED983A"/>
<path fill-rule="evenodd" clip-rule="evenodd" d="M20.3534 132.516C20.3534 135.054 22.4194 137.118 24.957 137.118C27.4946 137.118 29.5594 135.054 29.5594 132.516C29.5594 129.978 27.4946 127.912 24.957 127.912C22.4194 127.912 20.3534 129.978 20.3534 132.516ZM31.6638 132.516C31.6638 136.213 28.6545 139.223 24.957 139.223C21.2583 139.223 18.249 136.213 18.249 132.516C18.249 128.817 21.2583 125.809 24.957 125.809C28.6545 125.809 31.6638 128.817 31.6638 132.516Z" fill="#E30611"/>
<path fill-rule="evenodd" clip-rule="evenodd" d="M44.7799 110.361C44.7799 112.898 46.8459 114.964 49.3835 114.964C51.9211 114.964 53.9859 112.898 53.9859 110.361C53.9859 107.823 51.9211 105.758 49.3835 105.758C46.8459 105.758 44.7799 107.823 44.7799 110.361ZM56.0915 110.361C56.0915 114.059 53.0822 117.069 49.3835 117.069C45.6848 117.069 42.6768 114.059 42.6768 110.361C42.6768 106.663 45.6848 103.654 49.3835 103.654C53.0822 103.654 56.0915 106.663 56.0915 110.361Z" fill="#ED983A"/>
<path fill-rule="evenodd" clip-rule="evenodd" d="M58.2317 141.992C58.2317 142.574 57.7601 143.044 57.1795 143.044H52.54C51.9582 143.044 51.4878 142.574 51.4878 141.992C51.4878 141.411 51.9582 140.94 52.54 140.94H57.1795C57.7601 140.94 58.2317 141.411 58.2317 141.992Z" fill="#E30611"/>
<path fill-rule="evenodd" clip-rule="evenodd" d="M66.3508 141.992C66.3508 142.574 65.8792 143.044 65.2986 143.044H60.6591C60.0786 143.044 59.6069 142.574 59.6069 141.992C59.6069 141.411 60.0786 140.94 60.6591 140.94H65.2986C65.8792 140.94 66.3508 141.411 66.3508 141.992Z" fill="#E30611"/>
<path fill-rule="evenodd" clip-rule="evenodd" d="M59.9708 135.479V139.647C59.9708 140.229 59.5004 140.699 58.9199 140.699C58.3381 140.699 57.8677 140.229 57.8677 139.647V135.479C57.8677 134.899 58.3381 134.427 58.9199 134.427C59.5004 134.427 59.9708 134.899 59.9708 135.479Z" fill="#E30611"/>
<path fill-rule="evenodd" clip-rule="evenodd" d="M59.9708 144.336V148.505C59.9708 149.086 59.5004 149.556 58.9199 149.556C58.3381 149.556 57.8677 149.086 57.8677 148.505V144.336C57.8677 143.756 58.3381 143.284 58.9199 143.284C59.5004 143.284 59.9708 143.756 59.9708 144.336Z" fill="#E30611"/>
<path fill-rule="evenodd" clip-rule="evenodd" d="M9.10082 105.758C9.10082 106.339 8.62919 106.81 8.04863 106.81H3.40912C2.82732 106.81 2.35693 106.339 2.35693 105.758C2.35693 105.178 2.82732 104.706 3.40912 104.706H8.04863C8.62919 104.706 9.10082 105.178 9.10082 105.758Z" fill="#ED983A"/>
<path fill-rule="evenodd" clip-rule="evenodd" d="M17.22 105.758C17.22 106.339 16.7483 106.81 16.1678 106.81H11.5283C10.9477 106.81 10.4761 106.339 10.4761 105.758C10.4761 105.178 10.9477 104.706 11.5283 104.706H16.1678C16.7483 104.706 17.22 105.178 17.22 105.758Z" fill="#ED983A"/>
<path fill-rule="evenodd" clip-rule="evenodd" d="M10.8404 99.2458V103.414C10.8404 103.994 10.37 104.466 9.78949 104.466C9.20769 104.466 8.7373 103.994 8.7373 103.414V99.2458C8.7373 98.6641 9.20769 98.1937 9.78949 98.1937C10.37 98.1937 10.8404 98.6641 10.8404 99.2458Z" fill="#ED983A"/>
<path fill-rule="evenodd" clip-rule="evenodd" d="M10.8404 108.103V112.271C10.8404 112.851 10.37 113.323 9.78949 113.323C9.20769 113.323 8.7373 112.851 8.7373 112.271V108.103C8.7373 107.522 9.20769 107.051 9.78949 107.051C10.37 107.051 10.8404 107.522 10.8404 108.103Z" fill="#ED983A"/>
<path fill-rule="evenodd" clip-rule="evenodd" d="M88.7787 210.412H67.9058C65.3459 210.412 63.27 208.338 63.27 205.776V184.904C63.27 182.342 65.3459 180.268 67.9058 180.268H88.7787C91.3398 180.268 93.4157 182.342 93.4157 184.904V205.776C93.4157 208.338 91.3398 210.412 88.7787 210.412Z" fill="#F08C00"/>
<path fill-rule="evenodd" clip-rule="evenodd" d="M84.008 188.975C82.2453 187.347 79.4874 187.459 77.8608 189.221C76.2343 190.984 76.3444 193.742 78.1071 195.368C79.8711 196.995 82.6291 196.885 84.2556 195.122C85.8822 193.359 85.772 190.601 84.008 188.975ZM76.6551 196.942C74.0247 194.516 73.86 190.398 76.2875 187.768C78.7149 185.138 82.8308 184.973 85.4613 187.4C88.0918 189.829 88.2564 193.945 85.8289 196.575C83.4015 199.206 79.2856 199.37 76.6551 196.942Z" fill="#FFFFFE"/>
<path fill-rule="evenodd" clip-rule="evenodd" d="M69.4827 204.713C69.0482 204.313 69.021 203.635 69.4221 203.2L76.5942 195.429C76.9953 194.995 77.6724 194.967 78.1069 195.368C78.5414 195.77 78.5686 196.448 78.1688 196.882L70.9966 204.652C70.5943 205.088 69.9172 205.114 69.4827 204.713Z" fill="#FFFFFE"/>
<path fill-rule="evenodd" clip-rule="evenodd" d="M187.825 40.8496H166.952C164.392 40.8496 162.316 38.7737 162.316 36.2126V15.3397C162.316 12.7798 164.392 10.7039 166.952 10.7039H187.825C190.386 10.7039 192.462 12.7798 192.462 15.3397V36.2126C192.462 38.7737 190.386 40.8496 187.825 40.8496Z" fill="#F08C00"/>
<path fill-rule="evenodd" clip-rule="evenodd" d="M177.009 30.0307V34.414C176.433 34.055 174.636 32.7577 173.586 30.0307H177.009ZM172.773 30.0307C173.17 31.1497 173.722 32.1648 174.417 33.0461C174.777 33.5016 175.167 33.9176 175.584 34.2865C173.16 33.7703 171.027 32.2044 169.803 30.0307H172.773ZM168.709 25.1943C168.786 24.0345 169.09 22.9191 169.614 21.8793H172.674C172.31 22.9538 172.106 24.0691 172.063 25.1943H168.709ZM177.009 25.9556V29.2706H173.325C173.017 28.2457 172.846 27.1304 172.82 25.9556H177.009ZM170.046 21.1193C171.281 19.1783 173.233 17.8006 175.458 17.2931C175.021 17.7535 174.61 18.2574 174.236 18.7946C173.728 19.5224 173.3 20.3048 172.961 21.1193H170.046ZM177.009 21.8793V25.1943H172.825C172.869 24.0654 173.09 22.9513 173.481 21.8793H177.009ZM173.79 21.1193C174.082 20.4657 174.439 19.8369 174.849 19.2464C175.643 18.1001 176.439 17.3748 176.767 17.0987L177.009 17.0851V21.1193H173.79ZM172.533 29.2706H169.422C168.96 28.2222 168.715 27.1068 168.691 25.9556H172.06C172.084 27.1205 172.243 28.2333 172.533 29.2706ZM186.086 25.9556C186.064 27.1068 185.817 28.2222 185.356 29.2706H182.333C182.622 28.2333 182.782 27.1205 182.807 25.9556H186.086ZM182.803 25.1943C182.761 24.0691 182.557 22.9538 182.193 21.8793H185.166C185.689 22.9179 185.992 24.032 186.07 25.1943H182.803ZM177.769 25.1943V21.8793H181.385C181.776 22.9476 181.997 24.0617 182.042 25.1943H177.769ZM181.906 21.1193C181.567 20.3048 181.138 19.5224 180.631 18.7946C180.264 18.2673 179.862 17.7721 179.434 17.3203C181.61 17.8464 183.52 19.2142 184.732 21.1193H181.906ZM177.769 21.1193V17.0851C177.881 17.09 177.995 17.0975 178.108 17.1074C178.581 17.5084 180.065 18.8837 181.074 21.1193H177.769ZM181.282 30.0307C180.925 30.9615 180.451 31.8095 179.871 32.5522C178.963 33.7096 178.056 34.2988 177.769 34.4672V30.0307H181.282ZM180.45 33.0461C181.144 32.1648 181.696 31.1497 182.094 30.0307H184.976C183.758 32.1969 181.714 33.7195 179.311 34.2617C179.716 33.899 180.098 33.4917 180.45 33.0461ZM177.769 29.2706V25.9556H182.047C182.02 27.1266 181.85 28.2407 181.541 29.2706H177.769ZM177.389 16.3164C172.172 16.3164 167.928 20.5598 167.928 25.7761C167.928 30.9925 172.172 35.2371 177.389 35.2371C182.605 35.2371 186.85 30.9925 186.85 25.7761C186.85 20.5598 182.605 16.3164 177.389 16.3164Z" fill="#FFFFFE"/>
<path fill-rule="evenodd" clip-rule="evenodd" d="M502.153 131.777H481.281C478.721 131.777 476.644 129.701 476.644 127.141V106.267C476.644 103.707 478.721 101.631 481.281 101.631H502.153C504.713 101.631 506.79 103.707 506.79 106.267V127.141C506.79 129.701 504.713 131.777 502.153 131.777Z" fill="#F08C00"/>
<path fill-rule="evenodd" clip-rule="evenodd" d="M496.084 122.601H484.475C483.752 122.601 483.169 122.016 483.169 121.296V112.113C483.169 111.393 483.752 110.809 484.475 110.809H496.084C496.805 110.809 497.389 111.393 497.389 112.113V121.296C497.389 122.016 496.805 122.601 496.084 122.601Z" fill="#FFFFFE"/>
<path fill-rule="evenodd" clip-rule="evenodd" d="M502.577 113.71V119.699C502.577 120.171 502.083 120.483 501.656 120.278L498.698 118.867C498.474 118.761 498.332 118.534 498.332 118.287V115.121C498.332 114.874 498.474 114.649 498.698 114.542L501.656 113.13C502.083 112.925 502.577 113.237 502.577 113.71Z" fill="#FFFFFE"/>
<path fill-rule="evenodd" clip-rule="evenodd" d="M283.687 20.4707C283.552 20.5053 283.406 20.5065 283.261 20.4682C281.723 20.0659 280.833 19.9025 280.825 19.9012C280.359 19.8171 280.05 19.3714 280.134 18.906C280.219 18.4406 280.664 18.1311 281.129 18.2153C281.168 18.2215 282.085 18.3898 283.695 18.8119C284.152 18.9307 284.427 19.3987 284.306 19.8567C284.224 20.1699 283.98 20.3964 283.687 20.4707Z" fill="#D7D7E3"/>
<path fill-rule="evenodd" clip-rule="evenodd" d="M333.444 59.7233C334.241 61.179 335.009 62.6868 335.727 64.2069C335.906 64.5844 336.323 64.7713 336.712 64.6723L336.868 64.6166C337.296 64.4136 337.479 63.9036 337.276 63.4765C336.545 61.9242 335.76 60.3843 334.945 58.9001C334.718 58.4855 334.199 58.3332 333.783 58.561C333.367 58.7887 333.216 59.3086 333.444 59.7233Z" fill="#D7D7E3"/>
<path fill-rule="evenodd" clip-rule="evenodd" d="M337.739 68.8204C338.357 70.3578 338.945 71.9472 339.486 73.5441C339.63 73.9711 340.077 74.21 340.507 74.1011L340.572 74.0813C341.019 73.9303 341.259 73.4438 341.108 72.9957C340.558 71.3679 339.958 69.7488 339.33 68.1816C339.153 67.7434 338.654 67.5305 338.215 67.7075C337.776 67.8833 337.563 68.3822 337.739 68.8204Z" fill="#D7D7E3"/>
<path fill-rule="evenodd" clip-rule="evenodd" d="M345.003 93.9094C345.418 93.8042 345.696 93.4044 345.64 92.9699C345.421 91.2653 345.164 89.5596 344.873 87.9021C344.792 87.4366 344.348 87.1247 343.881 87.2064C343.41 87.2905 343.104 87.7312 343.187 88.1967C343.472 89.8306 343.725 91.5092 343.941 93.189C344.001 93.6569 344.431 93.9886 344.9 93.9292L345.003 93.9094Z" fill="#D7D7E3"/>
<path fill-rule="evenodd" clip-rule="evenodd" d="M341.563 77.3035C341.107 77.431 340.841 77.9026 340.968 78.3594C341.179 79.1107 341.381 79.872 341.57 80.6209C341.789 81.4862 342.001 82.37 342.199 83.2489C342.303 83.7106 342.761 84.0003 343.223 83.8963L343.245 83.8914C343.693 83.7775 343.973 83.3269 343.87 82.8739C343.668 81.9789 343.454 81.0802 343.231 80.2001C343.038 79.4388 342.833 78.6639 342.618 77.8976C342.492 77.4495 342.032 77.1834 341.584 77.2985L341.563 77.3035Z" fill="#D7D7E3"/>
<path fill-rule="evenodd" clip-rule="evenodd" d="M330.888 55.3896C331.091 55.7114 331.473 55.85 331.822 55.7622L332.07 55.6557C332.471 55.4032 332.59 54.8734 332.336 54.4748C331.424 53.0302 330.454 51.598 329.455 50.219C329.177 49.8365 328.642 49.7511 328.258 50.0284C327.876 50.3056 327.789 50.8416 328.068 51.2241C329.046 52.5734 329.995 53.9747 330.888 55.3896Z" fill="#D7D7E3"/>
<path fill-rule="evenodd" clip-rule="evenodd" d="M288.067 21.9264C289.631 22.4611 291.215 23.0603 292.781 23.7052C292.958 23.7795 293.145 23.7881 293.318 23.7448C293.572 23.6804 293.792 23.5009 293.899 23.241C294.081 22.804 293.872 22.3027 293.435 22.122C291.837 21.4622 290.218 20.8507 288.622 20.306C288.174 20.1538 287.687 20.3914 287.534 20.8395C287.382 21.2864 287.619 21.7741 288.067 21.9264Z" fill="#D7D7E3"/>
<path fill-rule="evenodd" clip-rule="evenodd" d="M301.851 28.0909C302.05 28.2011 302.274 28.2259 302.48 28.1739C302.7 28.1182 302.898 27.9746 303.017 27.7604C303.247 27.347 303.1 26.8258 302.686 26.5956C301.196 25.7638 299.662 24.9653 298.126 24.2226C297.702 24.0171 297.19 24.1954 296.984 24.6212C296.777 25.047 296.955 25.5595 297.381 25.765C298.887 26.4929 300.391 27.2752 301.851 28.0909Z" fill="#D7D7E3"/>
<path fill-rule="evenodd" clip-rule="evenodd" d="M318.095 39.9212C318.317 40.1279 318.619 40.1948 318.892 40.1255C319.046 40.0871 319.191 40.0054 319.307 39.8816C319.63 39.5362 319.613 38.994 319.267 38.671C318.025 37.5061 316.725 36.3648 315.407 35.2755C315.043 34.9747 314.503 35.0255 314.201 35.3919C313.9 35.7558 313.952 36.2955 314.317 36.5975C315.608 37.6633 316.878 38.7811 318.095 39.9212Z" fill="#D7D7E3"/>
<path fill-rule="evenodd" clip-rule="evenodd" d="M310.338 33.5128C310.552 33.6688 310.813 33.7108 311.052 33.6502C311.239 33.6031 311.411 33.493 311.535 33.3246C311.812 32.9421 311.728 32.4061 311.344 32.1276C309.97 31.1274 308.543 30.1545 307.098 29.2323C306.699 28.9773 306.17 29.0948 305.915 29.4922C305.66 29.892 305.778 30.4206 306.176 30.6756C307.591 31.5792 308.991 32.5336 310.338 33.5128Z" fill="#D7D7E3"/>
<path fill-rule="evenodd" clip-rule="evenodd" d="M324.988 47.2469C325.205 47.5106 325.548 47.6108 325.858 47.5316C325.977 47.5019 326.092 47.445 326.194 47.362C326.558 47.06 326.608 46.5203 326.308 46.1551C325.22 44.8405 324.076 43.5444 322.907 42.3016C322.583 41.9563 322.042 41.9402 321.697 42.2633C321.351 42.5888 321.335 43.1298 321.658 43.4739C322.803 44.6907 323.922 45.9608 324.988 47.2469Z" fill="#D7D7E3"/>
<path fill-rule="evenodd" clip-rule="evenodd" d="M282.836 14.6725L284.566 0.39621L239.162 7.3332L282.836 14.6725Z" fill="#E30611"/>
<path fill-rule="evenodd" clip-rule="evenodd" d="M239.161 7.33196L281.107 18.3069L281.217 18.3378L283.324 20.9101L282.836 14.6725L239.161 7.33196Z" fill="#B3050D"/>
<path fill-rule="evenodd" clip-rule="evenodd" d="M283.324 20.9101L279.556 20.8606L281.217 18.3378L283.324 20.9101Z" fill="#770309"/>
<path fill-rule="evenodd" clip-rule="evenodd" d="M275.94 16.9564L281.218 18.3366L272.632 31.3601L239.162 7.3332L275.94 16.9564Z" fill="#E30611"/>
<path fill-rule="evenodd" clip-rule="evenodd" d="M82.3851 37.0952C95.2899 55.2175 77.7617 53.6182 87.1732 67.2483C95.7541 79.6715 112.816 71.8581 107.406 97.7617C106.223 103.429 109.661 108.36 115.12 111.508C124.104 116.686 134.034 114.967 140.913 109.384C141.471 108.935 142.009 108.456 142.526 107.952C147.914 102.709 150.876 94.8737 148.982 86.2941C147.445 79.3323 143.857 72.1341 136.019 68.1878C117.63 58.9261 132.723 35.0453 116.517 31.1571C96.9721 26.4681 97.4834 19.0966 85.0961 6.95689C71.9648 -5.91318 64.8953 12.5372 82.3851 37.0952Z" fill="#B3050D"/>
<path fill-rule="evenodd" clip-rule="evenodd" d="M90.7681 29.793C91.1258 30.3129 120.857 73.4611 140.913 109.384C141.471 108.935 142.009 108.456 142.526 107.952C122.404 71.998 92.8601 29.1147 92.4998 28.5948C92.1693 28.1169 91.5133 27.9981 91.0355 28.3286C90.5564 28.6591 90.4376 29.314 90.7681 29.793Z" fill="#770309"/>
<path fill-rule="evenodd" clip-rule="evenodd" d="M71.1191 94.9047C93.5641 112.637 71.3518 116.965 87.8699 130.407C102.927 142.659 121.181 126.88 123.815 160.802C124.391 168.223 130.409 173.075 138.279 174.998C151.23 178.163 162.871 172.47 169.355 163.105C169.882 162.35 170.376 161.565 170.832 160.758C175.599 152.349 176.44 141.612 171.016 131.7C166.617 123.66 159.602 116.063 148.507 114.007C122.476 109.185 132.523 74.2806 111.119 75.3068C85.305 76.5422 83.2873 67.2582 63.6313 56.724C42.7955 45.5572 40.7011 70.8752 71.1191 94.9047Z" fill="#E30611"/>
<path fill-rule="evenodd" clip-rule="evenodd" d="M78.8421 82.8763C79.4709 83.39 131.684 125.968 169.355 163.105C169.882 162.35 170.376 161.565 170.831 160.758C133.068 123.607 81.1816 81.2881 80.5491 80.7757C79.9698 80.304 79.1169 80.3932 78.6453 80.9725C78.1736 81.553 78.2628 82.4047 78.8421 82.8763Z" fill="#770309"/>
<path fill-rule="evenodd" clip-rule="evenodd" d="M465.78 362.896C446.182 373.425 462.605 379.757 448.128 387.807C434.932 395.144 423.097 380.58 416.471 406.2C415.021 411.804 409.753 414.701 403.465 415.105C393.119 415.768 384.977 409.826 381.283 401.775C380.983 401.124 380.71 400.455 380.473 399.776C377.965 392.689 378.779 384.351 384.279 377.499C388.742 371.939 395.145 367.075 403.921 367.009C424.511 366.853 421.559 338.756 437.81 342.453C457.411 346.905 460.218 340.071 476.702 334.676C494.175 328.955 492.34 348.628 465.78 362.896Z" fill="#B3050D"/>
<path fill-rule="evenodd" clip-rule="evenodd" d="M461.5 352.634C460.949 352.942 415.179 378.454 381.283 401.775C380.983 401.124 380.71 400.455 380.473 399.776C414.438 376.457 459.924 351.102 460.478 350.795C460.986 350.512 461.626 350.696 461.909 351.204C462.191 351.712 462.008 352.353 461.5 352.634Z" fill="#770309"/>
<path fill-rule="evenodd" clip-rule="evenodd" d="M451.808 431.902C432.881 436.216 423.508 413.984 406.117 443.228C402.312 449.626 394.769 451.309 386.86 449.547C373.849 446.646 365.934 436.387 364.27 425.117C364.131 424.206 364.037 423.285 363.987 422.359C363.437 412.709 367.44 402.708 376.693 396.227C384.201 390.967 393.854 387.265 404.712 390.337C430.185 397.546 436.641 361.802 455.376 372.205C477.97 384.748 483.892 377.32 506.181 376.584C529.808 375.803 520.47 399.429 482.553 407.496C454.576 413.449 472.572 427.17 451.808 431.902Z" fill="#E30611"/>
<path fill-rule="evenodd" clip-rule="evenodd" d="M480.959 393.291C480.168 393.473 414.494 408.511 364.27 425.117C364.132 424.206 364.038 423.285 363.987 422.359C414.3 405.782 479.565 390.831 480.358 390.651C481.088 390.484 481.812 390.942 481.978 391.671C482.145 392.399 481.688 393.123 480.959 393.291Z" fill="#770309"/>
<path fill-rule="evenodd" clip-rule="evenodd" d="M363.255 121.626L366.801 122.562L368.681 123.056L374.006 124.46C374.006 124.46 447.95 56.8069 425.737 20.5437C418.899 9.38063 400.395 11.2263 392.341 50.4332C384.875 86.7756 363.255 121.626 363.255 121.626Z" fill="#B3050D"/>
<path fill-rule="evenodd" clip-rule="evenodd" d="M366.8 122.562L368.681 123.056C383.302 105.656 394.176 85.4796 400.927 71.0498C408.945 53.914 413.048 40.9449 413.088 40.8162C413.235 40.3532 412.976 39.8593 412.513 39.7157C412.05 39.5684 411.555 39.8271 411.41 40.2889C411.371 40.4188 407.296 53.2963 399.321 70.3306C392.535 84.8322 381.563 105.169 366.8 122.562Z" fill="#770309"/>
<path fill-rule="evenodd" clip-rule="evenodd" d="M354.369 139.467L362.48 145.809C362.48 145.809 493.255 100.309 484.857 42.158C482.272 24.256 457.78 16.4983 426.157 61.8624C396.844 103.914 350.38 136.345 350.38 136.345L354.369 139.467Z" fill="#E30611"/>
<path fill-rule="evenodd" clip-rule="evenodd" d="M354.369 139.467L356.485 141.122C384.543 127.019 409.356 107.348 425.802 92.7174C445.329 75.3452 457.618 61.1258 457.738 60.9822C458.176 60.4747 458.119 59.7085 457.609 59.2727C457.101 58.8333 456.334 58.8915 455.898 59.3978C455.776 59.5414 443.574 73.6617 424.157 90.9286C407.627 105.628 382.601 125.45 354.369 139.467Z" fill="#B3050D"/>
<path fill-rule="evenodd" clip-rule="evenodd" d="M190.09 386.493L187.93 389.23L186.785 390.682L183.54 394.795C183.54 394.795 88.661 385.678 84.8001 345.416C83.6105 333.024 98.7273 323.843 127.27 349.028C153.729 372.376 190.09 386.493 190.09 386.493Z" fill="#B3050D"/>
<path fill-rule="evenodd" clip-rule="evenodd" d="M187.93 389.23L186.785 390.682C165.722 385.823 145.92 376.712 132.536 369.605C116.645 361.17 106.109 353.663 106.006 353.587C105.63 353.319 105.543 352.796 105.813 352.421C106.08 352.046 106.604 351.958 106.978 352.227C107.083 352.304 117.545 359.758 133.345 368.142C146.796 375.28 166.765 384.457 187.93 389.23Z" fill="#770309"/>
<path fill-rule="evenodd" clip-rule="evenodd" d="M208.291 390.315L207.045 394.968L206.383 397.435L204.51 404.425C204.51 404.425 79.1132 444.643 52.2367 395.654C43.9628 380.573 58.1364 360.67 108.111 377.055C154.436 392.242 208.291 390.315 208.291 390.315Z" fill="#E30611"/>
<path fill-rule="evenodd" clip-rule="evenodd" d="M207.045 394.968L206.383 397.435C176.997 402.764 146.893 402.009 126.028 400.297C101.253 398.266 83.7838 394.488 83.6105 394.448C82.9866 394.313 82.5917 393.697 82.7304 393.074C82.8641 392.45 83.4817 392.055 84.1019 392.191C84.2777 392.231 101.624 395.982 126.255 397.997C147.223 399.715 177.577 400.463 207.045 394.968Z" fill="#770309"/>
<path fill-rule="evenodd" clip-rule="evenodd" d="M429.424 69.2078V447.175C429.424 454.088 423.82 459.693 416.907 459.693H130.705C124.916 459.693 120.045 455.763 118.615 450.42C118.337 449.387 118.188 448.299 118.188 447.175V69.2078C118.188 62.2944 123.793 56.6906 130.705 56.6906H416.907C419.298 56.6906 421.53 57.3627 423.429 58.5263C427.025 60.7223 429.424 64.6872 429.424 69.2078Z" fill="#353153"/>
<path fill-rule="evenodd" clip-rule="evenodd" d="M429.424 69.2078V447.175C429.424 454.088 423.82 459.693 416.907 459.693H130.705C124.915 459.693 120.044 455.763 118.615 450.42L423.429 58.5263C427.025 60.7223 429.424 64.6872 429.424 69.2078Z" fill="#151424"/>
<path fill-rule="evenodd" clip-rule="evenodd" d="M408.127 96.1685V431.927C408.127 435.502 405.23 438.398 401.653 438.398H145.959C142.382 438.398 139.485 435.502 139.485 431.927V96.1685C139.485 92.5948 142.382 89.6945 145.959 89.6945H401.653C405.23 89.6945 408.127 92.5948 408.127 96.1685Z" fill="#FFFFFE"/>
<path fill-rule="evenodd" clip-rule="evenodd" d="M321.012 77.3418H194.661C193.154 77.3418 191.921 76.1089 191.921 74.6024V73.5045C191.921 71.998 193.154 70.7651 194.661 70.7651H321.012C322.519 70.7651 323.751 71.998 323.751 73.5045V74.6024C323.751 76.1089 322.519 77.3418 321.012 77.3418Z" fill="#4B4771"/>
<path fill-rule="evenodd" clip-rule="evenodd" d="M355.69 74.0541C355.69 75.8688 354.219 77.3418 352.403 77.3418C350.586 77.3418 349.115 75.8688 349.115 74.0541C349.115 72.2381 350.586 70.7651 352.403 70.7651C354.219 70.7651 355.69 72.2381 355.69 74.0541Z" fill="#4B4771"/>
<path fill-rule="evenodd" clip-rule="evenodd" d="M408.127 96.1685V117.472H139.485V96.1685C139.485 92.5948 142.382 89.6945 145.959 89.6945H401.653C405.23 89.6945 408.127 92.5948 408.127 96.1685Z" fill="#D7D7E3"/>
<path fill-rule="evenodd" clip-rule="evenodd" d="M374.458 100.037H211.702C209.602 100.037 207.799 101.679 207.761 103.781C207.721 105.92 209.444 107.668 211.576 107.668H374.458C376.566 107.668 378.274 105.959 378.274 103.852C378.274 101.745 376.566 100.037 374.458 100.037Z" fill="#FFFFFE"/>
<path fill-rule="evenodd" clip-rule="evenodd" d="M161.367 103.852V106.679C161.367 107.49 160.489 107.996 159.787 107.592L157.34 106.178L154.892 104.764C154.188 104.358 154.188 103.346 154.892 102.94L157.34 101.526L159.787 100.112C160.489 99.7076 161.367 100.214 161.367 101.025V103.852Z" fill="#353153"/>
<path fill-rule="evenodd" clip-rule="evenodd" d="M174.106 103.852V106.679C174.106 107.49 174.985 107.996 175.687 107.592L178.135 106.178L180.582 104.764C181.286 104.358 181.286 103.346 180.582 102.94L178.135 101.526L175.687 100.112C174.985 99.7076 174.106 100.214 174.106 101.025V103.852Z" fill="#353153"/>
<path d="M184.477 146.974H171.539V170.991H166.687V142.688H189.329V170.991H184.477V146.974ZM206.521 171.355C204.634 171.355 202.909 171.058 201.346 170.465C199.809 169.845 198.488 168.969 197.383 167.837C196.305 166.678 195.469 165.263 194.876 163.592C194.283 161.921 193.987 160.02 193.987 157.891V155.788C193.987 153.686 194.283 151.799 194.876 150.128C195.496 148.457 196.346 147.055 197.424 145.923C198.529 144.764 199.85 143.874 201.386 143.254C202.949 142.634 204.661 142.324 206.521 142.324C208.408 142.324 210.119 142.634 211.656 143.254C213.219 143.847 214.54 144.723 215.618 145.882C216.723 147.042 217.573 148.457 218.166 150.128C218.759 151.772 219.055 153.659 219.055 155.788V157.891C219.055 159.993 218.745 161.88 218.125 163.551C217.532 165.223 216.683 166.638 215.578 167.797C214.5 168.956 213.179 169.845 211.615 170.465C210.079 171.058 208.381 171.355 206.521 171.355ZM206.521 166.826C208.731 166.826 210.524 166.085 211.899 164.603C213.273 163.093 213.961 160.856 213.961 157.891V155.788C213.961 154.333 213.772 153.052 213.395 151.947C213.044 150.815 212.532 149.885 211.858 149.158C211.211 148.403 210.429 147.837 209.513 147.459C208.597 147.055 207.599 146.853 206.521 146.853C204.284 146.853 202.478 147.608 201.103 149.117C199.755 150.6 199.081 152.823 199.081 155.788V157.891C199.081 160.829 199.769 163.053 201.144 164.562C202.545 166.072 204.338 166.826 206.521 166.826ZM241.898 148.591L240.119 152.392L230.172 170.991H223.703V142.688H228.555V165.29L230.415 161.287L240.361 142.688H246.75V170.991H241.898V148.591ZM263.73 171.355C261.87 171.355 260.172 171.058 258.635 170.465C257.126 169.872 255.832 168.996 254.754 167.837C253.702 166.678 252.88 165.277 252.287 163.632C251.694 161.961 251.398 160.047 251.398 157.891V155.788C251.398 153.659 251.694 151.772 252.287 150.128C252.88 148.457 253.716 147.042 254.794 145.882C255.872 144.723 257.166 143.847 258.676 143.254C260.212 142.634 261.897 142.324 263.73 142.324C265.374 142.324 266.856 142.567 268.177 143.052C269.525 143.537 270.684 144.198 271.654 145.033C272.625 145.842 273.407 146.799 274 147.904C274.619 148.982 275.037 150.141 275.253 151.381H269.916C269.7 150.761 269.417 150.182 269.067 149.643C268.716 149.077 268.285 148.591 267.773 148.187C267.261 147.783 266.668 147.459 265.994 147.217C265.32 146.974 264.565 146.853 263.73 146.853C261.573 146.853 259.821 147.594 258.473 149.077C257.153 150.559 256.492 152.796 256.492 155.788V157.891C256.492 159.373 256.668 160.681 257.018 161.813C257.395 162.918 257.894 163.848 258.514 164.603C259.161 165.33 259.929 165.883 260.819 166.26C261.708 166.638 262.678 166.826 263.73 166.826C265.374 166.826 266.722 166.341 267.773 165.371C268.824 164.401 269.538 163.107 269.916 161.489H275.253C275.037 162.918 274.619 164.239 274 165.452C273.407 166.638 272.611 167.676 271.614 168.565C270.644 169.428 269.498 170.115 268.177 170.627C266.856 171.112 265.374 171.355 263.73 171.355ZM287.177 158.578H284.347V170.991H279.495V142.688H284.347V154.292H287.177L295.183 142.688H300.924L291.301 156.233L301.733 170.991H295.668L287.177 158.578Z" fill="#4B4771"/>
<path fill-rule="evenodd" clip-rule="evenodd" d="M383.213 210.139C383.213 216.376 378.158 221.432 371.921 221.432H176.147C169.909 221.432 164.854 216.376 164.854 210.139C164.854 203.902 169.909 198.847 176.147 198.847H371.921C378.158 198.847 383.213 203.902 383.213 210.139Z" fill="#D7D7E3"/>
<path fill-rule="evenodd" clip-rule="evenodd" d="M307.634 242.587H251.92C250.967 242.587 250.195 243.464 250.195 244.548C250.195 245.629 250.967 246.507 251.92 246.507H307.634C308.589 246.507 309.361 245.629 309.361 244.548C309.361 243.464 308.589 242.587 307.634 242.587Z" fill="#D7D7E3"/>
<path fill-rule="evenodd" clip-rule="evenodd" d="M307.634 252.027H251.92C250.967 252.027 250.195 252.904 250.195 253.986C250.195 255.069 250.967 255.947 251.92 255.947H307.634C308.589 255.947 309.361 255.069 309.361 253.986C309.361 252.904 308.589 252.027 307.634 252.027Z" fill="#D7D7E3"/>
<path fill-rule="evenodd" clip-rule="evenodd" d="M307.634 261.465H251.92C250.967 261.465 250.195 262.343 250.195 263.426C250.195 264.509 250.967 265.387 251.92 265.387H307.634C308.589 265.387 309.361 264.509 309.361 263.426C309.361 262.343 308.589 261.465 307.634 261.465Z" fill="#D7D7E3"/>
<path fill-rule="evenodd" clip-rule="evenodd" d="M307.634 270.905H251.92C250.967 270.905 250.195 271.783 250.195 272.865C250.195 273.948 250.967 274.826 251.92 274.826H307.634C308.589 274.826 309.361 273.948 309.361 272.865C309.361 271.783 308.589 270.905 307.634 270.905Z" fill="#D7D7E3"/>
<path fill-rule="evenodd" clip-rule="evenodd" d="M307.634 280.344H251.92C250.967 280.344 250.195 281.222 250.195 282.305C250.195 283.388 250.967 284.266 251.92 284.266H307.634C308.589 284.266 309.361 283.388 309.361 282.305C309.361 281.222 308.589 280.344 307.634 280.344Z" fill="#D7D7E3"/>
<path fill-rule="evenodd" clip-rule="evenodd" d="M307.634 289.784H251.92C250.967 289.784 250.195 290.662 250.195 291.745C250.195 292.827 250.967 293.704 251.92 293.704H307.634C308.589 293.704 309.361 292.827 309.361 291.745C309.361 290.662 308.589 289.784 307.634 289.784Z" fill="#D7D7E3"/>
<path fill-rule="evenodd" clip-rule="evenodd" d="M307.634 299.223H251.92C250.967 299.223 250.195 300.1 250.195 301.184C250.195 302.267 250.967 303.144 251.92 303.144H307.634C308.589 303.144 309.361 302.267 309.361 301.184C309.361 300.1 308.589 299.223 307.634 299.223Z" fill="#D7D7E3"/>
<path fill-rule="evenodd" clip-rule="evenodd" d="M307.634 308.663H251.92C250.967 308.663 250.195 309.54 250.195 310.624C250.195 311.705 250.967 312.583 251.92 312.583H307.634C308.589 312.583 309.361 311.705 309.361 310.624C309.361 309.54 308.589 308.663 307.634 308.663Z" fill="#D7D7E3"/>
<path fill-rule="evenodd" clip-rule="evenodd" d="M380.086 242.587H324.374C323.421 242.587 322.647 243.464 322.647 244.548C322.647 245.629 323.421 246.507 324.374 246.507H380.086C381.041 246.507 381.813 245.629 381.813 244.548C381.813 243.464 381.041 242.587 380.086 242.587Z" fill="#D7D7E3"/>
<path fill-rule="evenodd" clip-rule="evenodd" d="M380.086 252.027H324.374C323.421 252.027 322.647 252.904 322.647 253.986C322.647 255.069 323.421 255.947 324.374 255.947H380.086C381.041 255.947 381.813 255.069 381.813 253.986C381.813 252.904 381.041 252.027 380.086 252.027Z" fill="#D7D7E3"/>
<path fill-rule="evenodd" clip-rule="evenodd" d="M380.086 261.465H324.374C323.421 261.465 322.647 262.343 322.647 263.426C322.647 264.509 323.421 265.387 324.374 265.387H380.086C381.041 265.387 381.813 264.509 381.813 263.426C381.813 262.343 381.041 261.465 380.086 261.465Z" fill="#D7D7E3"/>
<path fill-rule="evenodd" clip-rule="evenodd" d="M380.086 270.905H324.374C323.421 270.905 322.647 271.783 322.647 272.865C322.647 273.948 323.421 274.826 324.374 274.826H380.086C381.041 274.826 381.813 273.948 381.813 272.865C381.813 271.783 381.041 270.905 380.086 270.905Z" fill="#D7D7E3"/>
<path fill-rule="evenodd" clip-rule="evenodd" d="M380.086 280.344H324.374C323.421 280.344 322.647 281.222 322.647 282.305C322.647 283.388 323.421 284.266 324.374 284.266H380.086C381.041 284.266 381.813 283.388 381.813 282.305C381.813 281.222 381.041 280.344 380.086 280.344Z" fill="#D7D7E3"/>
<path fill-rule="evenodd" clip-rule="evenodd" d="M380.086 289.784H324.374C323.421 289.784 322.647 290.662 322.647 291.745C322.647 292.827 323.421 293.704 324.374 293.704H380.086C381.041 293.704 381.813 292.827 381.813 291.745C381.813 290.662 381.041 289.784 380.086 289.784Z" fill="#D7D7E3"/>
<path fill-rule="evenodd" clip-rule="evenodd" d="M380.086 299.223H324.374C323.421 299.223 322.647 300.1 322.647 301.184C322.647 302.267 323.421 303.144 324.374 303.144H380.086C381.041 303.144 381.813 302.267 381.813 301.184C381.813 300.1 381.041 299.223 380.086 299.223Z" fill="#D7D7E3"/>
<path fill-rule="evenodd" clip-rule="evenodd" d="M380.086 308.663H324.374C323.421 308.663 322.647 309.54 322.647 310.624C322.647 311.705 323.421 312.583 324.374 312.583H380.086C381.041 312.583 381.813 311.705 381.813 310.624C381.813 309.54 381.041 308.663 380.086 308.663Z" fill="#D7D7E3"/>
<path fill-rule="evenodd" clip-rule="evenodd" d="M308.518 370.024V349.512L326.044 359.768L308.518 370.024ZM315.38 340.265C304.608 340.265 295.877 348.999 295.877 359.768C295.877 370.537 304.608 379.268 315.38 379.268C326.149 379.268 334.88 370.537 334.88 359.768C334.88 348.999 326.149 340.265 315.38 340.265Z" fill="#F08C00"/>
<path fill-rule="evenodd" clip-rule="evenodd" d="M256.928 328.898C253.988 328.898 251.595 331.29 251.595 334.231V386.599C251.595 389.54 253.988 391.931 256.928 391.931H375.081C378.021 391.931 380.413 389.54 380.413 386.599V334.231C380.413 331.29 378.021 328.898 375.081 328.898H256.928ZM375.081 394.731H256.928C252.443 394.731 248.795 391.083 248.795 386.599V334.231C248.795 329.746 252.443 326.098 256.928 326.098H375.081C379.565 326.098 383.213 329.746 383.213 334.231V386.599C383.213 391.083 379.565 394.731 375.081 394.731Z" fill="#D7D7E3"/>
<path fill-rule="evenodd" clip-rule="evenodd" d="M233.673 394.731H172.02C168.063 394.731 164.854 391.523 164.854 387.565V334.027C164.854 330.069 168.063 326.861 172.02 326.861H233.673C237.631 326.861 240.839 330.069 240.839 334.027V387.565C240.839 391.523 237.631 394.731 233.673 394.731Z" fill="#D7D7E3"/>
<path fill-rule="evenodd" clip-rule="evenodd" d="M233.673 308.762H172.02C168.063 308.762 164.854 305.553 164.854 301.596V248.057C164.854 244.099 168.063 240.891 172.02 240.891H233.673C237.631 240.891 240.839 244.099 240.839 248.057V301.596C240.839 305.553 237.631 308.762 233.673 308.762Z" fill="#D7D7E3"/>
<path fill-rule="evenodd" clip-rule="evenodd" d="M245.012 483.005C245.012 497.135 201.188 508.591 147.129 508.591C93.0692 508.591 49.2451 497.135 49.2451 483.005C49.2451 468.873 93.0692 457.417 147.129 457.417C201.188 457.417 245.012 468.873 245.012 483.005Z" fill="#D7D7E3"/>
<path fill-rule="evenodd" clip-rule="evenodd" d="M176.882 323.121L176.877 323.071C176.771 322.475 176.687 321.877 176.626 321.285C175.725 312.599 179.568 296.21 198.66 296.934C198.66 296.934 214.471 297.226 217.712 312.34C217.712 312.34 219.127 319.321 220.107 324.381C220.107 324.381 220.497 326.981 221.018 330.445C222.032 337.193 216.632 343.176 209.814 342.879C209.565 342.869 209.32 342.864 209.08 342.866C202.354 342.909 201.048 343.361 194.019 344.61C193.805 344.647 193.591 344.698 193.382 344.76C192.484 345.023 189.596 345.783 186.138 345.848C183.158 345.904 180.595 343.754 180.162 340.805C179.446 335.913 178.202 328.119 176.882 323.121Z" fill="#292748"/>
<path fill-rule="evenodd" clip-rule="evenodd" d="M136.067 429.307C164.601 390.944 181.559 347.826 181.559 347.826L178.941 384.996C178.941 384.996 154.601 425.759 146.128 434.841C142.749 434.841 136.067 433.692 136.067 429.307Z" fill="#B3050D"/>
<path fill-rule="evenodd" clip-rule="evenodd" d="M75.9595 466.609L67.9814 472.264L73.2708 479.478L82.0634 473.961L75.9595 466.609Z" fill="#EB9582"/>
<path fill-rule="evenodd" clip-rule="evenodd" d="M69.624 473.01C69.624 473.01 70.7282 469.477 69.593 468.131C68.4592 466.784 51.7851 462.152 48.3389 458.92C44.8915 455.686 42.6571 458.422 41.7436 460.138C40.83 461.852 64.0288 489.707 64.0288 489.707C64.0288 489.707 73.324 484.183 75.2934 481.293C77.2641 478.402 71.1255 476.406 69.624 473.01Z" fill="#E57734"/>
<path fill-rule="evenodd" clip-rule="evenodd" d="M59.1431 471.368C59.2001 471.53 59.3201 471.668 59.4885 471.745C59.8165 471.894 60.2002 471.748 60.3488 471.421C60.3983 471.312 61.5582 468.72 61.2141 466.61C60.761 463.804 58.4363 463.045 58.3385 463.014C57.9956 462.906 57.6304 463.097 57.5227 463.44C57.4151 463.782 57.6057 464.147 57.9498 464.255C58.0117 464.276 59.6048 464.822 59.9316 466.82C60.2101 468.537 59.1741 470.863 59.1642 470.886C59.0924 471.045 59.0911 471.215 59.1431 471.368Z" fill="#FFFFFE"/>
<path fill-rule="evenodd" clip-rule="evenodd" d="M61.7632 471.861C61.8189 472.022 61.939 472.161 62.1074 472.237C62.4354 472.386 62.8204 472.24 62.9689 471.913C63.0184 471.805 64.1771 469.211 63.8342 467.103C63.3799 464.293 61.0564 463.537 60.9574 463.507C60.6145 463.399 60.2506 463.589 60.1429 463.932C60.0352 464.275 60.2258 464.64 60.5687 464.747C60.6318 464.767 62.225 465.316 62.5505 467.311C62.8315 469.038 61.7942 471.354 61.7843 471.377C61.7125 471.536 61.71 471.708 61.7632 471.861Z" fill="#FFFFFE"/>
<path fill-rule="evenodd" clip-rule="evenodd" d="M56.3973 470.116C56.4542 470.277 56.5743 470.417 56.7426 470.492C57.0707 470.641 57.4556 470.496 57.6029 470.169C57.6524 470.06 58.8123 467.467 58.4694 465.358C58.0151 462.549 55.6917 461.793 55.5926 461.762C55.2498 461.654 54.8846 461.845 54.7781 462.188C54.6704 462.529 54.8611 462.896 55.204 463.002C55.2671 463.023 56.8602 463.57 57.1858 465.567C57.4655 467.291 56.4294 469.609 56.4183 469.633C56.3477 469.792 56.344 469.964 56.3973 470.116Z" fill="#FFFFFE"/>
<path fill-rule="evenodd" clip-rule="evenodd" d="M77.3175 474.449C77.7 474.777 78.0973 475.077 78.5071 475.351C79.4107 476.007 80.396 476.569 81.4495 477.062C81.4495 477.062 114.383 457.345 134.619 437.916C134.619 437.916 169.333 456.757 188.447 450.736C188.749 450.641 189.145 450.271 189.555 449.71H189.569C189.843 449.327 190.144 448.862 190.431 448.314C192.292 444.84 193.893 438.435 190.363 434.687C190.363 434.687 150.382 416.899 132.239 421.291C114.082 425.698 73.3489 466.144 73.3489 466.144C72.9936 469.277 74.635 472.177 77.3175 474.449Z" fill="#151424"/>
<path fill-rule="evenodd" clip-rule="evenodd" d="M85.232 475.99L80.0491 478.749C80.0491 478.749 74.0021 473.718 72.1045 466.505L76.1808 462.985C76.1808 462.985 80.5145 472.419 85.232 475.99Z" fill="#353153"/>
<path fill-rule="evenodd" clip-rule="evenodd" d="M92.2075 477.317L84.2295 482.971L89.5189 490.186L98.3114 484.668L92.2075 477.317Z" fill="#EB9582"/>
<path fill-rule="evenodd" clip-rule="evenodd" d="M85.872 483.719C85.872 483.719 86.9762 480.184 85.8411 478.838C84.706 477.493 68.0332 472.859 64.587 469.627C61.1395 466.394 58.9052 469.131 57.9916 470.845C57.0781 472.56 80.2769 500.414 80.2769 500.414C80.2769 500.414 89.572 494.891 91.5415 492C93.5121 489.109 87.3736 487.113 85.872 483.719Z" fill="#F08C00"/>
<path fill-rule="evenodd" clip-rule="evenodd" d="M75.3912 482.076C75.4481 482.239 75.5682 482.377 75.7365 482.453C76.0633 482.601 76.4483 482.455 76.5968 482.13C76.6464 482.021 77.805 479.426 77.4621 477.318C77.009 474.512 74.6843 473.753 74.5853 473.723C74.2437 473.614 73.8785 473.805 73.7708 474.148C73.6631 474.491 73.8537 474.856 74.1979 474.962C74.2597 474.983 75.8529 475.531 76.1797 477.527C76.4582 479.245 75.4221 481.571 75.4122 481.594C75.3404 481.752 75.3379 481.924 75.3912 482.076Z" fill="#FFFFFE"/>
<path fill-rule="evenodd" clip-rule="evenodd" d="M78.0118 482.568C78.0675 482.73 78.1875 482.869 78.3559 482.945C78.6839 483.094 79.0689 482.949 79.2162 482.621C79.2657 482.512 80.4256 479.919 80.0827 477.809C79.6284 475.002 77.305 474.246 77.2059 474.213C76.863 474.106 76.4991 474.298 76.3914 474.64C76.2837 474.982 76.4743 475.347 76.8172 475.455C76.8804 475.476 78.4735 476.022 78.7991 478.019C79.08 479.744 78.0427 482.061 78.0316 482.086C77.961 482.243 77.9573 482.416 78.0118 482.568Z" fill="#FFFFFE"/>
<path fill-rule="evenodd" clip-rule="evenodd" d="M72.6453 480.824C72.7022 480.986 72.8223 481.124 72.9907 481.201C73.3187 481.348 73.7037 481.205 73.851 480.877C73.9005 480.768 75.0604 478.173 74.7162 476.065C74.2632 473.257 71.9397 472.5 71.8407 472.469C71.4978 472.362 71.1326 472.552 71.0262 472.895C70.9185 473.237 71.1091 473.603 71.452 473.71C71.5151 473.731 73.1083 474.278 73.4338 476.274C73.7136 478 72.6775 480.317 72.6663 480.34C72.5958 480.499 72.5921 480.671 72.6453 480.824Z" fill="#FFFFFE"/>
<path fill-rule="evenodd" clip-rule="evenodd" d="M94.9818 483.78C95.3234 484.121 95.7071 484.437 96.1033 484.738C96.815 485.312 97.5949 485.847 98.4564 486.367C98.4564 486.367 133.265 470.166 155.404 452.926C155.404 452.926 193.674 472.601 213.582 470.317C229.263 468.537 227.374 444.416 223.174 437.888C223.174 437.888 173.246 433.647 154.747 436.15C136.235 438.656 92.1223 475.652 92.1223 475.652C91.4241 478.839 92.5593 481.495 94.9818 483.78Z" fill="#353153"/>
<path fill-rule="evenodd" clip-rule="evenodd" d="M103.362 485.265L98.179 488.024C98.179 488.024 92.1308 482.994 90.2344 475.781L94.6523 472.752C94.6523 472.752 98.6432 481.694 103.362 485.265Z" fill="#4B4771"/>
<path fill-rule="evenodd" clip-rule="evenodd" d="M180.185 409.691C180.935 422.749 181.43 422.824 177.696 434.039C199.756 441.868 207.301 443.386 225.099 442.778C225.741 432.049 226.437 419.44 226.126 408.194C225.194 374.756 222.602 353.866 222.602 353.866L213.421 350.317L204.013 346.682L188.052 347.492L184.693 347.665L181.559 347.826C181.559 347.826 178.253 364.247 173.2 378.227C169.09 389.596 173.805 391.879 176.38 394.587L176.671 394.903C177.036 395.323 177.336 395.755 177.546 396.242C177.61 396.391 177.671 396.55 177.735 396.719C177.89 397.144 178.046 397.624 178.187 398.141C179.431 402.565 180.185 409.691 180.185 409.691Z" fill="#E30611"/>
<path fill-rule="evenodd" clip-rule="evenodd" d="M176.38 394.587L176.671 394.904C177.036 395.323 177.336 395.755 177.546 396.242C177.61 396.391 177.671 396.55 177.735 396.719C181.73 398.455 190.194 401.402 201.579 401.402C202.093 401.402 202.613 401.399 203.14 401.385C203.515 401.375 203.81 401.067 203.802 400.693C203.792 400.324 203.492 400.033 203.126 400.033H203.11C188.833 400.371 178.722 395.763 176.38 394.587Z" fill="#770309"/>
<path fill-rule="evenodd" clip-rule="evenodd" d="M189.188 347.436C188.037 352.493 185.558 362.723 193.144 362.92C202.262 363.157 211.388 354.174 213.42 350.318L204.011 346.682L189.188 347.436Z" fill="#EB9582"/>
<path fill-rule="evenodd" clip-rule="evenodd" d="M168.602 428.567C181.559 420.39 198.891 404.148 198.891 404.148C198.891 404.148 206.538 395.027 222.601 353.866C222.601 353.866 231.224 363.81 225.244 386.059C219.418 407.736 210.049 415.519 210.049 415.519C210.049 415.519 186.102 432.673 173.426 436.922C171.429 433.581 170.438 431.999 168.602 428.567Z" fill="#B3050D"/>
<path fill-rule="evenodd" clip-rule="evenodd" d="M106.642 432.077L188.25 440.242C189.474 440.363 190.566 439.472 190.688 438.246L190.896 436.174C191.019 434.948 190.125 433.858 188.902 433.735L107.293 425.57C106.069 425.449 104.977 426.34 104.855 427.566L104.648 429.638C104.525 430.863 105.418 431.954 106.642 432.077Z" fill="#E57734"/>
<path fill-rule="evenodd" clip-rule="evenodd" d="M104.425 431.855L174.817 438.663L157.264 398.335L86.8721 391.527L104.425 431.855Z" fill="#F08C00"/>
<path fill-rule="evenodd" clip-rule="evenodd" d="M108.804 432.28L108.809 432.294L179.199 439.101L161.648 398.772L157.269 398.347L174.818 438.663L108.804 432.28Z" fill="#E57734"/>
<path fill-rule="evenodd" clip-rule="evenodd" d="M125.474 414.558C125.226 417.034 127.032 419.241 129.509 419.489C131.985 419.736 134.192 417.93 134.441 415.455C134.689 412.978 132.881 410.77 130.406 410.523C127.93 410.275 125.721 412.081 125.474 414.558Z" fill="#EBB856"/>
<path fill-rule="evenodd" clip-rule="evenodd" d="M183.38 323.512C183.38 323.512 180.361 320.357 178.628 323.37C176.895 326.382 180.522 334.444 185.229 331.942L183.38 323.512Z" fill="#E57563"/>
<path fill-rule="evenodd" clip-rule="evenodd" d="M182.98 331.572C183.028 332.066 182.665 332.506 182.17 332.554C181.675 332.601 181.236 332.238 181.189 331.743C181.142 331.248 181.504 330.809 181.998 330.761C182.493 330.714 182.933 331.077 182.98 331.572Z" fill="#FFFFFE"/>
<path fill-rule="evenodd" clip-rule="evenodd" d="M183.913 329.469C183.732 329.486 183.555 329.388 183.487 329.219C182.482 326.721 179.577 325.945 179.548 325.937C179.328 325.88 179.198 325.662 179.26 325.452C179.321 325.241 179.551 325.116 179.771 325.173C179.907 325.207 183.106 326.052 184.265 328.93C184.345 329.135 184.239 329.364 184.023 329.444L183.913 329.469Z" fill="#E0574D"/>
<path fill-rule="evenodd" clip-rule="evenodd" d="M180.959 328.443L180.728 328.402C180.525 328.303 180.446 328.065 180.553 327.869C180.571 327.837 180.998 327.071 181.995 326.53C182.193 326.422 182.448 326.487 182.561 326.677C182.672 326.867 182.601 327.108 182.401 327.217C181.631 327.634 181.293 328.225 181.29 328.23C181.222 328.353 181.095 328.431 180.959 328.443Z" fill="#E0574D"/>
<path fill-rule="evenodd" clip-rule="evenodd" d="M205.8 338.958L206.777 349.179C206.777 349.179 202.375 353.298 198.7 353.971C195.028 354.647 193.331 350.401 193.331 350.401L192.424 340.888L205.8 338.958Z" fill="#EB9582"/>
<path fill-rule="evenodd" clip-rule="evenodd" d="M205.897 339.961L206.285 344.038C204.062 347.035 199.741 348.434 193.113 348.092L192.519 341.889L205.897 339.961Z" fill="#E57563"/>
<path fill-rule="evenodd" clip-rule="evenodd" d="M182.132 327.553C182.345 328.528 182.58 329.52 182.852 330.501C184.661 337.036 189.551 343.813 194.975 344.511C206.685 346.019 210.586 336.56 211.784 329.744C211.916 328.987 211.456 328.179 211.532 327.29C211.716 325.185 212.327 322.752 212.296 320.415C212.274 318.796 212.215 317.202 212.145 315.763C211.946 311.707 209.252 308.218 205.457 307.118C199.987 305.525 191.827 304.629 184.672 309.798C182.029 311.707 180.564 314.914 180.817 318.248C181.014 320.794 181.394 324.11 182.132 327.553Z" fill="#EB9582"/>
<path fill-rule="evenodd" clip-rule="evenodd" d="M196.611 331.359C196.825 331.339 196.999 331.167 197.015 330.947C197.032 330.7 196.848 330.486 196.6 330.468L195.047 330.356L196.618 324.546C196.682 324.308 196.542 324.062 196.303 323.997C196.064 323.934 195.819 324.074 195.755 324.312L193.9 331.171L196.537 331.36L196.611 331.359Z" fill="#E57563"/>
<path fill-rule="evenodd" clip-rule="evenodd" d="M185.478 315.934C181.193 318.406 183.124 323.593 181.865 326.408C181.783 326.591 181.684 326.632 181.569 326.552C180.803 323.047 180.413 319.666 180.215 317.07C179.957 313.672 181.513 310.397 184.305 308.441C191.862 303.148 200.457 304.034 206.216 305.64C210.212 306.75 213.04 310.298 213.237 314.434C213.305 315.901 213.361 317.526 213.381 319.177C212.679 319.69 210.881 320.066 210.919 321.268C211.02 324.449 211.072 326.628 210.393 326.502C209.25 326.287 208.193 322.524 209.23 319.927C209.23 319.927 208.046 318.359 203.718 317.148C198.166 315.595 192.72 313.032 192.72 313.032C192.72 313.032 190.569 312.002 189.662 310.742C189.662 310.742 188.741 314.051 185.478 315.934Z" fill="#292748"/>
<path fill-rule="evenodd" clip-rule="evenodd" d="M189.92 324.671C190.014 325.651 189.584 326.494 188.96 326.554C188.338 326.614 187.756 325.867 187.662 324.885C187.568 323.905 187.999 323.062 188.621 323.002C189.245 322.943 189.827 323.689 189.92 324.671Z" fill="#292748"/>
<path fill-rule="evenodd" clip-rule="evenodd" d="M203.217 323.434C203.309 324.415 202.88 325.259 202.257 325.318C201.633 325.379 201.052 324.631 200.957 323.65C200.865 322.669 201.294 321.826 201.918 321.767C202.541 321.707 203.122 322.454 203.217 323.434Z" fill="#292748"/>
<path fill-rule="evenodd" clip-rule="evenodd" d="M186.174 319.776C187.064 319.514 188.872 319.046 190.834 318.928C191.351 318.896 191.8 319.246 191.768 319.662L191.766 319.672C191.742 320.004 191.411 320.258 190.998 320.266C189.656 320.292 186.173 320.648 184.596 321.285C184.527 321.055 184.661 320.79 184.869 320.55C185.185 320.186 185.653 319.931 186.174 319.776Z" fill="#292748"/>
<path fill-rule="evenodd" clip-rule="evenodd" d="M204.347 318.257C203.423 318.155 201.562 318.012 199.61 318.24C199.096 318.301 198.715 318.723 198.82 319.128L198.822 319.138C198.905 319.461 199.275 319.651 199.684 319.587C201.01 319.378 204.502 319.114 206.165 319.464C206.191 319.225 206.013 318.989 205.767 318.79C205.392 318.486 204.887 318.318 204.347 318.257Z" fill="#292748"/>
<path fill-rule="evenodd" clip-rule="evenodd" d="M191.929 334.481C192.408 336.011 193.779 338.777 197.474 338.425C201.178 338.072 201.967 335.349 202.151 333.505L191.929 334.481Z" fill="#FFFFFE"/>
<path fill-rule="evenodd" clip-rule="evenodd" d="M197.677 341.113C196.611 341.216 195.614 340.731 195.573 340.711C195.356 340.603 195.266 340.34 195.374 340.123C195.48 339.905 195.742 339.817 195.959 339.924C195.968 339.927 196.78 340.317 197.594 340.241C198.474 340.156 199.218 339.616 199.225 339.609C199.421 339.466 199.695 339.507 199.839 339.701C199.982 339.895 199.943 340.169 199.748 340.314C199.711 340.342 198.807 341.006 197.677 341.113Z" fill="#E57563"/>
<path fill-rule="evenodd" clip-rule="evenodd" d="M210.988 320.848C210.988 320.848 213.756 316.75 215.865 319.312C217.974 321.876 216.135 330.215 211.422 328.673L210.988 320.848Z" fill="#EB9582"/>
<path fill-rule="evenodd" clip-rule="evenodd" d="M214.284 328.584C214.331 329.078 213.969 329.517 213.474 329.564C212.978 329.611 212.539 329.248 212.492 328.753C212.445 328.259 212.808 327.82 213.303 327.772C213.797 327.725 214.236 328.087 214.284 328.584Z" fill="#FFFFFE"/>
<path fill-rule="evenodd" clip-rule="evenodd" d="M212.171 326.078C212.338 326.063 212.482 325.937 212.513 325.764C212.975 323.199 215.466 321.939 215.492 321.928C215.682 321.834 215.76 321.603 215.666 321.413C215.573 321.222 215.343 321.144 215.153 321.238C215.036 321.295 212.29 322.674 211.758 325.628C211.719 325.837 211.858 326.036 212.067 326.073L212.171 326.078Z" fill="#E57563"/>
<path fill-rule="evenodd" clip-rule="evenodd" d="M214.664 324.571L214.865 324.49C215.032 324.359 215.059 324.117 214.929 323.95C214.907 323.923 214.382 323.268 213.383 322.93C213.184 322.864 212.965 322.97 212.897 323.173C212.83 323.374 212.938 323.59 213.138 323.658C213.911 323.919 214.322 324.421 214.325 324.426C214.409 324.532 214.538 324.582 214.664 324.571Z" fill="#E57563"/>
<path fill-rule="evenodd" clip-rule="evenodd" d="M197.869 322.596C197.799 322.001 198.226 321.462 198.819 321.392L205.291 320.629C205.887 320.559 206.425 320.983 206.496 321.579L206.594 322.405C206.734 323.603 206.403 324.801 205.681 325.688C204.963 326.573 204.093 327.092 203.094 327.232L202.94 327.25C201.759 327.389 200.591 327.062 199.651 326.323C198.697 325.577 198.093 324.502 197.952 323.296L197.869 322.596ZM197.105 322.686L197.187 323.386C197.354 324.796 198.06 326.056 199.178 326.93C200.278 327.794 201.645 328.178 203.03 328.014L203.199 327.993C204.399 327.826 205.434 327.215 206.282 326.172C207.131 325.123 207.522 323.719 207.356 322.316L207.26 321.488C207.232 321.26 207.163 321.046 207.06 320.852C206.939 320.616 206.771 320.414 206.566 320.252C206.194 319.958 205.711 319.806 205.202 319.865L198.728 320.629C197.995 320.715 197.415 321.217 197.192 321.873C197.11 322.112 197.076 322.372 197.102 322.637L197.105 322.686Z" fill="#292748"/>
<path fill-rule="evenodd" clip-rule="evenodd" d="M184.144 324.214C184.073 323.619 184.5 323.08 185.093 323.011L191.569 322.247C192.162 322.178 192.702 322.602 192.773 323.196L192.871 324.025C193.012 325.22 192.678 326.42 191.96 327.306C191.241 328.191 190.37 328.709 189.373 328.85L189.214 328.868C188.033 329.007 186.867 328.681 185.928 327.942C184.973 327.196 184.369 326.12 184.227 324.915L184.144 324.214ZM183.38 324.306L183.463 325.005C183.629 326.415 184.337 327.673 185.452 328.548C186.553 329.413 187.919 329.796 189.305 329.632L189.477 329.612C190.674 329.445 191.711 328.832 192.556 327.79C193.406 326.741 193.799 325.337 193.635 323.934L193.537 323.107L193.529 323.073C193.498 322.821 193.414 322.59 193.292 322.384C192.93 321.769 192.231 321.395 191.479 321.483L185.004 322.247C184.436 322.314 183.958 322.633 183.667 323.078C183.527 323.296 183.43 323.542 183.392 323.802C183.364 323.965 183.36 324.135 183.38 324.306Z" fill="#292748"/>
<path fill-rule="evenodd" clip-rule="evenodd" d="M206.566 320.252C207.18 319.849 208.802 318.963 211.202 318.865L211.004 319.651C209.01 319.786 207.627 320.5 207.06 320.852C206.872 320.966 206.773 321.043 206.768 321.046L206.292 320.443C206.311 320.429 206.403 320.356 206.566 320.252Z" fill="#292748"/>
<path fill-rule="evenodd" clip-rule="evenodd" d="M197.365 322.684L197.531 321.934C197.484 321.924 196.369 321.68 195.191 321.82C193.938 321.967 193.175 322.449 193.144 322.467L193.557 323.116C193.564 323.112 194.214 322.71 195.281 322.584C196.325 322.46 197.355 322.682 197.365 322.684Z" fill="#292748"/>
<path fill-rule="evenodd" clip-rule="evenodd" d="M181.217 322.654C182.674 322.726 183.905 323.152 183.983 323.18L183.728 323.905C183.708 323.898 182.444 323.463 181.023 323.419L181.217 322.654Z" fill="#292748"/>
<path fill-rule="evenodd" clip-rule="evenodd" d="M369.035 224.151C369.769 225.191 370.965 226.998 372.533 228.926C373.132 229.659 373.988 230.152 374.977 230.447C375.535 231.862 376.207 233.531 376.962 235.369C380.1 234.09 383.182 232.697 386.221 231.206C385.596 230.173 385.016 229.198 384.506 228.309C384.506 228.309 386.245 223.81 386.614 220.716C386.976 217.63 386.434 216.411 384.726 215.391C383.019 214.372 381.098 213.695 380.806 213.374C380.516 213.055 375.862 202.73 373.63 201.829C371.451 200.948 375.448 211.717 375.625 212.196C375.478 211.967 373.785 209.193 372.299 209.641C370.747 210.09 370.764 211.802 370.764 211.802C370.764 211.802 368.225 211.406 367.375 212.398C366.529 213.383 367.642 215.174 367.642 215.174C367.642 215.174 367.012 214.93 366.762 215.02C365.267 215.553 365.528 217.695 366.201 219.132C366.888 220.601 367.881 222.52 369.035 224.151Z" fill="#EB9582"/>
<path fill-rule="evenodd" clip-rule="evenodd" d="M497.751 221.963C497.751 221.963 514.651 261.566 514.651 283.006C514.651 304.445 485.664 306.671 485.664 306.671L480.794 295.043C480.794 295.043 501.802 291.282 499.294 266.206L497.751 221.963Z" fill="#B3050D"/>
<path fill-rule="evenodd" clip-rule="evenodd" d="M398.052 488.105C398.052 494.613 425.11 499.889 458.488 499.889C491.866 499.889 518.924 494.613 518.924 488.105C518.924 481.596 491.866 476.319 458.488 476.319C425.11 476.319 398.052 481.596 398.052 488.105Z" fill="#D7D7E3"/>
<path fill-rule="evenodd" clip-rule="evenodd" d="M446.692 186.629C444.431 186.629 442.59 184.788 442.59 182.526C442.59 182.152 442.64 181.789 442.735 181.442C442.935 180.71 443.335 180.056 443.874 179.549C444.394 179.053 445.046 178.694 445.768 178.53C446.065 178.459 446.374 178.422 446.692 178.422C447.148 178.422 447.585 178.496 447.992 178.635C449.62 179.177 450.796 180.718 450.796 182.526C450.796 184.788 448.955 186.629 446.692 186.629ZM449.063 178.283C448.615 178.03 448.118 177.847 447.597 177.751H447.594C447.303 177.692 446.999 177.665 446.692 177.665C444.691 177.665 442.966 178.88 442.225 180.613L442.221 180.616C442.097 180.907 442.001 181.213 441.933 181.529C441.866 181.851 441.83 182.185 441.83 182.526C441.83 185.206 444.012 187.388 446.692 187.388C449.372 187.388 451.555 185.206 451.555 182.526C451.555 180.706 450.548 179.115 449.063 178.283Z" fill="#4B4E8F"/>
<path fill-rule="evenodd" clip-rule="evenodd" d="M471.296 197.291V206.955C471.296 206.955 468.416 211.878 464.515 212.212C460.623 212.554 457.16 207.976 457.16 207.976V197.97L471.296 197.291Z" fill="#EB9582"/>
<path fill-rule="evenodd" clip-rule="evenodd" d="M461.05 199.627C461.05 199.627 460.425 203.052 457.16 204.306V199.868L461.05 199.627Z" fill="#E57563"/>
<path fill-rule="evenodd" clip-rule="evenodd" d="M458.261 201.534C472.816 205.653 477.592 194.408 479.627 187.286C479.851 186.495 480.055 185.617 480.233 184.677L480.255 184.559C480.453 183.505 480.624 182.382 480.769 181.226C480.878 180.369 480.97 179.5 481.054 178.624C481.261 176.496 481.395 174.362 481.485 172.467C481.691 168.139 479.1 164.158 475.045 162.603C469.203 160.357 460.333 158.578 451.927 163.344C448.821 165.103 446.875 168.364 446.805 171.931C446.805 171.931 445.336 177.632 446.033 180.191C446.729 182.748 446.884 183.522 447.117 186.926C447.348 190.33 449.283 198.531 451.294 200.233C453.306 201.935 458.261 201.534 458.261 201.534Z" fill="#EB9582"/>
<path fill-rule="evenodd" clip-rule="evenodd" d="M452.848 186.45C453.044 186.406 453.195 186.237 453.206 186.026C453.375 182.914 456.147 181.053 456.174 181.033C456.386 180.894 456.445 180.609 456.307 180.398C456.167 180.186 455.882 180.127 455.67 180.265C455.54 180.351 452.485 182.393 452.29 185.976C452.275 186.229 452.469 186.446 452.722 186.46L452.848 186.45Z" fill="#E57563"/>
<path fill-rule="evenodd" clip-rule="evenodd" d="M455.583 184.292L455.809 184.167C455.987 183.988 455.986 183.697 455.804 183.518C455.774 183.489 455.056 182.788 453.821 182.536C453.575 182.485 453.33 182.646 453.279 182.893C453.228 183.142 453.389 183.385 453.637 183.435C454.592 183.631 455.154 184.166 455.159 184.171C455.276 184.285 455.435 184.325 455.583 184.292Z" fill="#E57563"/>
<path fill-rule="evenodd" clip-rule="evenodd" d="M481.999 179.318C481.408 187.033 478.028 195.352 478.028 195.352C474.334 203.5 467.457 202.007 463.741 200.893C461.026 200.079 457.343 197.063 455.839 195.678C454.685 194.616 453.988 193.045 453.58 191.742C453.28 190.786 453.971 189.838 454.969 189.741C456.699 189.574 458.503 188.105 458.935 184.027C459.668 177.108 455.05 177.101 455.05 177.101C452.253 176.854 450.766 180.361 450.766 180.361C450.766 180.361 449.042 178.119 449.4 174.431C449.711 171.198 446.451 173.502 446.451 173.502C446.451 173.502 441.871 169.519 441.768 165.599C441.664 161.679 443.948 161.523 446.003 160.518C448.06 159.513 443.315 155.799 445.584 153.839C447.853 151.88 450.432 151.673 452.289 152.704C454.147 153.737 454.766 148.681 457.603 148.578C460.439 148.476 462.244 151.57 464.229 150.333C466.216 149.095 471.27 147.238 473.539 151.054C475.809 154.871 476.428 155.851 478.285 156.058C480.142 156.263 485.299 159.822 484.268 165.702C483.237 171.582 482.342 174.813 481.999 179.318Z" fill="#292748"/>
<path fill-rule="evenodd" clip-rule="evenodd" d="M453.888 177.215C453.408 177.358 452.984 177.605 452.613 177.902C451.681 177.795 450.697 177.89 449.725 178.113C449.503 178.165 449.283 178.22 449.063 178.283C448.701 178.389 448.342 178.505 447.992 178.635C447.265 178.902 446.56 179.221 445.91 179.549C444.538 180.239 443.397 180.984 442.735 181.442C442.344 181.715 442.12 181.888 442.106 181.898L441.933 181.529C442.001 181.213 442.097 180.907 442.221 180.616L442.225 180.613C442.604 180.347 443.174 179.967 443.874 179.549C444.431 179.218 445.071 178.864 445.768 178.53L445.844 178.494C446.395 178.228 446.983 177.976 447.593 177.751H447.597C448.216 177.525 448.858 177.33 449.508 177.187C450.975 176.862 452.487 176.794 453.888 177.215Z" fill="#4B4E8F"/>
<path fill-rule="evenodd" clip-rule="evenodd" d="M483.192 492.198C482.107 492.344 480.79 492.414 479.68 492.16L478.03 491.626L475.324 490.808C475.324 490.808 465.595 486.988 462.149 483.64C458.705 480.29 459.321 476.605 464.691 474.808C470.062 473.01 474.862 474.711 477.731 473.564C477.731 473.564 486.33 474.286 485.851 478.88C485.961 483.155 486.217 485.417 485.645 489.736C485.476 491.015 484.472 492.029 483.192 492.198Z" fill="#F08C00"/>
<path fill-rule="evenodd" clip-rule="evenodd" d="M478.435 475.616C478.582 475.584 478.717 475.493 478.802 475.355C478.967 475.084 478.883 474.731 478.613 474.566C478.523 474.511 476.38 473.213 474.497 473.283C471.99 473.373 471.074 475.325 471.036 475.408C470.906 475.695 471.032 476.036 471.321 476.167C471.608 476.299 471.948 476.172 472.079 475.883C472.104 475.83 472.758 474.496 474.539 474.429C476.08 474.372 477.995 475.533 478.015 475.544C478.145 475.625 478.295 475.644 478.435 475.616Z" fill="#FFFFFE"/>
<path fill-rule="evenodd" clip-rule="evenodd" d="M476.505 475.402C476.652 475.371 476.788 475.28 476.874 475.142C477.038 474.871 476.953 474.518 476.684 474.352C476.593 474.299 474.45 473 472.567 473.07C470.061 473.161 469.146 475.112 469.106 475.195C468.975 475.484 469.104 475.823 469.391 475.954C469.678 476.086 470.02 475.959 470.15 475.67C470.176 475.617 470.828 474.283 472.611 474.216C474.152 474.159 476.067 475.32 476.085 475.331C476.216 475.412 476.366 475.433 476.505 475.402Z" fill="#FFFFFE"/>
<path fill-rule="evenodd" clip-rule="evenodd" d="M474.621 475.009C474.768 474.977 474.902 474.887 474.987 474.748C475.152 474.478 475.068 474.126 474.798 473.96C474.708 473.904 472.565 472.607 470.683 472.677C468.175 472.768 467.259 474.717 467.222 474.801C467.091 475.089 467.217 475.43 467.506 475.56C467.793 475.691 468.133 475.565 468.265 475.277C468.289 475.225 468.943 473.889 470.725 473.824C472.265 473.765 474.18 474.925 474.2 474.938C474.33 475.019 474.481 475.039 474.621 475.009Z" fill="#FFFFFE"/>
<path fill-rule="evenodd" clip-rule="evenodd" d="M474.939 467.654V476.693C477.771 477.354 480.82 477.675 483.207 476.56L483.746 466.981L474.939 467.654Z" fill="#EB9582"/>
<path fill-rule="evenodd" clip-rule="evenodd" d="M467.104 460.292C467.02 463.019 468.242 465.478 470.194 467.076C470.684 467.473 471.219 467.817 471.79 468.101L472.029 468.212C473.091 468.695 474.272 468.969 475.517 468.969H481.82C483.328 468.969 484.74 468.571 485.976 467.874C486.685 467.463 487.334 466.96 487.894 466.379C489.398 464.803 490.302 462.656 490.233 460.292C489.809 446.401 489.218 419.86 490.53 411.764C491.809 403.876 493.991 368.762 495.153 349C495.585 341.809 495.874 336.647 495.931 335.575L469.105 335.221C468.975 337.368 468.668 342.619 468.314 349.561H468.305C467.424 366.934 466.166 392.495 465.756 410.699C465.384 427.266 467.458 448.545 467.104 460.292Z" fill="#353153"/>
<path fill-rule="evenodd" clip-rule="evenodd" d="M469.104 335.222L495.93 335.575C495.874 336.648 495.587 341.808 495.154 349.001C486.044 350.119 476.557 350.588 468.315 349.561C468.669 342.62 468.978 337.368 469.104 335.222Z" fill="#151424"/>
<path fill-rule="evenodd" clip-rule="evenodd" d="M450.282 492.198C449.198 492.344 447.879 492.414 446.771 492.16L445.121 491.626L442.414 490.808C442.414 490.808 432.684 486.988 429.239 483.64C425.794 480.29 426.41 476.605 431.781 474.808C437.151 473.01 441.951 474.711 444.822 473.564C444.822 473.564 453.42 474.286 452.941 478.88C453.051 483.155 453.307 485.417 452.735 489.736C452.566 491.015 451.562 492.029 450.282 492.198Z" fill="#F08C00"/>
<path fill-rule="evenodd" clip-rule="evenodd" d="M445.525 475.616C445.672 475.584 445.807 475.493 445.892 475.355C446.057 475.084 445.973 474.731 445.702 474.566C445.613 474.511 443.47 473.213 441.587 473.283C439.08 473.373 438.163 475.325 438.126 475.408C437.995 475.695 438.121 476.036 438.411 476.167C438.698 476.299 439.037 476.172 439.17 475.883C439.194 475.83 439.847 474.496 441.629 474.429C443.169 474.372 445.084 475.533 445.104 475.544C445.235 475.625 445.385 475.644 445.525 475.616Z" fill="#FFFFFE"/>
<path fill-rule="evenodd" clip-rule="evenodd" d="M443.595 475.402C443.742 475.371 443.878 475.28 443.963 475.142C444.128 474.871 444.043 474.518 443.773 474.352C443.683 474.299 441.54 473 439.657 473.07C437.151 473.161 436.235 475.112 436.197 475.195C436.065 475.484 436.192 475.823 436.481 475.954C436.768 476.086 437.108 475.959 437.24 475.67C437.266 475.617 437.917 474.283 439.701 474.216C441.24 474.159 443.155 475.32 443.174 475.331C443.306 475.412 443.456 475.433 443.595 475.402Z" fill="#FFFFFE"/>
<path fill-rule="evenodd" clip-rule="evenodd" d="M441.71 475.009C441.857 474.977 441.992 474.887 442.079 474.748C442.242 474.478 442.158 474.126 441.888 473.96C441.798 473.904 439.654 472.607 437.772 472.677C435.265 472.768 434.349 474.717 434.311 474.801C434.18 475.089 434.307 475.43 434.596 475.56C434.883 475.691 435.222 475.565 435.354 475.277C435.379 475.225 436.033 473.889 437.814 473.824C439.355 473.765 441.27 474.925 441.289 474.938C441.42 475.019 441.57 475.039 441.71 475.009Z" fill="#FFFFFE"/>
<path fill-rule="evenodd" clip-rule="evenodd" d="M442.837 467.654L443.365 476.684C446.703 477.608 449.211 478.034 451.105 476.56L451.645 466.981L442.837 467.654Z" fill="#EB9582"/>
<path fill-rule="evenodd" clip-rule="evenodd" d="M435.003 460.292C434.917 463.019 436.14 465.478 438.094 467.076C438.582 467.473 439.119 467.817 439.688 468.101L439.926 468.212C440.989 468.695 442.171 468.969 443.415 468.969H449.717C451.225 468.969 452.64 468.571 453.874 467.874C454.582 467.463 455.231 466.96 455.793 466.379C457.297 464.803 458.199 462.656 458.13 460.292C457.707 446.401 457.115 419.86 458.428 411.764C459.67 404.11 461.761 370.825 462.945 350.802C462.982 350.188 463.018 349.585 463.052 349C463.484 341.809 463.773 336.647 463.829 335.575L437.002 335.221C436.993 335.356 436.986 335.495 436.977 335.635C436.852 337.728 436.611 341.922 436.322 347.402C436.288 348.1 436.249 348.82 436.212 349.561H436.202C435.322 366.934 434.066 392.495 433.655 410.699C433.282 427.266 435.357 448.545 435.003 460.292Z" fill="#353153"/>
<path fill-rule="evenodd" clip-rule="evenodd" d="M436.194 347.386L436.323 347.402C444.287 348.401 453.479 350.035 462.945 350.802C462.982 350.188 463.018 349.585 463.052 349C463.484 341.809 463.773 336.647 463.829 335.575L437.002 335.221C436.994 335.356 436.986 335.495 436.977 335.635C436.833 337.77 436.526 340.878 436.194 347.386Z" fill="#151424"/>
<path fill-rule="evenodd" clip-rule="evenodd" d="M501.217 287.261C501.205 286.219 501.195 285.176 501.184 284.131C501.181 283.879 501.181 283.632 501.176 283.386C501.166 282.363 501.151 281.347 501.139 280.322C501.139 279.704 501.127 279.101 501.118 278.497C501.115 278.2 501.109 277.908 501.103 277.613C501.099 277.272 501.093 276.928 501.087 276.587C501.079 275.953 501.069 275.316 501.061 274.69C501.057 274.375 501.051 274.056 501.044 273.741C501.038 273.42 501.036 273.1 501.031 272.78C501.021 272.166 501.009 271.56 501 270.957C500.99 270.32 500.984 269.684 500.973 269.056C500.964 268.692 500.954 268.332 500.945 267.968C500.942 267.694 500.936 267.42 500.933 267.146C500.912 266.51 500.906 265.876 500.897 265.25C500.887 264.862 500.879 264.476 500.87 264.092C500.864 263.868 500.858 263.644 500.855 263.424C500.845 262.842 500.825 262.254 500.819 261.682C500.809 261.389 500.797 261.108 500.797 260.824V260.776C500.788 260.408 500.778 260.044 500.767 259.678V259.616C500.283 240.059 499.438 224.099 498.003 221.962C496.327 219.48 491.264 216.257 486.034 213.214C482.052 210.885 474.048 206.468 471.296 204.761C467.793 207.034 462.645 206.931 457.161 206.346C451.041 210.206 440.715 217.061 437.783 221.39C436.34 223.527 435.367 239.777 434.726 259.616C434.681 260.87 434.639 262.144 434.608 263.424C434.602 263.644 434.597 263.868 434.591 264.092C434.579 264.476 434.569 264.862 434.563 265.25C434.533 265.876 434.524 266.51 434.506 267.146C434.497 267.42 434.488 267.694 434.478 267.968C434.47 268.332 434.457 268.692 434.445 269.056C434.428 269.684 434.409 270.32 434.397 270.957C434.388 271.56 434.367 272.166 434.357 272.78C434.348 273.1 434.342 273.42 434.333 273.741C434.327 274.056 434.319 274.375 434.309 274.69C434.3 275.316 434.279 275.953 434.273 276.587C434.26 276.928 434.254 277.272 434.248 277.613C434.242 277.908 434.237 278.2 434.234 278.497C434.222 279.101 434.204 279.715 434.194 280.322C434.17 281.343 434.155 282.369 434.132 283.386C434.129 283.636 434.122 283.882 434.116 284.131C434.095 285.176 434.077 286.219 434.059 287.261C433.645 310.131 433.567 331.708 433.629 338.341C456.202 344.456 478.743 344.478 501.262 338.341C501.347 331.649 501.438 310.07 501.217 287.261Z" fill="#E30611"/>
<path fill-rule="evenodd" clip-rule="evenodd" d="M434.478 267.968H500.945C500.941 267.694 500.935 267.42 500.933 267.146C500.912 266.51 500.906 265.876 500.897 265.25C500.887 264.862 500.878 264.476 500.87 264.092H434.591C434.578 264.476 434.568 264.862 434.562 265.25C434.532 265.876 434.524 266.51 434.505 267.146C434.497 267.42 434.488 267.694 434.478 267.968Z" fill="#B3050D"/>
<path fill-rule="evenodd" clip-rule="evenodd" d="M434.248 277.613H501.103C501.099 277.272 501.093 276.928 501.087 276.587C501.079 275.953 501.069 275.316 501.061 274.69C501.057 274.375 501.051 274.056 501.044 273.741H434.333C434.327 274.056 434.319 274.375 434.309 274.69C434.3 275.316 434.279 275.953 434.273 276.587C434.26 276.928 434.254 277.272 434.248 277.613Z" fill="#B3050D"/>
<path fill-rule="evenodd" clip-rule="evenodd" d="M434.059 287.261H501.216C501.205 286.219 501.195 285.176 501.184 284.131C501.181 283.879 501.181 283.632 501.176 283.386H434.132C434.129 283.636 434.122 283.882 434.116 284.131C434.094 285.176 434.077 286.219 434.059 287.261Z" fill="#B3050D"/>
<path fill-rule="evenodd" clip-rule="evenodd" d="M375.256 231.889C375.256 231.889 384.233 260.567 401.19 273.625C403.902 275.716 407.697 276.491 410.907 275.296C416.4 273.247 429.924 264.714 434.773 258.191C434.773 258.191 443.153 233.617 437.783 221.39C437.783 221.39 423.368 242.114 407.575 254.876L407.423 254.999C407.196 255.183 406.963 255.368 406.729 255.551C406.729 255.551 406.438 255.322 405.936 254.921L405.788 254.801C403.556 253.002 397.868 248.282 394.399 244.205C390.01 239.042 384.914 228.278 384.914 228.278C382.208 230.561 379.034 231.852 375.256 231.889Z" fill="#E30611"/>
<path fill-rule="evenodd" clip-rule="evenodd" d="M405.236 264.379C405.504 264.455 405.768 264.389 405.974 264.228C406.095 264.126 406.192 263.988 406.236 263.821C407.032 261.028 407.443 257.992 407.575 254.876L407.423 254.999C407.196 255.183 406.963 255.368 406.729 255.551C406.729 255.551 406.438 255.322 405.936 254.921C405.814 257.884 405.428 260.754 404.683 263.38C404.557 263.81 404.804 264.258 405.236 264.379Z" fill="#B3050D"/>
<path fill-rule="evenodd" clip-rule="evenodd" d="M326.044 490.974C326.044 494.535 340.846 497.422 359.107 497.422C377.367 497.422 392.169 494.535 392.169 490.974C392.169 487.414 377.367 484.527 359.107 484.527C340.846 484.527 326.044 487.414 326.044 490.974Z" fill="#D7D7E3"/>
<path fill-rule="evenodd" clip-rule="evenodd" d="M371.855 493.059H346.397C342.934 493.059 339.866 490.829 338.796 487.537L328 454.306C327.559 452.946 328.506 451.533 329.932 451.423C349.589 449.899 369.052 449.898 388.324 451.418C389.748 451.532 390.694 452.944 390.252 454.301L379.455 487.537C378.384 490.829 375.317 493.059 371.855 493.059Z" fill="#F08C00"/>
<path fill-rule="evenodd" clip-rule="evenodd" d="M387.99 453.836C387.99 454.72 375.145 455.436 359.299 455.436C343.453 455.436 330.608 454.72 330.608 453.836C330.608 452.951 343.453 452.235 359.299 452.235C375.145 452.235 387.99 452.951 387.99 453.836Z" fill="#353153"/>
<path fill-rule="evenodd" clip-rule="evenodd" d="M360.471 453.836V412.373C360.471 411.631 359.869 411.028 359.126 411.028C358.383 411.028 357.78 411.631 357.78 412.373V453.836C358.669 454.361 359.565 454.351 360.471 453.836Z" fill="#413C82"/>
<path fill-rule="evenodd" clip-rule="evenodd" d="M359.125 422.139C359.125 422.139 361.674 403.753 385.218 403.753C385.218 403.753 381.182 429.762 359.125 422.139Z" fill="#E30611"/>
<path fill-rule="evenodd" clip-rule="evenodd" d="M360.329 427.786C360.329 427.786 357.78 409.401 334.237 409.401C334.237 409.401 338.274 435.409 360.329 427.786Z" fill="#E30611"/>
<path fill-rule="evenodd" clip-rule="evenodd" d="M360.595 444.118C360.595 444.118 354.566 426.562 331.46 431.078C331.46 431.078 340.411 455.83 360.595 444.118Z" fill="#E30611"/>
<path fill-rule="evenodd" clip-rule="evenodd" d="M359.107 443.971C359.107 443.971 376.406 450.7 387.874 430.139C387.874 430.139 363.193 420.994 359.107 443.971Z" fill="#E30611"/>
<path fill-rule="evenodd" clip-rule="evenodd" d="M46.9411 392.173L60.799 394.053C62.5505 394.291 64.1635 393.063 64.3999 391.31L71.1351 341.691L50.9344 338.947L44.2004 388.571C43.9603 390.321 45.187 391.933 46.9411 392.173Z" fill="#F08C00"/>
<path fill-rule="evenodd" clip-rule="evenodd" d="M49.7676 347.548C54.3464 351.027 61.0024 354.888 69.1649 356.208L71.1356 341.691L50.9349 338.947L49.7676 347.548Z" fill="#E57734"/>
<path fill-rule="evenodd" clip-rule="evenodd" d="M44.3667 455.284L46.4599 455.569C49.3441 455.96 52.0006 453.938 52.3917 451.053L60.1408 393.963L47.6 392.261L39.8522 449.351C39.461 452.236 41.4812 454.893 44.3667 455.284Z" fill="#353153"/>
<path fill-rule="evenodd" clip-rule="evenodd" d="M19.9138 282.363C23.6484 255.858 48.2485 237.331 74.7549 241.065C101.26 244.801 119.783 269.404 116.048 295.909C112.314 322.41 87.7128 340.938 61.2077 337.203C34.7025 333.468 16.1791 308.866 19.9138 282.363ZM11.2066 281.136C6.78871 312.49 28.6246 341.491 59.981 345.91C91.3373 350.328 120.337 328.488 124.755 297.136C129.173 265.779 107.338 236.777 75.9804 232.358C44.624 227.94 15.6258 249.779 11.2066 281.136Z" fill="#353153"/>
<mask id="mask0" mask-type="alpha" maskUnits="userSpaceOnUse" x="19" y="294" width="68" height="44">
<path fill-rule="evenodd" clip-rule="evenodd" d="M68.0135 337.681C65.7667 337.681 63.4953 337.525 61.2077 337.203C61.147 337.194 61.0888 337.186 61.0294 337.177C51.4917 335.783 42.5964 331.563 35.4997 325.189C28.6593 319.008 23.641 310.949 21.1665 301.968C21.1269 301.824 21.0873 301.679 21.0489 301.534C20.4634 299.314 20.04 297.088 19.7764 294.868L86.7894 333.873C84.6838 334.763 82.5076 335.507 80.277 336.094C77.2566 336.885 74.2275 337.373 71.2208 337.574C71.2146 337.576 71.2096 337.576 71.2034 337.576H71.1997C70.1451 337.646 69.0817 337.681 68.0135 337.681Z" fill="white"/>
</mask>
<g mask="url(#mask0)">
<path fill-rule="evenodd" clip-rule="evenodd" d="M19.7764 337.681H86.7894V294.868H19.7764V337.681Z" fill="#E6E5EC"/>
</g>
<path fill-rule="evenodd" clip-rule="evenodd" d="M67.99 337.683C65.643 337.683 63.3183 337.511 61.0294 337.177C61.0889 337.186 61.147 337.194 61.2077 337.203C63.4953 337.525 65.7667 337.681 68.0135 337.681C69.0817 337.681 70.1451 337.646 71.1997 337.576C70.1253 337.647 69.057 337.683 67.99 337.683ZM80.277 336.094C82.5076 335.507 84.6838 334.763 86.7894 333.873L86.8055 333.883C84.7444 334.75 82.5992 335.481 80.3797 336.067C80.3451 336.076 80.3116 336.085 80.277 336.094ZM35.4997 325.189C28.8078 319.18 23.7103 311.252 21.1665 301.968C23.641 310.949 28.6593 319.008 35.4997 325.189Z" fill="#73768D"/>
<path fill-rule="evenodd" clip-rule="evenodd" d="M100.987 324.702L20.742 277.995C20.3472 279.662 20.0377 281.354 19.8198 283.066C20.0377 281.354 20.3472 279.662 20.742 277.995C22.0839 272.34 24.4309 266.985 27.6332 262.19C28.8265 260.397 30.1399 258.683 31.5647 257.06C30.1399 258.683 28.8265 260.397 27.6332 262.19L111.338 310.908C109.447 314.675 107.069 318.191 104.267 321.357C103.226 322.526 102.13 323.642 100.987 324.702ZM116.318 284.618C116.304 284.464 116.288 284.309 116.272 284.154L48.4789 244.695C50.9137 243.62 53.4439 242.744 56.0496 242.079C58.9438 241.345 61.8441 240.888 64.7258 240.694C65.7929 240.624 66.8686 240.586 67.9492 240.586C70.1229 240.586 72.3176 240.732 74.5297 241.035C84.2692 242.375 93.3588 246.659 100.574 253.18C107.427 259.413 112.437 267.537 114.872 276.581C114.885 276.633 114.899 276.686 114.914 276.738C115.566 279.209 116.017 281.688 116.272 284.154C116.288 284.309 116.304 284.464 116.318 284.618Z" fill="#E6E5EC"/>
<path fill-rule="evenodd" clip-rule="evenodd" d="M100.997 324.709L100.986 324.702C102.13 323.642 103.226 322.526 104.267 321.357C103.233 322.524 102.144 323.642 100.997 324.709ZM114.871 276.581C112.437 267.537 107.427 259.413 100.574 253.18C107.277 259.24 112.367 267.226 114.871 276.581ZM31.5645 257.06C36.1346 251.852 41.8523 247.58 48.4588 244.684C50.7328 243.687 53.1107 242.854 55.5827 242.201C55.7387 242.16 55.8922 242.119 56.0494 242.079C53.4437 242.744 50.9135 243.62 48.4786 244.695L48.4588 244.684C41.8523 247.58 36.1346 251.852 31.5645 257.06ZM74.5295 241.035C72.3174 240.732 70.1227 240.586 67.949 240.586C66.8683 240.586 65.7926 240.624 64.7256 240.694C65.81 240.621 66.8931 240.585 67.97 240.585C70.1809 240.585 72.3706 240.737 74.5295 241.035Z" fill="#73768D"/>
<path fill-rule="evenodd" clip-rule="evenodd" d="M111.338 310.908L27.6333 262.19C28.8266 260.397 30.14 258.683 31.5648 257.06C36.2352 251.774 42.0173 247.543 48.4789 244.695L116.272 284.154C116.288 284.309 116.304 284.464 116.318 284.618C116.663 288.305 116.586 292.087 116.048 295.909C116.03 296.037 116.012 296.165 115.992 296.293C115.221 301.413 113.636 306.344 111.338 310.908Z" fill="#F0EEF3"/>
<path fill-rule="evenodd" clip-rule="evenodd" d="M115.992 296.293C116.012 296.165 116.03 296.037 116.047 295.909C116.586 292.086 116.663 288.305 116.317 284.618C116.458 286.118 116.528 287.61 116.529 289.097C116.53 291.524 116.348 293.928 115.992 296.293ZM31.5645 257.06C36.1346 251.852 41.8523 247.58 48.4588 244.684L48.4786 244.695C42.017 247.543 36.2349 251.774 31.5645 257.06Z" fill="#A1A4AF"/>
<path fill-rule="evenodd" clip-rule="evenodd" d="M86.7892 333.873L19.7762 294.868C19.5856 293.277 19.4754 291.692 19.4444 290.113C19.3986 287.79 19.52 285.435 19.8195 283.066C20.0374 281.354 20.3468 279.662 20.7417 277.995L100.986 324.702C96.8332 328.549 92.0278 331.661 86.7892 333.873Z" fill="#F0EEF3"/>
<path fill-rule="evenodd" clip-rule="evenodd" d="M86.8053 333.883L86.7892 333.873C92.0279 331.661 96.8333 328.549 100.986 324.702L100.997 324.709C96.9187 328.509 92.1442 331.641 86.8053 333.883ZM19.4445 290.113C19.4371 289.796 19.4346 289.481 19.4346 289.166C19.4333 287.113 19.5633 285.076 19.8196 283.066C19.52 285.435 19.3987 287.79 19.4445 290.113Z" fill="#A1A4AF"/>
</svg>
