<?xml version="1.0" encoding="UTF-8"?>
<svg width="205px" height="25px" viewBox="0 0 205 25" version="1.1" xmlns="http://www.w3.org/2000/svg" xmlns:xlink="http://www.w3.org/1999/xlink">
    <!-- Generator: Sketch 64 (93537) - https://sketch.com -->
    <title>logo</title>
    <desc>Created with Sketch.</desc>
    <g id="Page-1" stroke="none" stroke-width="1" fill="none" fill-rule="evenodd">
        <g id="Desktop-HD" transform="translate(-598.000000, -233.000000)" fill="#E30613" fill-rule="nonzero">
            <g id="logo" transform="translate(598.000000, 233.000000)">
                <g id="Group-2" transform="translate(106.418114, 0.500000)">
                    <path d="M5.3928,9.2114581 L5.3928,2.6594581 L8.0262,2.6594581 L8.0262,0.517458101 L0.252,0.517458101 L0.252,2.6594581 L2.8728,2.6594581 L2.8728,9.2114581 L5.3928,9.2114581 Z M15.6492,9.2114581 L15.6492,7.1324581 L11.5542,7.1324581 L11.5542,5.7464581 L14.5908,5.7464581 L14.5908,3.7304581 L11.5542,3.7304581 L11.5542,2.5964581 L15.6366,2.5964581 L15.6366,0.517458101 L9.0342,0.517458101 L9.0342,9.2114581 L15.6492,9.2114581 Z M20.601,9.4004581 C22.9698,9.4004581 24.4062,8.5184581 24.6582,6.1748581 L22.0752,6.1748581 C21.9366,7.1450581 21.3948,7.3844581 20.601,7.3844581 C19.6938,7.3844581 19.0512,7.1450581 19.0512,5.6204581 L19.0512,4.0832581 C19.0512,2.5586581 19.719,2.3444581 20.601,2.3444581 C21.4074,2.3444581 21.9618,2.5460581 22.0626,3.5288581 L24.6456,3.5288581 C24.4314,1.1600581 22.9698,0.328458101 20.601,0.328458101 C18.018,0.328458101 16.4682,1.4246581 16.4682,4.8266581 C16.4682,8.3672581 18.018,9.4004581 20.601,9.4004581 Z M30.303,9.2114581 L30.303,2.6594581 L32.9364,2.6594581 L32.9364,0.517458101 L25.1622,0.517458101 L25.1622,2.6594581 L27.783,2.6594581 L27.783,9.2114581 L30.303,9.2114581 Z M37.8504,9.4004581 C40.7106,9.4004581 42.3234,8.3546581 42.3234,4.7384581 C42.3234,1.3490581 40.7106,0.328458101 37.8504,0.328458101 C34.9902,0.328458101 33.3774,1.3490581 33.3774,4.7384581 C33.3774,8.3546581 34.9902,9.4004581 37.8504,9.4004581 Z M37.8504,7.3844581 C36.603,7.3844581 35.9604,7.0694581 35.9604,5.4692581 L35.9604,4.2344581 C35.9604,2.7728581 36.603,2.3444581 37.8504,2.3444581 C39.0978,2.3444581 39.7404,2.7728581 39.7404,4.2344581 L39.7404,5.4692581 C39.7404,7.0694581 39.0978,7.3844581 37.8504,7.3844581 Z M48.069,9.2114581 C50.0346,9.2114581 51.0174,8.2664581 51.0174,6.6284581 C51.0174,5.6960581 50.5764,4.9400581 49.3542,4.6124581 C50.4756,4.2470581 50.8158,3.4658581 50.8158,2.6342581 C50.8158,1.2608581 49.8456,0.517458101 48.195,0.517458101 L43.5204,0.517458101 L43.5204,9.2114581 L48.069,9.2114581 Z M47.3256,3.9320581 L45.9774,3.9320581 L45.9774,2.2814581 L47.3256,2.2814581 C47.8926,2.2814581 48.2328,2.5334581 48.2328,2.9618581 L48.2328,3.2138581 C48.2328,3.6800581 47.8926,3.9320581 47.3256,3.9320581 Z M47.439,7.4474581 L45.9774,7.4474581 L45.9774,5.5448581 L47.439,5.5448581 C48.069,5.5448581 48.4344,5.8346581 48.4344,6.3134581 L48.4344,6.6662581 C48.4344,7.1702581 48.069,7.4474581 47.439,7.4474581 Z M53.5626,9.2114581 L54.054,7.5482581 L57.1284,7.5482581 L57.6324,9.2114581 L60.291,9.2114581 L57.6072,0.517458101 L53.9532,0.517458101 L51.2694,9.2114581 L53.5626,9.2114581 Z M56.5614,5.6582581 L54.621,5.6582581 L55.5912,2.4452581 L56.5614,5.6582581 Z M63.378,9.2114581 L64.7136,6.3764581 L65.9232,6.3764581 L65.9232,9.2114581 L68.4432,9.2114581 L68.4432,0.517458101 L64.1466,0.517458101 C61.9416,0.517458101 60.8706,1.6514581 60.8706,3.4406581 C60.8706,4.6250581 61.3494,5.4944581 62.2566,5.9606581 L60.732,9.2114581 L63.378,9.2114581 Z M65.9232,4.3982581 L64.3104,4.3982581 C63.7938,4.3982581 63.4536,4.0706581 63.4536,3.5540581 L63.4536,3.2768581 C63.4536,2.7854581 63.819,2.5334581 64.3104,2.5334581 L65.9232,2.5334581 L65.9232,4.3982581 Z" id="ТЕСТОВАЯ"></path>
                    <path d="M0.819,23.5 C3.0996,23.5 3.9942,22.5298 3.9942,18.397 L3.9942,16.948 L6.1362,16.948 L6.1362,23.5 L8.6562,23.5 L8.6562,14.806 L1.6632,14.806 L1.6632,18.4222 C1.6632,20.3626 1.4742,21.169 0.4788,21.169 L0.252,21.169 L0.252,23.5 L0.819,23.5 Z M11.8314,23.5 L12.3228,21.8368 L15.3972,21.8368 L15.9012,23.5 L18.5598,23.5 L15.876,14.806 L12.222,14.806 L9.5382,23.5 L11.8314,23.5 Z M14.8302,19.9468 L12.8898,19.9468 L13.86,16.7338 L14.8302,19.9468 Z M24.2046,23.5 C26.1324,23.5 27.0648,22.4416 27.0648,20.665 C27.0648,18.9766 26.1324,18.019 24.2046,18.019 L21.8988,18.019 L21.8988,16.885 L26.4474,16.885 L26.4474,14.806 L19.4418,14.806 L19.4418,23.5 L24.2046,23.5 Z M23.7384,21.547 L21.8988,21.547 L21.8988,19.846 L23.7384,19.846 C24.2424,19.846 24.4818,20.098 24.4818,20.5516 L24.4818,20.8666 C24.4818,21.3076 24.2046,21.547 23.7384,21.547 Z M32.3568,23.689 C35.217,23.689 36.8298,22.6432 36.8298,19.027 C36.8298,15.6376 35.217,14.617 32.3568,14.617 C29.4966,14.617 27.8838,15.6376 27.8838,19.027 C27.8838,22.6432 29.4966,23.689 32.3568,23.689 Z M32.3568,21.673 C31.1094,21.673 30.4668,21.358 30.4668,19.7578 L30.4668,18.523 C30.4668,17.0614 31.1094,16.633 32.3568,16.633 C33.6042,16.633 34.2468,17.0614 34.2468,18.523 L34.2468,19.7578 C34.2468,21.358 33.6042,21.673 32.3568,21.673 Z M40.5468,23.5 L40.5468,20.854 L42.6258,20.854 C44.7048,20.854 45.6876,19.783 45.6876,17.8678 C45.6876,15.9274 44.7048,14.806 42.6258,14.806 L38.0268,14.806 L38.0268,23.5 L40.5468,23.5 Z M42.3108,18.775 L40.5468,18.775 L40.5468,16.885 L42.3108,16.885 C42.8274,16.885 43.1046,17.2378 43.1046,17.6662 L43.1046,18.0442 C43.1046,18.4978 42.8274,18.775 42.3108,18.775 Z M47.6658,23.5 L48.1572,21.8368 L51.2316,21.8368 L51.7356,23.5 L54.3942,23.5 L51.7104,14.806 L48.0564,14.806 L45.3726,23.5 L47.6658,23.5 Z M50.6646,19.9468 L48.7242,19.9468 L49.6944,16.7338 L50.6646,19.9468 Z M59.094,23.5 L59.094,16.948 L61.7274,16.948 L61.7274,14.806 L53.9532,14.806 L53.9532,16.948 L56.574,16.948 L56.574,23.5 L59.094,23.5 Z M66.6414,23.689 C69.5016,23.689 71.1144,22.6432 71.1144,19.027 C71.1144,15.6376 69.5016,14.617 66.6414,14.617 C63.7812,14.617 62.1684,15.6376 62.1684,19.027 C62.1684,22.6432 63.7812,23.689 66.6414,23.689 Z M66.6414,21.673 C65.394,21.673 64.7514,21.358 64.7514,19.7578 L64.7514,18.523 C64.7514,17.0614 65.394,16.633 66.6414,16.633 C67.8888,16.633 68.5314,17.0614 68.5314,18.523 L68.5314,19.7578 C68.5314,21.358 67.8888,21.673 66.6414,21.673 Z M74.8314,23.5 L74.8314,20.854 L76.9104,20.854 C78.9894,20.854 79.9722,19.783 79.9722,17.8678 C79.9722,15.9274 78.9894,14.806 76.9104,14.806 L72.3114,14.806 L72.3114,23.5 L74.8314,23.5 Z M76.5954,18.775 L74.8314,18.775 L74.8314,16.885 L76.5954,16.885 C77.112,16.885 77.3892,17.2378 77.3892,17.6662 L77.3892,18.0442 C77.3892,18.4978 77.112,18.775 76.5954,18.775 Z M83.8026,23.5 L86.562,18.3844 L86.562,23.5 L89.082,23.5 L89.082,14.806 L86.2596,14.806 L83.5002,19.9216 L83.5002,14.806 L80.9802,14.806 L80.9802,23.5 L83.8026,23.5 Z M92.988,23.5 L94.3236,20.665 L95.5332,20.665 L95.5332,23.5 L98.0532,23.5 L98.0532,14.806 L93.7566,14.806 C91.5516,14.806 90.4806,15.94 90.4806,17.7292 C90.4806,18.9136 90.9594,19.783 91.8666,20.2492 L90.342,23.5 L92.988,23.5 Z M95.5332,18.6868 L93.9204,18.6868 C93.4038,18.6868 93.0636,18.3592 93.0636,17.8426 L93.0636,17.5654 C93.0636,17.074 93.429,16.822 93.9204,16.822 L95.5332,16.822 L95.5332,18.6868 Z" id="ЛАБОРАТОРИЯ"></path>
                </g>
                <g id="Shape">
                    <path d="M8.88627583,8.52651283e-14 C7.038468,8.52651283e-14 4.82109861,1.78812416 3.02368554,4.79082321 C1.1086847,7.92847503 0,11.7746289 0,15.1315789 C0,20.0573549 2.73811524,25 8.88627583,25 C15.0344364,25 17.7725517,20.0573549 17.7725517,15.1315789 C17.7725517,11.7746289 16.663867,7.91160594 14.7488661,4.80769231 C12.951453,1.78812416 10.7340837,8.52651283e-14 8.88627583,8.52651283e-14 Z M63.0942382,7.46268884 L63.0942382,24.0326586 L69.7631446,24.0326586 L69.7631446,7.46268884 L75.9784982,7.46268884 L75.9784982,1.33265857 L56.8788846,1.33265857 L56.8788846,7.46268884 L63.0942382,7.46268884 Z M90.2234168,7.45342897 L100,7.45342897 L100,1.33265857 L90.2234168,1.33265857 C81.2363514,1.33265857 76.4488493,5.8932326 76.4488493,12.6826586 C76.4488493,19.4720845 81.2531497,24.0326586 90.2234168,24.0326586 L100,24.0326586 L100,17.8947432 L90.2234168,17.8947432 C86.05745,17.8947432 83.3529313,16.3688368 83.3529313,12.6826586 C83.3529313,8.99648033 86.05745,7.45342897 90.2234168,7.45342897 Z M43.3226944,1.34952767 L39.7614648,14.8940897 L36.2002352,1.34952767 L24.4246598,1.34952767 L24.4246598,24.0495277 L31.0935663,24.0495277 L31.0935663,5.56720139 L35.9482614,24.0152376 L43.5914665,24.0152376 L48.4461616,5.55005637 L48.4461616,24.0152376 L55.115068,24.0152376 L55.115068,1.34952767 L43.3226944,1.34952767 Z"></path>
                </g>
            </g>
        </g>
    </g>
</svg>