<?xml version="1.0" encoding="UTF-8"?>
<svg width="100px" height="60px" viewBox="0 0 100 60" version="1.1" xmlns="http://www.w3.org/2000/svg" xmlns:xlink="http://www.w3.org/1999/xlink">
    <!-- Generator: Sketch 64 (93537) - https://sketch.com -->
    <title>logo</title>
    <desc>Created with Sketch.</desc>
    <g id="Page-1" stroke="none" stroke-width="1" fill="none" fill-rule="evenodd">
        <g id="Desktop-HD" transform="translate(-598.000000, -233.000000)" fill="#E30613">
            <g id="logo" transform="translate(598.000000, 233.000000)">
                <g id="Group-2" transform="translate(0.500000, 32.000000)" font-family="MTSSans-Black, MTS Sans" font-size="12.6" font-weight="700">
                    <text id="ТЕСТОВАЯ" line-spacing="13.5">
                        <tspan x="0" y="12.7114581">ТЕСТОВАЯ</tspan>
                    </text>
                    <text id="ЛАБОРАТОРИЯ" line-spacing="14.5">
                        <tspan x="0" y="27">ЛАБОРАТОРИЯ</tspan>
                    </text>
                </g>
                <g id="Shape" fill-rule="nonzero">
                    <path d="M8.88627583,8.52651283e-14 C7.038468,8.52651283e-14 4.82109861,1.78812416 3.02368554,4.79082321 C1.1086847,7.92847503 0,11.7746289 0,15.1315789 C0,20.0573549 2.73811524,25 8.88627583,25 C15.0344364,25 17.7725517,20.0573549 17.7725517,15.1315789 C17.7725517,11.7746289 16.663867,7.91160594 14.7488661,4.80769231 C12.951453,1.78812416 10.7340837,8.52651283e-14 8.88627583,8.52651283e-14 Z M63.0942382,7.46268884 L63.0942382,24.0326586 L69.7631446,24.0326586 L69.7631446,7.46268884 L75.9784982,7.46268884 L75.9784982,1.33265857 L56.8788846,1.33265857 L56.8788846,7.46268884 L63.0942382,7.46268884 Z M90.2234168,7.45342897 L100,7.45342897 L100,1.33265857 L90.2234168,1.33265857 C81.2363514,1.33265857 76.4488493,5.8932326 76.4488493,12.6826586 C76.4488493,19.4720845 81.2531497,24.0326586 90.2234168,24.0326586 L100,24.0326586 L100,17.8947432 L90.2234168,17.8947432 C86.05745,17.8947432 83.3529313,16.3688368 83.3529313,12.6826586 C83.3529313,8.99648033 86.05745,7.45342897 90.2234168,7.45342897 Z M43.3226944,1.34952767 L39.7614648,14.8940897 L36.2002352,1.34952767 L24.4246598,1.34952767 L24.4246598,24.0495277 L31.0935663,24.0495277 L31.0935663,5.56720139 L35.9482614,24.0152376 L43.5914665,24.0152376 L48.4461616,5.55005637 L48.4461616,24.0152376 L55.115068,24.0152376 L55.115068,1.34952767 L43.3226944,1.34952767 Z"></path>
                </g>
            </g>
        </g>
    </g>
</svg>