<svg width="22" height="22" viewBox="0 0 22 22" fill="none" xmlns="http://www.w3.org/2000/svg">
<path d="M15.3268 13.0548C18.0205 9.32567 17.1196 4.16195 13.3159 1.52168C9.5122 -1.11854 4.2452 -0.235943 1.55212 3.49381C-1.14091 7.22292 -0.240663 12.386 3.5637 15.0262C6.2786 16.9107 9.868 17.0558 12.7316 15.3978L18.9536 21.4612C19.6254 22.1546 20.7431 22.1823 21.4504 21.5237C22.1576 20.8656 22.1859 19.7699 21.5147 19.0765C21.4935 19.0545 21.4729 19.0343 21.4504 19.0134L15.3268 13.0548ZM8.4343 13.6201C5.4286 13.6207 2.9916 11.2334 2.9897 8.28655C2.9891 5.33979 5.424 2.95058 8.4305 2.9494C11.4324 2.94813 13.868 5.33156 13.8738 8.27459C13.879 11.222 11.4453 13.615 8.4382 13.6201C8.4369 13.6201 8.4363 13.6201 8.4343 13.6201Z" fill="#4B4771"/>
</svg>
